<svg id="logo" xmlns="http://www.w3.org/2000/svg" width="300px" height="300px" viewBox="0 0 300 300" >
<path id="logo_final" d="M116.355,168c0.133,0-0.355-0.333-0.355-0.333V228H75v-60H116.355z M116,70H75v46h41V70z M228,30v94h-32.88
	c-2.739,5-5.966,9.689-9.758,13.736c4.546,2.563,8.57,5.704,12.023,8.649c5.552,4.74,10.025,9.836,13.302,15.705
	c0.401,0.719,0.744,1.909,1.114,1.909H228v106h42V30H228z M185.214,249.347c-6.595,6.26-14.247,11.542-22.745,15.117
	c-8.424,3.549-17.3,5.536-26.387,5.536H30V30h95.123c10.871,0,20.629,1.187,29.002,4.312c8.312,3.107,15.417,7.148,21.107,12.397
	c5.652,5.219,10.064,11.237,13.111,18.081c3.028,6.817,4.565,14.193,4.565,22.021c0,9.264-1.898,18.125-5.641,26.384
	c-3.737,8.234-9.445,15.651-16.964,22.068l-7.636,6.51l9.146,4.133c6.964,3.15,12.786,6.697,17.3,10.547
	c4.393,3.752,7.908,7.959,10.447,12.506c2.584,4.632,4.445,9.669,5.529,14.971c1.127,5.534,1.699,11.315,1.699,17.174
	c0,9.235-1.95,18.1-5.793,26.345C197.091,235.817,191.779,243.115,185.214,249.347z M60,129h59.643
	c6.56,0,12.631-1.199,18.041-3.142c5.409-1.938,10.231-4.854,14.335-8.247c4.198-3.479,7.513-7.6,9.854-12.272
	c2.388-4.768,3.597-9.885,3.597-15.25c0-9.594-3.448-17.54-10.245-23.884C148.458,59.891,138.254,57,124.027,57H60V129z
	 M177.158,199.908c0-12.461-5.663-23.148-16.83-32.055C149.597,159.295,134.802,155,116.355,155H60v86h65.487
	c5.897,0,11.871-0.041,17.752-1.645c5.999-1.637,11.539-3.509,16.468-6.794c5.162-3.442,9.38-7.808,12.536-13.115
	C175.505,213.964,177.158,207.373,177.158,199.908z"/>
</svg>