<svg id="launch" xmlns="http://www.w3.org/2000/svg" width="300px" height="300px" viewBox="0 0 300 300">
<rect y="320" fill="#0B63FF" width="300" height="300"/>
<path id="Email_icon_1" fill="#FF0000" d="M-816.354-565.814l-76.354,57.023v90.671H-740v-90.671L-816.354-565.814z
	 M-837.478-525.143c2.238-4.085,5.317-7.165,9.237-9.201c3.934-2.087,8.412-3.13,13.427-3.13c4.275,0,8.055,0.84,11.389,2.481
	c3.271,1.693,5.816,4.021,7.597,7.114c1.744,3.028,2.636,6.362,2.636,9.989c0,4.327-1.336,8.196-4.022,11.734
	c-3.334,4.364-7.609,6.553-12.827,6.553c-1.387,0-2.431-0.191-3.181-0.687c-0.701-0.496-1.197-1.247-1.388-2.189
	c-1.998,1.934-4.326,2.927-6.91,2.927c-2.838,0-5.128-0.993-7.013-2.927c-1.845-1.947-2.786-4.53-2.786-7.712
	c0-4.021,1.146-7.597,3.386-10.88c2.685-4.034,6.159-6.019,10.384-6.019c3.041,0,5.268,1.145,6.668,3.436l0.636-2.787h6.72
	l-3.83,18.197c-0.242,1.133-0.344,1.884-0.344,2.228c0,0.457,0.102,0.75,0.292,0.954c0.204,0.191,0.395,0.293,0.7,0.293
	c0.789,0,1.832-0.446,3.131-1.439c1.743-1.297,3.131-3.028,4.174-5.166c1.095-2.189,1.642-4.429,1.642-6.77
	c0-4.123-1.489-7.648-4.53-10.435c-3.029-2.787-7.254-4.225-12.624-4.225c-4.568,0-8.501,0.942-11.682,2.838
	c-3.183,1.832-5.562,4.517-7.203,7.902c-1.641,3.372-2.43,6.91-2.43,10.588c0,3.576,0.94,6.808,2.723,9.735
	c1.794,2.94,4.327,5.078,7.559,6.414c3.283,1.349,7.013,2.036,11.236,2.036c4.022,0,7.509-0.547,10.385-1.68
	c2.939-1.145,5.269-2.838,7.063-5.077h5.421c-1.693,3.436-4.327,6.121-7.814,8.106c-4.021,2.189-8.895,3.334-14.659,3.334
	c-5.612,0-10.436-0.955-14.47-2.838c-4.071-1.883-7.101-4.67-9.086-8.348c-1.998-3.678-2.991-7.711-2.991-12.039
	C-840.864-516.605-839.719-521.02-837.478-525.143 M-887.338-507.009l56.375,37.782l-56.375,43.598V-507.009z M-883.062-422.701
	l66.708-51.59l66.708,51.59H-883.062z M-745.37-425.629l-56.375-43.598l56.375-37.782V-425.629z M-813.566-520.969
	c0.891,0.992,1.336,2.482,1.336,4.364c0,1.744-0.344,3.589-0.992,5.574c-0.65,1.985-1.438,3.475-2.342,4.518
	c-0.585,0.7-1.235,1.247-1.884,1.591c-0.84,0.458-1.743,0.7-2.735,0.7c-1.286,0-2.33-0.497-3.233-1.54
	c-0.89-0.993-1.285-2.583-1.285-4.721c0-1.591,0.293-3.487,0.941-5.574c0.599-2.087,1.541-3.627,2.788-4.772
	c1.233-1.133,2.583-1.68,4.021-1.68C-815.603-522.509-814.47-522.012-813.566-520.969"/>
<g id="Email_Icon_2">
	<path fill="#FFFFFF" d="M-491.897-496.744l100.772-68.739h-200.309c-0.112,0-0.215,0.029-0.327,0.031L-491.897-496.744z"/>
	<path fill="#FFFFFF" d="M-380.539-558.177l-105.007,71.626c-0.898,0.659-3.181,2.067-6.237,2.067c-3.115,0-5.593-1.484-6.278-1.938
		l-103.679-71.33c-0.29,0.979-0.495,1.993-0.495,3.067v128.4c0,5.966,4.836,10.8,10.801,10.8h200.724c5.963,0,10.8-4.834,10.8-10.8
		v-128.4C-379.91-555.914-380.161-557.075-380.539-558.177 M-505.551-474.369l-81.677,49.545c-2.638,1.601-5.75,1.312-6.939-0.653
		c-1.191-1.953-0.009-4.838,2.638-6.446l81.671-49.532c2.646-1.608,5.754-1.316,6.942,0.634
		C-501.726-478.863-502.91-475.971-505.551-474.369 M-387.978-425.478c-1.188,1.965-4.299,2.254-6.938,0.653l-81.677-49.545
		c-2.643-1.602-3.825-4.494-2.638-6.453c1.19-1.95,4.298-2.242,6.945-0.634l81.67,49.532
		C-387.969-430.315-386.788-427.431-387.978-425.478"/>
</g>
<g id="Email_icon_3">
	<polygon fill="#FF4810" points="-114.338,-504.445 -171.854,-463.43 -229.372,-504.445 -248.209,-517.874 -248.209,-430 
		-95.501,-430 -95.501,-517.874 	"/>
	<path fill="#FF4810" d="M-231.983-509.964l57.518,40.995c0.778,0.564,1.694,0.86,2.61,0.86c0.917,0,1.833-0.296,2.64-0.86
		l57.511-40.995c1.184-0.861,1.887-2.233,1.887-3.687v-37.599c0-2.501-2.018-4.52-4.52-4.52h-115.034
		c-2.501,0-4.521,2.019-4.521,4.52v37.599C-233.893-512.169-233.161-510.798-231.983-509.964 M-224.846-546.729h105.981v30.736
		l-52.991,37.791l-52.99-37.791V-546.729z"/>
	<path fill="#FF4810" d="M-206.952-527.375h67.342c2.715,0,4.926-2.205,4.926-4.927c0-2.715-2.211-4.898-4.926-4.898h-67.342
		c-2.715,0-4.926,2.184-4.926,4.898C-211.878-529.58-209.667-527.375-206.952-527.375"/>
	<path fill="#FF4810" d="M-134.684-515.208c0-2.693-2.212-4.898-4.926-4.898h-67.343c-2.715,0-4.927,2.178-4.927,4.898
		c0,2.715,2.212,4.927,4.927,4.927h67.343C-136.896-510.281-134.684-512.493-134.684-515.208"/>
</g>
<g id="Email_icon_4">
	<path fill="#FFFFFF" d="M153.663-506.267c-2.588,0-4.973,0.724-7.165,2.196c-2.201,1.462-4.095,3.342-5.689,5.668
		c-1.593,2.328-2.824,4.92-3.677,7.804c-0.868,2.883-1.294,5.688-1.294,8.443c0,2.84,0.577,5.151,1.741,6.971
		c1.165,1.792,3.17,2.7,6.013,2.7c1.196,0,2.504-0.365,3.873-1.101c1.376-0.725,2.702-1.687,4.011-2.903
		c1.281-1.195,2.532-2.572,3.741-4.12c1.197-1.547,2.277-3.182,3.231-4.9l3.228-17.794c-1.123-0.948-2.289-1.675-3.486-2.196
		C156.979-506.013,155.474-506.267,153.663-506.267"/>
	<path fill="#FFFFFF" d="M150.5-564.504c-41.508,0-75.153,33.579-75.153,74.992c0,41.425,33.646,75.008,75.153,75.008
		c41.507,0,75.146-33.583,75.146-75.008C225.646-530.925,192.007-564.504,150.5-564.504 M198.566-470.542
		c-3.402,3.521-7.374,6.316-11.884,8.379c-4.522,2.06-9.382,3.095-14.536,3.095c-2.16,0-4.157-0.234-6.011-0.717
		c-1.859-0.47-3.409-1.259-4.65-2.378c-1.251-1.121-2.183-2.585-2.784-4.387c-0.607-1.804-0.779-4.047-0.512-6.703h-0.523
		c-1.281,1.804-2.685,3.563-4.192,5.282c-1.51,1.718-3.168,3.246-4.974,4.579c-1.807,1.333-3.796,2.393-5.946,3.157
		c-2.159,0.77-4.523,1.166-7.103,1.166c-2.074,0-4.053-0.459-5.959-1.355c-1.881-0.907-3.518-2.178-4.898-3.802
		c-1.377-1.631-2.479-3.617-3.295-5.934c-0.822-2.325-1.227-4.899-1.227-7.739c0-5.337,0.864-10.511,2.575-15.539
		c1.733-5.029,4.077-9.479,7.052-13.343c2.975-3.874,6.416-6.981,10.34-9.351c3.916-2.356,8.075-3.544,12.463-3.544
		c3.013,0,5.559,0.448,7.624,1.355c2.064,0.907,3.957,2.083,5.689,3.545l4.001-4.13h9.049l-6.202,34.945
		c-0.687,4.045-0.708,6.967-0.066,8.774c0.654,1.804,2.084,2.7,4.335,2.7c2.232,0,4.437-0.515,6.586-1.549
		c2.148-1.025,4.085-2.615,5.819-4.771c1.708-2.146,3.121-4.845,4.188-8.109c1.085-3.28,1.617-7.144,1.617-11.614
		c0-6.449-1.081-11.955-3.229-16.513c-2.162-4.546-5.112-8.315-8.855-11.271c-3.743-2.967-8.163-5.145-13.241-6.512
		c-5.082-1.377-10.559-2.07-16.406-2.07c-6.717,0-12.965,1.204-18.738,3.606c-5.777,2.414-10.788,5.721-15.06,9.927
		c-4.258,4.217-7.59,9.222-10.01,15.029c-2.407,5.796-3.617,12.104-3.617,18.892c0,6.703,1.016,12.723,3.038,18.05
		c2.02,5.338,4.974,9.863,8.856,13.609c3.87,3.737,8.672,6.618,14.406,8.635c5.72,2.02,12.288,3.032,19.7,3.032
		c2.504,0,5.335-0.301,8.535-0.897c3.175-0.607,6.063-1.503,8.653-2.711l3.997,12.383c-3.528,1.717-7.12,2.913-10.788,3.607
		c-3.659,0.683-7.852,1.036-12.599,1.036c-8.354,0-16.089-1.208-23.188-3.618c-7.101-2.401-13.274-5.97-18.482-10.697
		c-5.211-4.729-9.285-10.598-12.201-17.601c-2.933-7.001-4.397-15.113-4.397-24.302c0-9.373,1.679-17.85,5.038-25.415
		c3.357-7.559,7.891-14.004,13.574-19.341c5.676-5.329,12.277-9.428,19.762-12.319c7.497-2.871,15.424-4.311,23.774-4.311
		c7.926,0,15.287,1.13,22.09,3.414c6.81,2.274,12.704,5.539,17.711,9.799c4.993,4.259,8.908,9.457,11.754,15.606
		c2.845,6.147,4.265,13.125,4.265,20.952c0,5.506-0.969,10.663-2.907,15.479C204.641-478.24,201.967-474.075,198.566-470.542"/>
</g>
<g id="CV_icon_1">
	<g>
		<path fill="#231F20" d="M524.749-362.131l46.106-46.106c0,0,0-147.833,0-168.324c0-20.492-6.587-33.665-28.542-33.665
			s-127.341,0-138.318,0s-30.006,5.123-30.006,27.079c0,21.955,0,158.078,0,179.301c0,21.223,4.392,41.715,31.47,41.715
			S524.749-362.131,524.749-362.131z"/>
	</g>
	<g>
		<path fill="#FFFFFF" d="M509.053-378.598c0,0,0-11.526,0-20.308s6.586-25.798,23.603-25.798c17.015,0,22.504,0,22.504,0
			s0-137.769,0-147.1s3.842-23.053-16.467-23.053s-111.424,0-127.89,0c-16.467,0-21.406,2.195-21.406,18.113s0,170.153,0,181.131
			s2.195,17.015,18.662,17.015S509.053-378.598,509.053-378.598z"/>
	</g>
	<g>
		<g>
			<path fill="#231F20" d="M429.461-535.193c-1.449,1.004-4.707,2.081-8.948,2.081c-12.048,0-18.255-10.396-18.255-24.158
				c0-16.485,8.481-25.661,19.029-25.661c4.089,0,7.188,1.147,8.587,2.15l-1.605,8.674c-1.599-0.934-3.827-1.792-6.619-1.792
				c-6.258,0-11.117,5.232-11.117,15.983c0,9.677,4.136,15.771,11.172,15.771c2.379,0,5.016-0.718,6.564-1.579L429.461-535.193z"/>
		</g>
		<g>
			<path fill="#231F20" d="M443.336-533.83l-11.167-48.312h8.636l4.241,20.428c1.188,5.734,2.273,11.256,3.099,17.276h0.156
				c0.881-5.808,1.967-11.542,3.154-17.061l4.451-20.644h8.375l-11.74,48.312H443.336z"/>
		</g>
	</g>
	<g>
		<rect x="401.569" y="-473.791" fill="#231F20" width="141.063" height="12.075"/>
	</g>
	<g>
		<rect x="401.569" y="-456.501" fill="#231F20" width="141.063" height="4.94"/>
	</g>
	<g>
		<rect x="401.569" y="-446.164" fill="#231F20" width="141.063" height="4.94"/>
	</g>
	<g>
		<rect x="401.569" y="-435.826" fill="#231F20" width="141.063" height="4.94"/>
	</g>
	<g>
		<rect x="401.569" y="-425.489" fill="#231F20" width="109.503" height="4.939"/>
	</g>
	<g>
		<rect x="401.569" y="-414.786" fill="#231F20" width="100.172" height="4.94"/>
	</g>
	<g>
		<rect x="401.569" y="-402.985" fill="#231F20" width="100.172" height="4.94"/>
	</g>
	<g>
		<rect x="402.213" y="-521.36" fill="#231F20" width="141.062" height="12.075"/>
	</g>
	<g>
		<rect x="402.213" y="-504.071" fill="#231F20" width="141.062" height="4.94"/>
	</g>
	<g>
		<rect x="402.213" y="-493.368" fill="#231F20" width="103.007" height="4.94"/>
	</g>
</g>
<path id="Down_Arrow" fill="#FFFFFF" d="M-738.698,112.569c-1.036,0-1.975,0.42-2.652,1.099l-68.599,64.988l-68.599-64.988
	c-0.678-0.679-1.614-1.099-2.65-1.099c-2.073,0-3.751,1.677-3.751,3.75c0,1.036,0.417,1.974,1.099,2.651l71.25,67.5
	c0.678,0.681,1.615,1.099,2.651,1.099c1.037,0,1.975-0.418,2.651-1.099l71.25-67.5c0.682-0.678,1.099-1.615,1.099-2.651
	C-734.949,114.246-736.625,112.569-738.698,112.569"/>
<path id="up_arrow" fill="#FFFFFF" d="M-416.532,179.745l-71.25-67.5c-0.678-0.679-1.616-1.099-2.652-1.099
	c-1.033,0-1.974,0.42-2.651,1.099l-71.25,67.5c-0.681,0.682-1.099,1.615-1.099,2.651c0,2.072,1.678,3.749,3.75,3.749
	c1.037,0,1.974-0.417,2.651-1.098l68.599-64.988l68.599,64.988c0.677,0.681,1.615,1.098,2.651,1.098c2.072,0,3.75-1.677,3.75-3.749
	C-415.433,181.36-415.851,180.427-416.532,179.745"/>
<path fill="#FFFFFF" d="M246.246-231.008c0-2.396-1.954-4.344-4.364-4.344c-1.24,0-2.347,0.529-3.145,1.361l-0.01-0.017
	L124.007-115.56L61.699-177.6c-0.792-0.788-1.886-1.276-3.085-1.276c-2.409,0-4.364,1.951-4.364,4.347
	c0,1.2,0.483,2.288,1.276,3.073l65.455,65.169c0.794,0.787,1.882,1.27,3.087,1.27c1.241,0,2.346-0.524,3.138-1.353l0.023,0.009
	l117.815-121.647l-0.022-0.017C245.778-228.796,246.246-229.844,246.246-231.008"/>
<path fill="#FFFFFF" d="M475.892-170.185l67.887-67.887c0.757-0.753,1.222-1.796,1.222-2.946c0-2.299-1.862-4.167-4.167-4.167
	c-1.147,0-2.188,0.468-2.946,1.222L470-176.076l-67.888-67.888c-0.754-0.754-1.795-1.222-2.945-1.222
	c-2.305,0-4.168,1.868-4.168,4.167c0,1.15,0.464,2.193,1.222,2.949l67.888,67.884l-67.888,67.89
	c-0.758,0.753-1.222,1.795-1.222,2.943c0,2.306,1.863,4.167,4.168,4.167c1.15,0,2.191-0.466,2.945-1.221L470-164.292l67.887,67.887
	c0.758,0.755,1.799,1.221,2.946,1.221c2.305,0,4.167-1.861,4.167-4.167c0-1.148-0.465-2.19-1.222-2.943L475.892-170.185z"/>
<path fill="#0B80E0" d="M-414.72-228.662h-75.001c-16.667,0-16.667-16.664-33.334-16.664h-41.669
	c-9.204,0-16.667,7.459-16.667,16.664v116.668c0,9.212,7.463,16.668,16.667,16.668h150.004c9.204,0,16.667-7.456,16.667-16.668
	v-100.001C-398.053-221.199-405.516-228.662-414.72-228.662 M-406.387-111.994c0,4.605-3.735,8.333-8.333,8.333h-150.004
	c-4.597,0-8.333-3.729-8.333-8.333v-83.334h166.67V-111.994z M-406.387-203.658h-166.67v-25.004c0-4.6,3.736-8.33,8.333-8.33h41.669
	c12.499,0,12.499,16.667,33.334,16.667h75.001c4.598,0,8.333,3.73,8.333,8.331V-203.658z"/>
<path fill="#FFFFFF" d="M-169.999,116.312c-4.6,0-8.333,3.734-8.333,8.334l4.166,45.833c0,2.306,1.867,4.167,4.167,4.167
	c2.299,0,4.167-1.861,4.167-4.167l4.165-45.833C-161.667,120.047-165.4,116.312-169.999,116.312 M-169.999,182.979
	c-4.6,0-8.333,3.735-8.333,8.333c0,4.601,3.733,8.334,8.333,8.334c4.599,0,8.332-3.733,8.332-8.334
	C-161.667,186.715-165.4,182.979-169.999,182.979 M-80.474,199.81l-74.998-116.669c0,0-3.85-8.495-14.527-8.495
	c-10.047,0-14.528,8.495-14.528,8.495l-74.999,116.669c0,0-2.141,2.758-2.141,8.169c0,9.207,7.463,16.667,16.668,16.667h150
	c9.204,0,16.667-7.46,16.667-16.667C-78.332,202.163-80.474,199.81-80.474,199.81 M-94.999,216.312h-150
	c-4.599,0-8.334-3.737-8.334-8.334c0-1.744,0.369-2.806,0.561-3.232c0.146-0.155,0-0.036,0.253-0.429l75-116.667
	c0.131-0.204,0.252-0.411,0.366-0.62c0.021-0.036,2.353-4.051,7.154-4.051c4.801,0,6.688,3.153,6.937,3.601
	c0.2,0.514,0.283,0.607,0.583,1.07l75,116.667c0.106,0.167,0.221,0.329,0.337,0.492c0.123,0.287,0.477,1.281,0.477,3.169
	C-86.666,212.575-90.408,216.312-94.999,216.312"/>
<path fill="#0B80E0" d="M-817.01-135.334c-4.888-1.986-7.023-3.128-7.023-5.707c0-2.105,1.801-3.911,5.507-3.911
	c3.711,0,6.405,1.137,7.921,1.925l1.916-7.392c-2.25-1.077-5.397-2.045-9.667-2.045c-8.929,0-14.326,5.287-14.326,12.196
	c0,5.891,4.1,9.622,10.395,11.966c4.549,1.736,6.345,3.183,6.345,5.707c0,2.644-2.075,4.385-6.005,4.385
	c-3.656,0-7.203-1.262-9.501-2.524l-1.741,7.567c2.135,1.267,6.404,2.47,10.729,2.47c10.4,0,15.289-5.771,15.289-12.561
	C-807.173-128.97-810.321-132.691-817.01-135.334 M-850.799-152.104c-5.228,0-8.934,0.359-11.572,0.848v39.954h8.479v-14.48
	c0.783,0.12,1.801,0.179,2.923,0.179c5.058,0,9.383-1.321,12.305-4.264c2.25-2.285,3.482-5.647,3.482-9.617
	c0-3.966-1.631-7.323-4.045-9.373C-841.75-151.022-845.521-152.104-850.799-152.104 M-851.023-132.631
	c-1.237,0-2.134-0.06-2.868-0.239v-11.961c0.619-0.18,1.801-0.359,3.542-0.359c4.27,0,6.684,2.224,6.684,5.946
	C-843.666-135.095-846.474-132.631-851.023-132.631 M-775.849-274.74h-112.37c-11.283,0-20.431,9.138-20.431,20.431v183.868
	c0,11.292,9.148,20.441,20.431,20.441h143.016c11.284,0,20.431-9.148,20.431-20.441v-148.114L-775.849-274.74z M-734.987-70.441
	c0,5.646-4.569,10.215-10.216,10.215h-143.016c-5.637,0-10.215-4.569-10.215-10.215v-183.868c0-5.646,4.579-10.216,10.215-10.216
	h91.939v51.078c0,5.637,4.579,10.205,10.215,10.205h51.077V-70.441z M-786.064-213.447v-51.078h5.108l45.969,51.078H-786.064z
	 M-801.078-151.256v39.774c2.125,0.299,5.277,0.598,9.716,0.598c7.417,0,13.488-1.676,17.473-5.227
	c3.656-3.303,6.295-8.65,6.295-16.401c0-7.153-2.474-12.141-6.41-15.264c-3.651-2.947-8.31-4.329-15.502-4.329
	C-793.836-152.104-797.936-151.806-801.078-151.256 M-776.697-132.213c0,9.677-5.058,14.241-12.809,14.181
	c-1.067,0-2.25,0-2.978-0.179v-26.501c0.729-0.18,1.965-0.359,3.875-0.359C-781.246-145.071-776.637-140.622-776.697-132.213"/>
<g id="BeHance">
	<path fill="#FFFFFF" d="M-848.343,420.486c5.328,0,10.136,0.457,14.531,1.393c4.37,0.91,8.1,2.438,11.25,4.523
		c3.102,2.09,5.53,4.867,7.27,8.369c1.698,3.445,2.548,7.76,2.548,12.869c0,5.52-1.272,10.131-3.816,13.82
		c-2.564,3.676-6.332,6.699-11.367,9.045c6.856,1.938,11.933,5.354,15.299,10.213c3.382,4.895,5.04,10.742,5.04,17.607
		c0,5.561-1.083,10.348-3.243,14.373c-2.181,4.078-5.15,7.387-8.81,9.934c-3.688,2.574-7.926,4.463-12.672,5.689
		c-4.692,1.229-9.566,1.848-14.555,1.848h-53.988V420.486H-848.343z M-851.515,464.799c4.345,0,7.942-1.012,10.792-3.074
		c2.82-2.029,4.188-5.381,4.188-9.977c0-2.549-0.455-4.66-1.368-6.295c-0.945-1.637-2.197-2.922-3.779-3.816
		c-1.569-0.934-3.341-1.578-5.398-1.928c-2.02-0.387-4.139-0.537-6.308-0.537h-22.944v25.627H-851.515z M-850.161,511.488
		c2.42,0,4.717-0.211,6.877-0.688c2.193-0.471,4.139-1.221,5.778-2.326c1.64-1.062,2.999-2.521,3.986-4.377
		c0.991-1.838,1.466-4.227,1.466-7.109c0-5.654-1.615-9.668-4.829-12.104c-3.218-2.404-7.508-3.6-12.788-3.6h-26.662v30.203
		H-850.161z"/>
	<path fill="#FFFFFF" d="M-772.63,511.121c3.317,3.193,8.112,4.801,14.324,4.801c4.469,0,8.332-1.115,11.569-3.332
		c3.209-2.217,5.164-4.584,5.919-7.041h19.508c-3.136,9.559-7.894,16.383-14.381,20.492c-6.415,4.129-14.238,6.182-23.354,6.182
		c-6.352,0-12.068-1.01-17.203-3.006c-5.13-2.02-9.417-4.852-13.022-8.537c-3.515-3.709-6.246-8.09-8.191-13.234
		c-1.925-5.119-2.896-10.785-2.896-16.928c0-5.939,1.008-11.486,2.978-16.615c2.012-5.145,4.792-9.586,8.447-13.307
		c3.664-3.748,8.009-6.699,13.068-8.855c5.06-2.15,10.64-3.234,16.818-3.234c6.824,0,12.8,1.295,17.922,3.926
		c5.104,2.6,9.289,6.117,12.576,10.525c3.288,4.402,5.626,9.428,7.088,15.074c1.45,5.633,1.958,11.518,1.541,17.68h-58.196
		C-778.115,501.988-775.959,507.934-772.63,511.121z M-747.179,469.4c-2.631-2.871-7.091-4.426-12.531-4.426
		c-3.54,0-6.468,0.586-8.814,1.783c-2.292,1.18-4.171,2.65-5.609,4.375c-1.429,1.756-2.404,3.611-2.969,5.596
		c-0.57,1.934-0.909,3.686-1.012,5.234h36.042C-742.603,476.402-744.536,472.287-747.179,469.4z"/>
	<rect x="-782.646" y="427.846" fill="#FFFFFF" width="45.149" height="10.822"/>
</g>
<g id="Github">
	<path fill-rule="evenodd" clip-rule="evenodd" fill="#FFFFFF" d="M-489.737,400.691c-42.464,0-76.898,34.428-76.898,76.9
		c0,33.975,22.034,62.801,52.588,72.967c3.842,0.711,5.254-1.668,5.254-3.697c0-1.834-0.071-7.893-0.104-14.318
		c-21.394,4.654-25.907-9.072-25.907-9.072c-3.498-8.887-8.538-11.252-8.538-11.252c-6.978-4.773,0.526-4.674,0.526-4.674
		c7.721,0.541,11.788,7.924,11.788,7.924c6.858,11.756,17.989,8.357,22.378,6.391c0.69-4.969,2.682-8.361,4.882-10.281
		c-17.081-1.943-35.037-8.537-35.037-38.004c0-8.396,3.005-15.256,7.924-20.641c-0.798-1.938-3.431-9.758,0.745-20.352
		c0,0,6.458-2.064,21.152,7.885c6.134-1.703,12.713-2.561,19.248-2.59c6.535,0.029,13.119,0.887,19.265,2.59
		c14.677-9.949,21.125-7.885,21.125-7.885c4.186,10.594,1.554,18.414,0.755,20.352c4.931,5.385,7.915,12.244,7.915,20.641
		c0,29.535-17.99,36.039-35.114,37.941c2.758,2.389,5.216,7.066,5.216,14.242c0,10.289-0.088,18.568-0.088,21.104
		c0,2.047,1.384,4.443,5.282,3.688c30.538-10.18,52.543-38.992,52.543-72.957C-412.839,435.119-447.268,400.691-489.737,400.691z"/>
	<path fill="#FFFFFF" d="M-537.51,511.102c-0.169,0.383-0.771,0.496-1.318,0.234c-0.558-0.25-0.871-0.771-0.69-1.154
		c0.166-0.393,0.768-0.504,1.325-0.24C-537.636,510.193-537.317,510.719-537.51,511.102L-537.51,511.102z M-538.456,510.398"/>
	<path fill="#FFFFFF" d="M-534.395,514.576c-0.367,0.34-1.085,0.182-1.571-0.355c-0.504-0.535-0.597-1.254-0.225-1.598
		c0.378-0.34,1.073-0.182,1.577,0.355C-534.11,513.521-534.012,514.232-534.395,514.576L-534.395,514.576z M-535.128,513.789"/>
	<path fill="#FFFFFF" d="M-531.363,519.006c-0.471,0.328-1.242,0.02-1.718-0.666c-0.471-0.684-0.471-1.504,0.011-1.832
		c0.477-0.328,1.236-0.031,1.719,0.646C-530.882,517.848-530.882,518.67-531.363,519.006L-531.363,519.006z M-531.363,519.006"/>
	<path fill="#FFFFFF" d="M-527.209,523.283c-0.421,0.465-1.32,0.34-1.976-0.295c-0.673-0.617-0.859-1.498-0.438-1.963
		c0.428-0.467,1.331-0.336,1.993,0.293C-526.963,521.938-526.761,522.822-527.209,523.283L-527.209,523.283z M-527.209,523.283"/>
	<path fill="#FFFFFF" d="M-521.479,525.768c-0.187,0.602-1.051,0.875-1.921,0.619c-0.871-0.264-1.439-0.967-1.263-1.576
		c0.18-0.607,1.049-0.891,1.926-0.617C-521.869,524.453-521.299,525.156-521.479,525.768L-521.479,525.768z M-521.479,525.768"/>
	<path fill="#FFFFFF" d="M-515.186,526.229c0.021,0.633-0.717,1.16-1.631,1.172c-0.919,0.021-1.664-0.494-1.674-1.117
		c0-0.641,0.722-1.16,1.641-1.178C-515.936,525.088-515.186,525.598-515.186,526.229L-515.186,526.229z M-515.186,526.229"/>
	<path fill="#FFFFFF" d="M-509.33,525.232c0.11,0.617-0.526,1.254-1.434,1.424c-0.893,0.164-1.718-0.219-1.833-0.834
		c-0.111-0.635,0.536-1.268,1.428-1.432C-510.26,524.23-509.445,524.604-509.33,525.232L-509.33,525.232z M-509.33,525.232"/>
</g>
<g id="Linkedin">
	<path fill="#FFFFFF" d="M-106.141,400.89h-127.864c-6.111,0-11.075,4.842-11.075,10.812v128.361
		c0,5.977,4.964,10.826,11.075,10.826h127.864c6.119,0,11.104-4.85,11.104-10.826V411.702
		C-95.037,405.731-100.021,400.89-106.141,400.89z M-200.579,528.71h-22.256v-71.586h22.256V528.71z M-211.702,447.339
		c-7.132,0-12.906-5.779-12.906-12.904c0-7.115,5.774-12.895,12.906-12.895c7.115,0,12.896,5.779,12.896,12.895
		C-198.806,441.56-204.587,447.339-211.702,447.339z M-117.225,528.71h-22.24v-34.811c0-8.307-0.152-18.984-11.564-18.984
		c-11.58,0-13.354,9.043-13.354,18.381v35.414h-22.238v-71.586h21.348v9.781h0.297c2.969-5.627,10.23-11.561,21.057-11.561
		c22.535,0,26.695,14.824,26.695,34.1V528.71z"/>
</g>
<path id="Education_icon_3" fill="#FFC715" d="M-62.703-192.169c0-2.001-1.188-3.692-2.882-4.503l0.015-0.026l-0.146-0.062
	c-0.05-0.021-0.099-0.039-0.144-0.055l-105.263-40.063l-0.014,0.028c-0.652-0.313-1.369-0.521-2.146-0.521
	c-0.775,0-1.487,0.205-2.145,0.521l-0.015-0.028l-105.256,40.063c-0.049,0.016-0.098,0.034-0.143,0.055l-0.152,0.062l0.015,0.026
	c-1.692,0.811-2.881,2.502-2.881,4.503c0,2.003,1.188,3.694,2.881,4.503l-0.015,0.027l0.152,0.062
	c0.045,0.02,0.094,0.034,0.143,0.054l9.435,3.597l9.65,3.67l16.89,6.433l-8.934,60.679l0.089,0.019
	c-0.036,0.214-0.133,0.41-0.133,0.646c0,2.776,2.248,5.023,5.026,5.023c0.383,0,0.717-0.118,1.069-0.202l0.021,0.084l37.834-9.456
	l33.456,28.656l0.049-0.062c0.845,0.628,1.836,1.069,2.965,1.069c1.03,0,1.938-0.389,2.739-0.923l0.049,0.077l38.518-28.862
	l38.025,9.501l0.02-0.1c0.354,0.078,0.692,0.218,1.069,0.218c2.778,0,5.026-2.247,5.026-5.023c0-0.322-0.107-0.608-0.162-0.913
	l0.072-0.014l-13.379-60.623l35.443-13.492c0.045-0.021,0.094-0.034,0.143-0.054l0.146-0.062l-0.014-0.028
	C-63.892-188.475-62.703-190.168-62.703-192.169 M-99.242-120.324l-32.739-8.181l-0.02,0.102c-0.354-0.081-0.688-0.219-1.07-0.219
	c-1.03,0-1.938,0.384-2.738,0.924l-0.049-0.079l-37.216,27.888l-32.377-27.732l-0.05,0.075c-0.839-0.634-1.831-1.075-2.964-1.075
	c-0.378,0-0.717,0.138-1.07,0.219l-0.019-0.102l-33.223,8.302l7.723-51.018l59.613,22.688l0.015-0.027
	c0.657,0.312,1.369,0.521,2.145,0.521s1.493-0.208,2.146-0.521l0.014,0.027l60.269-22.939L-99.242-120.324z M-173.281-158.418
	l-91.474-34.824l91.474-34.82l91.479,34.82L-173.281-158.418z"/>
<g id="Deployment">
	<path fill="#FFFFFF" d="M193.717,216.469c1.516,0,2.744-1.227,2.744-2.744c0-1.514-1.229-2.743-2.744-2.743
		s-2.742,1.229-2.742,2.743C190.975,215.242,192.201,216.469,193.717,216.469 M215.664,103.99H171.77
		c-6.059,0-10.973,4.914-10.973,10.974v98.761c0,6.063,4.914,10.974,10.973,10.974h43.895c6.059,0,10.973-4.91,10.973-10.974
		v-98.761C226.637,108.904,221.723,103.99,215.664,103.99 M221.15,213.725c0,3.033-2.459,5.487-5.486,5.487H171.77
		c-3.031,0-5.486-2.454-5.486-5.487v-5.486h54.867V213.725z M221.15,202.751h-54.867v-76.813h54.867V202.751z M221.15,120.451
		h-54.867v-5.487c0-3.027,2.455-5.487,5.486-5.487h43.895c3.027,0,5.486,2.46,5.486,5.487V120.451z M196.461,112.221h-5.486
		c-1.518,0-2.744,1.228-2.744,2.743c0,1.518,1.227,2.743,2.744,2.743h5.486c1.516,0,2.744-1.226,2.744-2.743
		C199.205,113.448,197.977,112.221,196.461,112.221"/>
	<path fill="#FFFFFF" d="M138.85,189.919h-10.973v-10.974h10.973V189.919z M182.744,74.698H83.982
		c-6.059,0-10.973,4.913-10.973,10.973v82.301c0,6.06,4.914,10.974,10.973,10.974h38.408v10.974h-8.23
		c-1.516,0-2.744,1.229-2.744,2.743c0,1.518,1.229,2.743,2.744,2.743h38.406c1.518,0,2.744-1.226,2.744-2.743
		c0-1.514-1.227-2.743-2.744-2.743h-8.23v-10.974h20.883l-0.002-5.487H83.982c-3.027,0-5.486-2.458-5.486-5.486v-5.487h86.723
		v-5.485H78.496V85.671c0-3.026,2.459-5.487,5.486-5.487h98.762c3.027,0,5.486,2.461,5.486,5.487v22.74h5.486v-22.74
		C193.717,79.611,188.805,74.698,182.744,74.698"/>
</g>
<g id="Code">
	<path fill="#FFFFFF" d="M531.778,75.322H409.05c-7.53,0-13.635,6.107-13.635,13.637v102.273c0,7.53,6.104,13.637,13.635,13.637
		h47.728v13.636H446.55c-1.883,0-3.408,1.528-3.408,3.409c0,1.886,1.525,3.409,3.408,3.409h47.729c1.884,0,3.409-1.523,3.409-3.409
		c0-1.881-1.525-3.409-3.409-3.409H484.05v-13.636h47.729c7.531,0,13.637-6.106,13.637-13.637V88.959
		C545.415,81.43,539.31,75.322,531.778,75.322 M477.232,218.505h-13.636v-13.636h13.636V218.505z M538.596,191.232
		c0,3.763-3.056,6.817-6.817,6.817H409.05c-3.762,0-6.817-3.055-6.817-6.817v-6.818h136.363V191.232z M538.596,177.596H402.232
		V88.959c0-3.762,3.056-6.818,6.817-6.818h122.729c3.762,0,6.817,3.057,6.817,6.818V177.596z"/>
	<g>
		<path fill="#FFFFFF" d="M510.292,131.163c0-0.843-0.432-1.555-1.056-2.024l0.026-0.035l-20.604-15.453l-0.026,0.035
			c-0.431-0.321-0.939-0.551-1.519-0.551c-1.422,0-2.576,1.154-2.576,2.575c0,0.843,0.43,1.555,1.057,2.025l-0.027,0.037
			l17.856,13.391l-17.856,13.393l0.027,0.035c-0.627,0.471-1.057,1.185-1.057,2.024c0,1.424,1.154,2.576,2.576,2.576
			c0.579,0,1.086-0.227,1.519-0.551l0.026,0.035l20.604-15.45l-0.026-0.035C509.86,132.718,510.292,132.006,510.292,131.163"/>
		<path fill="#FFFFFF" d="M430.538,131.163c0,0.843,0.432,1.555,1.056,2.024l-0.026,0.035l20.604,15.453l0.026-0.035
			c0.431,0.321,0.939,0.551,1.519,0.551c1.422,0,2.576-1.154,2.576-2.575c0-0.843-0.43-1.555-1.057-2.025l0.027-0.037
			l-17.856-13.391l17.856-13.393l-0.027-0.035c0.627-0.471,1.057-1.185,1.057-2.024c0-1.424-1.154-2.576-2.576-2.576
			c-0.579,0-1.086,0.227-1.519,0.551l-0.026-0.035l-20.604,15.45l0.026,0.035C430.97,129.608,430.538,130.32,430.538,131.163"/>
		<path fill="#FFFFFF" d="M474.325,111.644l-12.007,36.953c-0.376,1.155,0.33,2.425,1.576,2.828
			c1.248,0.405,2.562-0.205,2.938-1.362l12.007-36.953c0.375-1.153-0.33-2.421-1.576-2.826
			C476.018,109.879,474.701,110.489,474.325,111.644"/>
	</g>
</g>
<g id="Design">
	<path fill="none" stroke="#FFFFFF" stroke-width="6" stroke-miterlimit="10" d="M167.75,405.11
		c23.541,23.541,22.25,59.314-0.75,82.007v-0.04c-24,23.541-60.504,24.351-83.198,1.657"/>
	<line fill="none" stroke="#FFFFFF" stroke-width="6" stroke-miterlimit="10" x1="215.318" y1="440.09" x2="119.749" y2="535.867"/>
	<circle fill="none" stroke="#FFFFFF" stroke-width="6" stroke-miterlimit="10" cx="218.081" cy="436.959" r="6.665"/>
	<path fill="none" stroke="#FFFFFF" stroke-width="6" stroke-miterlimit="10" d="M89.086,484.053c0.926,0.925,0.926,2.427,0,3.353
		l-5.107,5.106c-0.926,0.927-2.427,0.927-3.353,0.002l-5.108-5.109c-0.926-0.926-0.925-2.427,0.001-3.353l5.106-5.106
		c0.927-0.926,2.428-0.926,3.353-0.001L89.086,484.053z"/>
	<circle fill="none" stroke="#FFFFFF" stroke-width="6" stroke-miterlimit="10" cx="116.562" cy="538.479" r="6.665"/>
	<path fill="none" stroke="#FFFFFF" stroke-width="6" stroke-miterlimit="10" d="M173.188,400.946
		c0.925,0.926,0.925,2.427-0.001,3.353l-5.107,5.106c-0.925,0.926-2.427,0.926-3.352,0.001l-5.108-5.108
		c-0.925-0.925-0.925-2.427,0.001-3.353l5.106-5.106c0.926-0.927,2.427-0.927,3.353-0.002L173.188,400.946z"/>
</g>
</svg>
