<svg xmlns="http://www.w3.org/2000/svg" width="300" height="300" viewBox="0 0 300 300">
  <path fill="#F00" d="M143.646-1202.372l-76.354 57.023v90.68H220v-90.67l-76.354-57.02zm-21.124 40.672c2.238-4.085 5.317-7.165 9.237-9.2 3.93-2.088 8.41-3.13 13.42-3.13 4.27 0 8.05.84 11.39 2.48 3.27 1.693 5.81 4.02 7.59 7.114 1.74 3.028 2.63 6.362 2.63 9.99 0 4.326-1.34 8.195-4.02 11.733-3.34 4.364-7.61 6.553-12.83 6.553-1.39 0-2.44-.19-3.19-.687-.7-.496-1.2-1.247-1.39-2.19-2 1.935-4.33 2.928-6.91 2.928-2.84 0-5.13-.99-7.02-2.92-1.84-1.94-2.79-4.53-2.79-7.71 0-4.02 1.14-7.59 3.38-10.88 2.68-4.03 6.16-6.02 10.38-6.02 3.04 0 5.27 1.15 6.67 3.44l.63-2.78h6.72l-3.83 18.2c-.24 1.13-.35 1.88-.35 2.23 0 .46.1.75.29.96.2.19.39.29.7.29.79 0 1.83-.44 3.13-1.44 1.74-1.29 3.13-3.02 4.17-5.16 1.09-2.19 1.64-4.43 1.64-6.77 0-4.12-1.49-7.65-4.53-10.43-3.03-2.79-7.26-4.22-12.63-4.22-4.57 0-8.5.94-11.68 2.84-3.19 1.84-5.57 4.52-7.21 7.91-1.64 3.37-2.43 6.91-2.43 10.59 0 3.58.94 6.81 2.72 9.74 1.8 2.94 4.33 5.08 7.56 6.42 3.28 1.35 7.01 2.04 11.24 2.04 4.02 0 7.51-.55 10.38-1.68 2.94-1.14 5.27-2.84 7.06-5.08h5.42c-1.69 3.44-4.33 6.12-7.82 8.11-4.02 2.19-8.89 3.34-14.66 3.34-5.61 0-10.43-.95-14.47-2.84-4.07-1.88-7.1-4.67-9.08-8.35-2-3.68-2.99-7.71-2.99-12.04 0-4.77 1.14-9.19 3.38-13.31m-49.86 18.13l56.38 37.79-56.38 43.6v-81.38zm4.27 84.31l66.71-51.59 66.7 51.59H76.94zm137.69-2.92l-56.37-43.59 56.37-37.78v81.38zm-68.2-95.34c.89 1 1.34 2.49 1.34 4.37 0 1.74-.34 3.59-.99 5.57-.65 1.98-1.44 3.47-2.34 4.51-.58.7-1.23 1.25-1.88 1.59-.84.46-1.746.7-2.738.7-1.286 0-2.33-.49-3.233-1.54-.89-.99-1.29-2.58-1.29-4.72 0-1.59.29-3.48.94-5.57.6-2.08 1.54-3.62 2.782-4.77 1.23-1.13 2.58-1.68 4.02-1.68 1.35 0 2.48.5 3.39 1.54"/>
  <g fill="#F00">
    <path d="M457.29-1132.825l69.216-47.215H388.92c-.077 0-.148.02-.224.02l68.593 47.195z"/>
    <path d="M533.777-1175.02l-72.126 49.197c-.61.452-2.18 1.42-4.28 1.42-2.14 0-3.84-1.02-4.31-1.33l-71.21-48.995c-.2.672-.34 1.37-.34 2.106v88.194c0 4.098 3.33 7.418 7.42 7.418H526.8c4.096 0 7.42-3.32 7.42-7.418v-88.194c0-.845-.174-1.643-.434-2.4m-85.867 57.566l-56.11 34.03c-1.81 1.1-3.95.9-4.77-.448-.82-1.342-.01-3.323 1.81-4.428l56.1-34.022c1.81-1.104 3.95-.904 4.77.436.81 1.345 0 3.33-1.81 4.432m80.75 33.582c-.82 1.35-2.95 1.548-4.77.448l-56.1-34.03c-1.82-1.1-2.63-3.087-1.81-4.433.81-1.34 2.95-1.54 4.77-.43l56.1 34.02c1.81 1.11 2.63 3.09 1.81 4.43"/>
  </g>
  <g fill="#FF4810">
    <path d="M845.662-1141.003l-57.516 41.016-57.518-41.016-18.837-13.43v87.875H864.5v-87.874"/>
    <path d="M728.017-1146.52l57.518 40.994c.778.564 1.694.86 2.61.86.917 0 1.833-.296 2.64-.86l57.51-40.995c1.185-.87 1.888-2.24 1.888-3.69v-37.6c0-2.5-2.018-4.52-4.52-4.52H730.628c-2.5 0-4.52 2.02-4.52 4.52v37.6c0 1.48.73 2.85 1.91 3.68m7.136-36.77h105.98v30.73l-52.99 37.79-52.99-37.79v-30.74z"/>
    <path d="M753.048-1163.933h67.342c2.715 0 4.926-2.205 4.926-4.927 0-2.715-2.21-4.898-4.926-4.898h-67.342c-2.715 0-4.926 2.184-4.926 4.898 0 2.722 2.21 4.927 4.926 4.927m72.268 12.167c0-2.693-2.212-4.898-4.926-4.898h-67.343c-2.715 0-4.927 2.178-4.927 4.898 0 2.715 2.212 4.927 4.927 4.927h67.343c2.714 0 4.926-2.21 4.926-4.92"/>
  </g>
  <g fill="#FFF">
    <path d="M1113.663-1142.824c-2.588 0-4.973.724-7.165 2.196-2.2 1.462-4.095 3.342-5.69 5.668-1.592 2.328-2.823 4.92-3.676 7.804-.868 2.883-1.294 5.688-1.294 8.443 0 2.84.577 5.15 1.74 6.97 1.166 1.793 3.17 2.7 6.014 2.7 1.196 0 2.504-.364 3.873-1.1 1.376-.725 2.702-1.687 4.01-2.903 1.282-1.195 2.533-2.572 3.742-4.12 1.197-1.547 2.277-3.182 3.23-4.9l3.23-17.794c-1.124-.948-2.29-1.675-3.487-2.196-1.21-.514-2.716-.768-4.527-.768"/>
    <path d="M1110.5-1201.062c-41.508 0-75.153 33.58-75.153 74.992 0 41.425 33.646 75.008 75.153 75.008 41.507 0 75.146-33.583 75.146-75.008 0-41.412-33.64-74.992-75.146-74.992m48.066 93.962c-3.402 3.52-7.374 6.316-11.884 8.38-4.522 2.06-9.382 3.094-14.536 3.094-2.16 0-4.157-.234-6.01-.717-1.86-.47-3.41-1.26-4.65-2.378-1.252-1.13-2.184-2.59-2.785-4.39-.6-1.81-.77-4.05-.51-6.71h-.52c-1.28 1.8-2.68 3.56-4.19 5.28-1.51 1.72-3.17 3.24-4.97 4.58-1.8 1.33-3.79 2.39-5.94 3.15-2.16.77-4.52 1.16-7.1 1.16-2.07 0-4.05-.46-5.96-1.36-1.88-.91-3.52-2.18-4.9-3.8-1.37-1.63-2.48-3.62-3.29-5.94-.82-2.33-1.22-4.9-1.22-7.74 0-5.34.86-10.51 2.58-15.54 1.74-5.03 4.08-9.48 7.06-13.34 2.98-3.88 6.42-6.98 10.34-9.35 3.92-2.36 8.08-3.55 12.46-3.55 3.02 0 5.56.44 7.63 1.35s3.96 2.08 5.69 3.54l4-4.13h9.05l-6.2 34.94c-.68 4.05-.71 6.97-.06 8.78.66 1.8 2.09 2.7 4.34 2.7 2.23 0 4.44-.51 6.59-1.55 2.15-1.02 4.09-2.61 5.82-4.77 1.71-2.15 3.12-4.84 4.19-8.11 1.09-3.28 1.62-7.14 1.62-11.61 0-6.45-1.08-11.95-3.23-16.51-2.16-4.55-5.11-8.32-8.85-11.27-3.74-2.97-8.16-5.15-13.24-6.52-5.08-1.38-10.56-2.07-16.41-2.07-6.71 0-12.96 1.2-18.74 3.6-5.77 2.42-10.78 5.72-15.06 9.93-4.25 4.21-7.59 9.22-10.01 15.03-2.4 5.8-3.61 12.1-3.61 18.89 0 6.7 1.02 12.72 3.04 18.05s4.97 9.86 8.86 13.61c3.87 3.73 8.68 6.61 14.41 8.63 5.72 2.02 12.29 3.03 19.7 3.03 2.51 0 5.34-.3 8.54-.9 3.18-.61 6.07-1.51 8.66-2.71l3.997 12.38c-3.52 1.72-7.12 2.91-10.78 3.61-3.66.68-7.85 1.04-12.6 1.04-8.354 0-16.09-1.21-23.19-3.62-7.1-2.4-13.27-5.97-18.48-10.7-5.21-4.73-9.284-10.6-12.2-17.6-2.933-7-4.4-15.11-4.4-24.3 0-9.37 1.68-17.85 5.04-25.41 3.36-7.56 7.89-14 13.575-19.34 5.68-5.33 12.28-9.43 19.76-12.32 7.496-2.87 15.42-4.31 23.77-4.31 7.93 0 15.29 1.13 22.09 3.41 6.81 2.27 12.707 5.54 17.71 9.8 4.997 4.26 8.91 9.45 11.758 15.6 2.84 6.15 4.26 13.13 4.26 20.95 0 5.51-.97 10.67-2.91 15.48s-4.61 8.98-8.01 12.51"/>
  </g>
  <path fill="#231F20" d="M1484.75-998.688l46.105-46.106v-168.324c0-20.492-6.587-33.665-28.542-33.665h-138.318s-30.006 5.123-30.006 27.08v179.3c0 21.223 4.39 41.715 31.47 41.715h119.29z"/>
  <path fill="#FFF" d="M1469.053-1015.155v-20.308s6.586-25.798 23.603-25.798h22.504v-147.1s3.842-23.06-16.467-23.06h-127.89c-16.467 0-21.406 2.19-21.406 18.11v181.13s2.195 17.01 18.662 17.01h100.99z"/>
  <path fill="#231F20" d="M1389.46-1171.75c-1.448 1.004-4.706 2.08-8.947 2.08-12.048 0-18.255-10.395-18.255-24.157 0-16.485 8.48-25.66 19.03-25.66 4.088 0 7.187 1.146 8.586 2.15l-1.605 8.673c-1.6-.934-3.83-1.792-6.62-1.792-6.26 0-11.12 5.232-11.12 15.983 0 9.677 4.13 15.77 11.17 15.77 2.38 0 5.01-.717 6.56-1.578l1.19 8.53zm13.876 1.362l-11.167-48.312h8.63l4.24 20.428c1.19 5.734 2.27 11.256 3.1 17.276h.15c.88-5.808 1.96-11.542 3.15-17.06l4.45-20.645h8.37l-11.74 48.31h-9.21zm-41.766 60.038h141.062v12.076H1361.57zm0 17.29h141.062v4.94H1361.57zm0 10.34h141.062v4.94H1361.57zm0 10.336h141.062v4.94H1361.57zm0 10.338h109.502v4.94H1361.57zm0 10.702h100.17v4.94h-100.17zm0 11.802h100.17v4.94h-100.17zm.643-118.376h141.062v12.075h-141.062zm0 17.29h141.062v4.94h-141.062zm0 10.703h103.007v4.94h-103.007z"/>
  <g fill="#E8BD47">
    <path d="M771.372-899.01h32.744c7.033 0 12.734 5.7 12.734 12.733v12.007h14.067v-24.62c0-7.03-5.7-12.732-12.733-12.732h-60.88c-7.033 0-12.734 5.7-12.734 12.733v24.62h14.068v-12c0-7.03 5.7-12.73 12.734-12.73zm.213 98.456c.968-3.48 4.125-6.045 7.91-6.045h16.495c3.786 0 6.943 2.57 7.91 6.05l101.236-32.03v-10.64c0-14.06-11.402-25.47-25.467-25.47H695.81c-14.065 0-25.467 11.4-25.467 25.47v10.64l101.237 32.03z"/>
    <path d="M804.236-792.058v16.99c0 4.555-3.69 8.246-8.246 8.246h-16.494c-4.554 0-8.247-3.69-8.247-8.246v-16.99l-100.9-32.713v94.57c0 14.06 11.4 25.47 25.46 25.47h183.86c14.06 0 25.46-11.4 25.46-25.47v-94.58l-100.9 32.71z"/>
    <path d="M776.368-802.415h22.75c.5 0 .907.405.907.905v29.842c0 .5-.406.906-.906.906h-22.76c-.5 0-.91-.405-.91-.906v-29.842c0-.5.4-.905.9-.905z"/>
  </g>
  <path fill="#231F20" d="M993.068-854.813s10.853 2.656 26.378 6.23V-818h-1.952c-.715 0-1.312.544-1.377 1.255l-6.82 73.638c-.076.81.562 1.51 1.376 1.51h24.622c.836 0 1.48-.734 1.372-1.562l-9.662-73.63c-.09-.69-.677-1.2-1.37-1.2h-1.176l-1.14-29.69c11.75 2.69 25.69 5.78 39.48 8.62-9.67 11.7-23.68 30.04-19.32 33.21 6.48 4.72 42.09 2.36 70.28 27.13 6.96 2.95 45.29-28.3 80.08-27.71 4.16-.37-7.94-19.19-20.58-33.72 30.83-8.53 61.19-19.35 61.19-19.35l-120.71-23.59-120.7 28.31zm430.035 52.913c-24.573 10.124-56.536 14.882-56.536 14.882l14.088 7.925-8.6 13.413c15.865-3.166 30.437-9.922 42.184-16.86-12.86 14.757-27.64 26.182-27.64 26.182l14.82.188.49 14.954c21.59-18.17 32.15-36.032 37.32-49.055-5.16-4.16-10.58-8.04-16.14-11.63zm129.745 19.608c-5.68-10.812-52.26-22.562-78.056-41.65-2.23-1.65-4.794-3.595-7.61-5.755-13.134 12.502-21.487 29.323-26.083 40.922 4.81 3.995 9.36 8.24 13.53 12.75 41.09 44.44 67.81 54.048 78.95 45.24 11.14-8.81 24.93-40.695 19.25-51.507zm-98.44-57.268l.233.18-.23-.18zm-5.638-4.357c.846.652 1.683 1.3 2.512 1.94-31.187-24.1-74.39-56.768-83.27-50.153 0 0-28.21 13.835-32.504 52.554 0 0 45.094 11.048 84.773 35.866 4.25-21.108 18.96-33.93 28.49-40.207zm2.545 1.965l2.138 1.653-2.138-1.65z"/>
  <path fill="#0B80E0" d="M175.49-427.353l.096-.016-14.748-73.7h4.882c2.75 0 4.974-2.22 4.974-4.97s-2.225-4.97-4.974-4.97h-6.87l-8.135-40.69-.097.02c-.024-.1-.034-.19-.06-.29l22.603-19.38-.03-.06c1.5-.86 2.55-2.4 2.55-4.25 0-13.73-17.81-24.87-39.79-24.87s-39.8 11.13-39.8 24.87c0 1.85 1.05 3.39 2.55 4.25l-.04.07 22.6 19.38c-.02.1-.03.2-.06.29l-.09-.02-24.87 124.35.1.02c-.05.3-.18.58-.18.89 0 1.26.51 2.37 1.28 3.24l-.04.04 34.82 39.79.04-.03c.9 1.05 2.21 1.74 3.7 1.74s2.79-.69 3.7-1.73l.04.04 34.82-39.79-.04-.03c.77-.87 1.28-1.98 1.28-3.24 0-.31-.12-.59-.18-.89m-69.18-150.27c1.9-7.32 14.4-12.99 29.57-12.99s27.67 5.67 29.57 12.99l-29.57 25.35-29.56-25.34zM135.9-394.2l-29.46-33.67 23.35-116.754 2.436 2.09c.205.23.448.406.69.59l.516.44.04-.06c.73.415 1.525.716 2.43.716s1.7-.3 2.43-.72l.04.063.52-.44c.24-.18.484-.36.69-.59l2.43-2.08 6.73 33.62H135.9c-2.75 0-4.976 2.23-4.976 4.98 0 2.75 2.228 4.973 4.977 4.973h14.82l14.64 73.18-29.46 33.665zM607-530.598c0-2.48-1.47-4.57-3.564-5.574l.018-.03-.182-.07c-.06-.03-.12-.05-.176-.07l-130.22-49.6-.02.03c-.807-.39-1.693-.646-2.652-.646s-1.84.255-2.654.644l-.018-.038-130.212 49.6c-.067.02-.128.04-.18.063l-.19.08.02.03c-2.096 1-3.565 3.1-3.565 5.58s1.47 4.57 3.563 5.58l-.02.04.19.08c.054.03.114.04.175.07l11.67 4.45-7.882 59.15c-4.51 1.86-7.7 6.3-7.7 11.49 0 6.87 5.57 12.44 12.44 12.44 6.86 0 12.44-5.57 12.44-12.44 0-4-1.92-7.52-4.86-9.8l7.51-56.29 20.9 7.96-11.05 88.39.11.03c-.04.27-.16.51-.16.8 0 3.43 2.78 6.22 6.22 6.22.48 0 .89-.15 1.33-.25l.03.1 46.8-11.7 41.39 35.48.06-.08c1.04.78 2.27 1.33 3.67 1.33 1.28 0 2.4-.48 3.39-1.15l.06.1 47.65-35.73 47.04 11.77.03-.12c.44.09.86.26 1.32.26 3.44 0 6.22-2.78 6.22-6.21 0-.4-.13-.753-.2-1.13l.09-.02-16.55-88.32 43.84-16.705c.06-.03.12-.05.18-.07l.18-.074-.02-.037c2.1-1.003 3.57-3.1 3.57-5.58m-45.2 103.54l-40.51-10.13-.02.12c-.44-.09-.85-.26-1.32-.26-1.28 0-2.4.473-3.39 1.14l-.06-.095-46.04 34.53-40.05-34.335-.06.09c-1.04-.79-2.27-1.33-3.67-1.33-.47 0-.89.17-1.32.26l-.02-.12-41.1 10.27 9.55-76.424 73.75 28.09.02-.035c.81.39 1.69.64 2.65.64s1.84-.25 2.65-.64l.02.034 74.55-28.4 14.37 76.59zm-91.6-60.41l-113.16-43.11 113.16-43.12 113.17 43.11-113.19 43.1zM208.53-216.2c-.84 0-1.6.34-2.16.9l-55.89 52.95-55.89-52.95c-.55-.55-1.31-.896-2.16-.896-1.69 0-3.05 1.36-3.05 3.05 0 .844.34 1.61.89 2.16l58.05 55c.56.55 1.32.89 2.16.89.85 0 1.61-.34 2.16-.89l58.05-55c.56-.55.9-1.312.9-2.16 0-1.69-1.36-3.053-3.05-3.053m308.82 55.89l-58.05-55c-.55-.55-1.31-.89-2.16-.89-.84 0-1.61.34-2.16.89l-58.05 55c-.55.56-.89 1.32-.89 2.16 0 1.69 1.37 3.06 3.06 3.06.846 0 1.61-.34 2.16-.89l55.894-52.95L513.03-156c.55.557 1.31.897 2.16.897 1.682 0 3.05-1.366 3.05-3.055 0-.844-.34-1.604-.895-2.16m233.148-25.34l52.95-55.893c.56-.55.9-1.32.9-2.16 0-1.69-1.364-3.06-3.053-3.06-.848 0-1.608.35-2.16.9l-55 58.06c-.55.55-.896 1.32-.896 2.16 0 .84.34 1.61.897 2.16l55 58.05c.56.55 1.32.89 2.16.89 1.69 0 3.06-1.36 3.06-3.05 0-.84-.34-1.6-.89-2.16l-52.95-55.89zm389.72-2.16l-55-58.053c-.55-.55-1.314-.9-2.16-.9-1.69 0-3.054 1.37-3.054 3.06 0 .85.34 1.61.89 2.16l52.95 55.9-52.95 55.89c-.56.55-.9 1.32-.9 2.16 0 1.68 1.37 3.05 3.06 3.05.85 0 1.61-.34 2.16-.89l55-58.05c.55-.55.9-1.31.9-2.16s-.34-1.6-.9-2.16m367.13-356.65c0-2.28-1.85-4.13-4.13-4.13-1.18 0-2.23.51-2.98 1.3l-.01-.01-108.76 112.79-59.07-59.07c-.76-.75-1.79-1.21-2.93-1.21-2.28 0-4.13 1.86-4.13 4.14 0 1.14.46 2.18 1.21 2.93l62.06 62.06c.75.75 1.79 1.21 2.93 1.21 1.18 0 2.23-.5 2.98-1.29l.02.01 111.7-115.84-.02-.02c.72-.73 1.16-1.73 1.16-2.84m-76.28 377.93l78.04-78.04c.87-.86 1.41-2.06 1.41-3.39 0-2.65-2.14-4.79-4.79-4.79-1.32 0-2.52.54-3.39 1.4l-78.04 78.04-78.03-78.04c-.87-.87-2.06-1.406-3.39-1.406-2.65 0-4.79 2.145-4.79 4.79 0 1.32.53 2.52 1.4 3.39l78.04 78.03-78.04 78.04c-.87.86-1.4 2.06-1.4 3.38 0 2.65 2.14 4.79 4.79 4.79 1.32 0 2.52-.53 3.39-1.4l78.04-78.03 78.04 78.035c.87.865 2.07 1.4 3.39 1.4 2.65 0 4.79-2.14 4.79-4.79 0-1.32-.54-2.52-1.41-3.39l-78.04-78.04zM860.36-552.67h-53.222c0-9.797-7.943-17.74-17.74-17.74h-35.482c-9.797 0-17.74 7.943-17.74 17.74h-53.22c-4.896 0-8.872 3.977-8.872 8.878v44.344c0 4.897 3.976 8.87 8.87 8.87v70.963c0 4.896 3.975 8.87 8.87 8.87H851.49c4.893 0 8.87-3.975 8.87-8.87v-70.962c4.893 0 8.87-3.97 8.87-8.87v-44.342c0-4.9-3.976-8.87-8.87-8.87m-106.443-8.87h35.48c4.896 0 8.87 3.98 8.87 8.87h-53.22c0-4.89 3.976-8.87 8.87-8.87m97.573 141.92H691.824v-70.96h17.74v8.88c0 4.89 3.975 8.87 8.87 8.87h17.74c4.896 0 8.87-3.97 8.87-8.86v-8.87h53.222v8.88c0 4.89 3.977 8.87 8.87 8.87h17.74c4.896 0 8.87-3.97 8.87-8.86v-8.87h17.742v70.97zm-133.055-88.71h17.74v26.62h-17.74v-26.62zm88.702 0h17.74v26.62h-17.74v-26.62zm53.22 8.87h-26.61v-8.87c0-4.89-3.976-8.87-8.87-8.87h-17.74c-4.895 0-8.87 3.98-8.87 8.87v8.87h-53.223v-8.87c0-4.89-3.974-8.87-8.87-8.87h-17.74c-4.895 0-8.87 3.98-8.87 8.87v8.87h-26.61v-44.34h177.404v44.35zm-304.21-381.88h-87.59c-19.464 0-19.464-19.46-38.93-19.46h-48.66c-10.75 0-19.465 8.71-19.465 19.46v136.25c0 10.76 8.715 19.47 19.464 19.47h175.18c10.75 0 19.466-8.71 19.466-19.47v-116.79c0-10.75-8.716-19.46-19.465-19.46m9.733 136.25c0 5.38-4.363 9.74-9.732 9.74H380.966c-5.37 0-9.732-4.35-9.732-9.73v-97.32H565.88v97.32zm0-107.05H371.234v-29.2c0-5.37 4.363-9.73 9.732-9.73h48.662c14.597 0 14.597 19.47 38.93 19.47h87.59c5.37 0 9.73 4.36 9.73 9.73v9.74zm549.608 314.99c-5.62 0-10.183 4.57-10.183 10.19l5.09 56.01c0 2.82 2.282 5.09 5.093 5.09 2.81 0 5.092-2.27 5.092-5.09l5.09-56.01c0-5.62-4.562-10.18-10.182-10.18m0 81.47c-5.62 0-10.183 4.57-10.183 10.19 0 5.62 4.562 10.19 10.183 10.19s10.182-4.56 10.182-10.19c0-5.61-4.562-10.18-10.182-10.18m109.4 20.57l-91.648-142.57s-4.7-10.38-17.75-10.38c-12.27 0-17.75 10.38-17.75 10.38l-91.65 142.57s-2.61 3.37-2.61 9.99c0 11.25 9.12 20.37 20.368 20.37h183.3c11.248 0 20.367-9.11 20.367-20.36 0-7.11-2.617-9.98-2.617-9.98m-17.753 20.17h-183.3c-5.62 0-10.186-4.56-10.186-10.18 0-2.13.45-3.43.68-3.95.18-.19 0-.04.31-.52l91.64-142.56c.16-.25.31-.5.45-.76.02-.05 2.87-4.95 8.74-4.95s8.17 3.85 8.47 4.4c.24.63.34.74.71 1.31l91.65 142.57c.13.21.27.4.41.6.15.36.58 1.57.58 3.88 0 5.62-4.58 10.18-10.19 10.18m-1064.12-357c-4.89-1.98-7.03-3.12-7.03-5.7 0-2.1 1.8-3.91 5.5-3.91 3.71 0 6.4 1.14 7.92 1.93l1.91-7.4c-2.25-1.08-5.39-2.05-9.66-2.05-8.93 0-14.32 5.28-14.32 12.19 0 5.89 4.1 9.62 10.4 11.96 4.55 1.73 6.35 3.18 6.35 5.71 0 2.64-2.07 4.38-6 4.38-3.65 0-7.2-1.26-9.5-2.52l-1.74 7.56c2.14 1.26 6.41 2.47 10.73 2.47 10.4 0 15.29-5.77 15.29-12.56 0-5.72-3.15-9.44-9.84-12.08m-33.79-16.77c-5.22 0-8.93.36-11.57.85v39.95h8.48v-14.48c.78.12 1.8.18 2.92.18 5.06 0 9.39-1.32 12.31-4.27 2.25-2.29 3.48-5.65 3.48-9.62 0-3.97-1.63-7.33-4.04-9.38-2.52-2.17-6.29-3.25-11.57-3.25m-.23 19.48c-1.24 0-2.13-.06-2.87-.24v-11.96c.62-.18 1.8-.36 3.54-.36 4.27 0 6.69 2.22 6.69 5.94 0 4.15-2.81 6.61-7.36 6.61m75.18-142.11H71.78c-11.282 0-20.43 9.14-20.43 20.43V-707c0 11.29 9.148 20.44 20.43 20.44h143.017c11.284 0 20.43-9.147 20.43-20.44v-148.11l-51.076-56.185zM225.02-707c0 5.646-4.57 10.215-10.22 10.215H71.78c-5.636 0-10.214-4.57-10.214-10.217V-890.87c0-5.645 4.58-10.215 10.215-10.215h91.94V-850c0 5.636 4.58 10.204 10.22 10.204h51.08V-707zm-51.08-143.01v-51.076h5.11l45.97 51.076h-51.08zm-15.01 62.19v39.777c2.124.3 5.276.6 9.715.6 7.417 0 13.488-1.674 17.473-5.225 3.652-3.302 6.29-8.65 6.29-16.4 0-7.153-2.47-12.14-6.41-15.264-3.65-2.945-8.31-4.33-15.5-4.33-4.33.004-8.43.3-11.57.85m24.38 19.045c0 9.676-5.057 14.24-12.81 14.18-1.066 0-2.25 0-2.98-.18v-26.5c.73-.18 1.968-.36 3.878-.36 7.363 0 11.972 4.45 11.912 12.86"/>
  <path fill="#FFF" d="M111.657 93.93c5.328 0 10.136.456 14.53 1.392 4.37.91 8.1 2.438 11.25 4.523 3.103 2.09 5.53 4.867 7.27 8.37 1.7 3.444 2.55 7.76 2.55 12.868 0 5.52-1.273 10.13-3.817 13.82-2.564 3.676-6.332 6.7-11.367 9.045 6.856 1.938 11.933 5.354 15.3 10.213 3.38 4.9 5.04 10.75 5.04 17.61 0 5.56-1.084 10.35-3.244 14.38-2.19 4.08-5.15 7.39-8.81 9.94-3.69 2.58-7.93 4.47-12.68 5.69-4.69 1.23-9.57 1.85-14.56 1.85H59.14V93.93h52.513zm-3.172 44.31c4.345 0 7.942-1.01 10.792-3.073 2.82-2.03 4.188-5.38 4.188-9.977 0-2.55-.455-4.66-1.368-6.295-.945-1.637-2.197-2.922-3.78-3.816-1.568-.94-3.34-1.58-5.397-1.93-2.02-.39-4.14-.54-6.308-.54H83.67v25.62h24.815zm1.354 46.69c2.42 0 4.71-.21 6.87-.687 2.19-.47 4.14-1.22 5.78-2.326 1.64-1.062 3-2.52 3.98-4.377.99-1.838 1.46-4.227 1.46-7.11 0-5.653-1.62-9.667-4.83-12.103-3.22-2.404-7.51-3.6-12.79-3.6H83.67v30.203h26.17zm77.53-.367c3.31 3.193 8.11 4.8 14.32 4.8 4.47 0 8.33-1.114 11.57-3.33 3.21-2.218 5.16-4.585 5.92-7.042h19.51c-3.14 9.56-7.9 16.39-14.38 20.5-6.42 4.13-14.24 6.18-23.36 6.18-6.35 0-12.07-1.01-17.21-3-5.13-2.02-9.42-4.85-13.02-8.53-3.52-3.71-6.25-8.09-8.19-13.23-1.93-5.12-2.9-10.78-2.9-16.93 0-5.94 1-11.48 2.97-16.61 2.01-5.14 4.79-9.58 8.45-13.31 3.66-3.75 8.01-6.7 13.07-8.85 5.06-2.15 10.64-3.23 16.81-3.23 6.82 0 12.8 1.3 17.92 3.93 5.1 2.6 9.29 6.12 12.57 10.53 3.29 4.4 5.62 9.43 7.09 15.07 1.45 5.64 1.96 11.52 1.54 17.68h-58.19c0 6.28 2.15 12.23 5.48 15.41zm25.45-41.72c-2.63-2.87-7.09-4.426-12.53-4.426-3.54 0-6.47.586-8.82 1.783-2.29 1.18-4.17 2.65-5.61 4.375-1.43 1.756-2.41 3.61-2.97 5.596-.57 1.94-.91 3.69-1.01 5.24h36.04c-.53-5.56-2.47-9.67-5.11-12.56zm-35.47-41.555h45.15v10.822h-45.15z"/>
  <g fill="#FFF">
    <path fill-rule="evenodd" d="M470.263 74.134c-42.464 0-76.898 34.428-76.898 76.9 0 33.975 22.034 62.8 52.588 72.967 3.842.72 5.254-1.66 5.254-3.69 0-1.83-.07-7.89-.104-14.32-21.394 4.66-25.907-9.07-25.907-9.07-3.498-8.88-8.538-11.25-8.538-11.25-6.978-4.77.526-4.67.526-4.67 7.72.54 11.788 7.93 11.788 7.93 6.858 11.76 17.99 8.36 22.378 6.39.69-4.97 2.682-8.36 4.882-10.28-17.08-1.94-35.037-8.53-35.037-38 0-8.39 3.005-15.25 7.924-20.64-.8-1.94-3.44-9.76.74-20.35 0 0 6.46-2.06 21.15 7.89 6.13-1.7 12.71-2.56 19.25-2.59 6.53.03 13.12.89 19.26 2.59 14.67-9.95 21.12-7.88 21.12-7.88 4.18 10.6 1.55 18.42.75 20.36 4.93 5.39 7.91 12.25 7.91 20.64 0 29.54-17.99 36.04-35.12 37.94 2.76 2.39 5.22 7.07 5.22 14.24 0 10.29-.09 18.57-.09 21.11 0 2.05 1.38 4.44 5.28 3.69 30.54-10.18 52.54-38.99 52.54-72.95-.01-42.47-34.43-76.9-76.9-76.9z" clip-rule="evenodd"/>
    <path d="M422.49 184.544c-.17.383-.77.496-1.318.234-.558-.25-.87-.77-.69-1.154.166-.393.768-.504 1.325-.24.557.252.876.777.683 1.16zm3.114 3.477c-.366.34-1.084.18-1.57-.35-.504-.53-.597-1.25-.225-1.6.37-.34 1.07-.18 1.57.36.5.55.6 1.26.22 1.6zm3.034 4.43c-.47.33-1.242.02-1.718-.66-.473-.68-.473-1.5.01-1.83.476-.32 1.235-.03 1.72.65.467.7.467 1.52-.014 1.85zm4.153 4.28c-.42.47-1.32.34-1.97-.29-.67-.61-.86-1.49-.44-1.96.43-.46 1.33-.33 2 .3.67.62.87 1.51.42 1.97zm5.73 2.49c-.18.61-1.05.88-1.92.62-.87-.26-1.44-.96-1.26-1.57.18-.6 1.05-.89 1.93-.61.87.26 1.44.97 1.26 1.58zm6.3.46c.02.64-.71 1.16-1.63 1.18-.92.02-1.66-.49-1.67-1.11 0-.64.72-1.16 1.64-1.18.92-.02 1.67.49 1.67 1.13zm5.86-.99c.11.62-.52 1.26-1.43 1.43-.89.16-1.72-.22-1.83-.83-.11-.63.54-1.27 1.43-1.43.91-.16 1.73.22 1.84.85zm0 0"/>
  </g>
  <path fill="#FFF" d="M853.86 74.332H725.994c-6.11 0-11.075 4.842-11.075 10.812v128.36c0 5.978 4.96 10.827 11.07 10.827h127.87c6.11 0 11.1-4.85 11.1-10.82V85.15c0-5.97-4.99-10.816-11.11-10.816zm-94.44 127.82h-22.255v-71.586h22.256v71.586zm-11.122-81.37c-7.132 0-12.906-5.78-12.906-12.905 0-7.115 5.774-12.895 12.906-12.895 7.115 0 12.896 5.78 12.896 12.895 0 7.125-5.78 12.904-12.896 12.904zm94.477 81.37h-22.24v-34.81c0-8.308-.152-18.985-11.564-18.985-11.58 0-13.35 9.043-13.35 18.38v35.415h-22.24v-71.586h21.35v9.78h.3c2.97-5.626 10.23-11.56 21.06-11.56 22.54 0 26.7 14.824 26.7 34.1v39.266z"/>
</svg>
