<svg xmlns="http://www.w3.org/2000/svg" width="300" height="300" viewBox="0 0 300 300">
  <path fill="#0B63FF" d="M0 320h300v300H0z"/>
  <path fill="#F00" d="M143.646-565.814L67.292-508.79v90.67H220v-90.67l-76.354-57.024zm-21.124 40.67c2.238-4.084 5.317-7.164 9.237-9.2 3.93-2.087 8.41-3.13 13.42-3.13 4.27 0 8.05.84 11.39 2.48 3.27 1.694 5.81 4.022 7.59 7.115 1.74 3.03 2.63 6.37 2.63 9.99 0 4.33-1.34 8.2-4.02 11.74-3.34 4.37-7.61 6.56-12.83 6.56-1.39 0-2.44-.19-3.19-.68-.7-.49-1.2-1.24-1.39-2.19-2 1.94-4.33 2.93-6.91 2.93-2.84 0-5.13-.99-7.02-2.93-1.84-1.94-2.79-4.53-2.79-7.71 0-4.02 1.14-7.6 3.38-10.88 2.68-4.03 6.16-6.02 10.38-6.02 3.04 0 5.27 1.15 6.67 3.44l.63-2.78h6.72l-3.83 18.2c-.24 1.13-.35 1.89-.35 2.23 0 .46.1.75.29.95.2.19.39.29.7.29.79 0 1.83-.44 3.13-1.44 1.74-1.29 3.13-3.02 4.17-5.16 1.09-2.19 1.64-4.43 1.64-6.77 0-4.12-1.49-7.64-4.53-10.43-3.03-2.78-7.26-4.22-12.63-4.22-4.57 0-8.5.94-11.68 2.84-3.19 1.83-5.57 4.52-7.21 7.9-1.64 3.37-2.43 6.91-2.43 10.59 0 3.58.94 6.81 2.72 9.73 1.8 2.94 4.33 5.08 7.56 6.42 3.28 1.35 7.01 2.04 11.24 2.04 4.02 0 7.51-.54 10.38-1.68 2.94-1.14 5.27-2.84 7.06-5.07h5.42c-1.69 3.44-4.33 6.12-7.82 8.11-4.02 2.19-8.89 3.33-14.66 3.33-5.61 0-10.43-.95-14.47-2.83-4.07-1.89-7.1-4.67-9.08-8.35-2-3.68-2.99-7.71-2.99-12.04 0-4.77 1.14-9.19 3.38-13.31M72.66-507l56.373 37.782L72.66-425.62V-507zm4.274 84.31l66.708-51.59 66.708 51.59H76.94zm137.692-2.93l-56.374-43.6L214.624-507v81.38zm-68.196-95.34c.89.992 1.337 2.482 1.337 4.364 0 1.743-.344 3.59-.992 5.573-.65 1.986-1.438 3.476-2.342 4.52-.583.7-1.233 1.246-1.882 1.59-.84.46-1.74.7-2.73.7-1.28 0-2.33-.497-3.23-1.54-.89-.993-1.28-2.583-1.28-4.72 0-1.59.29-3.488.94-5.575.6-2.087 1.54-3.627 2.79-4.772 1.23-1.132 2.58-1.68 4.02-1.68 1.35 0 2.48.498 3.39 1.54"/>
  <g fill="#FFF">
    <path d="M468.103-496.744l100.772-68.74h-200.31c-.11 0-.214.03-.326.032l99.86 68.708z"/>
    <path d="M579.46-558.177L474.455-486.55c-.898.658-3.18 2.066-6.237 2.066-3.115 0-5.593-1.484-6.278-1.938l-103.68-71.33c-.29.98-.495 1.993-.495 3.067v128.4c0 5.966 4.836 10.8 10.8 10.8H569.29c5.963 0 10.8-4.834 10.8-10.8v-128.4c0-1.23-.25-2.39-.63-3.492M454.45-474.37l-81.678 49.546c-2.638 1.6-5.75 1.312-6.94-.653-1.19-1.953-.008-4.838 2.64-6.446l81.67-49.532c2.646-1.608 5.754-1.316 6.942.634 1.19 1.95.006 4.85-2.635 6.45m117.57 48.89c-1.19 1.96-4.3 2.25-6.94.65l-81.68-49.55c-2.65-1.61-3.83-4.5-2.64-6.46 1.19-1.95 4.29-2.24 6.94-.64l81.67 49.53c2.64 1.61 3.83 4.49 2.64 6.45"/>
  </g>
  <g fill="#FF4810">
    <path d="M845.662-504.445l-57.516 41.015-57.518-41.015-18.837-13.43V-430H864.5v-87.874"/>
    <path d="M728.017-509.964l57.518 40.995c.778.57 1.694.86 2.61.86.917 0 1.833-.29 2.64-.86l57.51-40.99c1.185-.86 1.888-2.23 1.888-3.68v-37.6c0-2.5-2.018-4.52-4.52-4.52H730.628c-2.5 0-4.52 2.02-4.52 4.52v37.6c0 1.48.73 2.86 1.91 3.69m7.136-36.76h105.98v30.74l-52.99 37.79-52.99-37.79v-30.73z"/>
    <path d="M753.048-527.375h67.342c2.715 0 4.926-2.205 4.926-4.927 0-2.715-2.21-4.898-4.926-4.898h-67.342c-2.715 0-4.926 2.184-4.926 4.898 0 2.722 2.21 4.927 4.926 4.927m72.268 12.167c0-2.693-2.212-4.898-4.926-4.898h-67.343c-2.715 0-4.927 2.178-4.927 4.898 0 2.715 2.212 4.927 4.927 4.927h67.343c2.714 0 4.926-2.22 4.926-4.93"/>
  </g>
  <g fill="#FFF">
    <path d="M1113.663-506.267c-2.588 0-4.973.724-7.165 2.196-2.2 1.46-4.095 3.34-5.69 5.66-1.592 2.33-2.823 4.92-3.676 7.8-.868 2.88-1.294 5.69-1.294 8.44 0 2.84.577 5.15 1.74 6.97 1.166 1.79 3.17 2.7 6.014 2.7 1.196 0 2.504-.37 3.873-1.1 1.376-.73 2.702-1.69 4.01-2.91 1.282-1.2 2.533-2.57 3.742-4.12 1.197-1.55 2.277-3.18 3.23-4.9l3.23-17.79c-1.124-.95-2.29-1.68-3.487-2.2-1.21-.52-2.716-.77-4.527-.77"/>
    <path d="M1110.5-564.504c-41.508 0-75.153 33.58-75.153 74.992 0 41.425 33.646 75.008 75.153 75.008 41.507 0 75.146-33.583 75.146-75.008 0-41.413-33.64-74.992-75.146-74.992m48.066 93.962c-3.402 3.52-7.374 6.316-11.884 8.38-4.522 2.06-9.382 3.094-14.536 3.094-2.16 0-4.157-.234-6.01-.717-1.86-.47-3.41-1.26-4.65-2.378-1.252-1.12-2.184-2.585-2.785-4.387-.6-1.804-.77-4.047-.51-6.703h-.52c-1.28 1.804-2.68 3.563-4.19 5.282-1.51 1.71-3.17 3.24-4.97 4.57-1.8 1.33-3.79 2.39-5.94 3.15-2.16.77-4.52 1.16-7.1 1.16-2.07 0-4.05-.46-5.96-1.36-1.88-.91-3.52-2.18-4.9-3.8-1.37-1.63-2.48-3.62-3.29-5.94-.82-2.33-1.22-4.9-1.22-7.74 0-5.34.86-10.51 2.58-15.54 1.74-5.03 4.08-9.48 7.06-13.34 2.98-3.88 6.42-6.98 10.34-9.35 3.92-2.36 8.08-3.55 12.46-3.55 3.02 0 5.56.45 7.63 1.36 2.07.91 3.96 2.08 5.69 3.54l4-4.13h9.05l-6.2 34.94c-.68 4.04-.71 6.96-.06 8.77.66 1.8 2.09 2.7 4.34 2.7 2.23 0 4.44-.52 6.59-1.55 2.15-1.03 4.09-2.62 5.82-4.77 1.71-2.15 3.12-4.85 4.19-8.11 1.09-3.28 1.62-7.14 1.62-11.61 0-6.45-1.08-11.95-3.23-16.51-2.16-4.55-5.11-8.32-8.85-11.27-3.74-2.97-8.16-5.15-13.24-6.52-5.08-1.38-10.56-2.07-16.41-2.07-6.71 0-12.96 1.2-18.74 3.6-5.77 2.41-10.78 5.72-15.06 9.93-4.25 4.22-7.59 9.22-10.01 15.03-2.4 5.79-3.61 12.1-3.61 18.89 0 6.7 1.02 12.72 3.04 18.05 2.02 5.34 4.97 9.86 8.86 13.61 3.87 3.74 8.677 6.62 14.41 8.63 5.72 2.02 12.29 3.03 19.7 3.03 2.506 0 5.337-.3 8.537-.9 3.18-.61 6.064-1.5 8.654-2.71l3.993 12.38c-3.52 1.72-7.12 2.91-10.78 3.61-3.66.68-7.85 1.03-12.6 1.03-8.354 0-16.09-1.21-23.19-3.62-7.1-2.4-13.27-5.97-18.48-10.7-5.21-4.73-9.284-10.597-12.2-17.6-2.933-7-4.4-15.11-4.4-24.3 0-9.37 1.68-17.85 5.04-25.417 3.36-7.56 7.89-14 13.575-19.34 5.68-5.33 12.28-9.43 19.76-12.32 7.495-2.87 15.42-4.31 23.77-4.31 7.928 0 15.29 1.13 22.09 3.42 6.81 2.27 12.706 5.54 17.71 9.8 4.996 4.26 8.91 9.46 11.757 15.602 2.84 6.15 4.26 13.12 4.26 20.95 0 5.51-.97 10.66-2.91 15.48-1.94 4.81-4.61 8.98-8.01 12.51"/>
  </g>
  <path fill="#231F20" d="M1484.75-362.13l46.105-46.107V-576.56c0-20.493-6.587-33.666-28.542-33.666h-138.318s-30.006 5.123-30.006 27.08v179.3c0 21.223 4.39 41.715 31.47 41.715h119.29z"/>
  <path fill="#FFF" d="M1469.053-378.598v-20.308s6.586-25.798 23.603-25.798h22.504v-147.1s3.842-23.053-16.467-23.053h-127.89c-16.467 0-21.406 2.195-21.406 18.113v181.13s2.195 17.016 18.662 17.016h100.99z"/>
  <path fill="#231F20" d="M1389.46-535.193c-1.448 1.004-4.706 2.08-8.947 2.08-12.048 0-18.255-10.395-18.255-24.157 0-16.485 8.48-25.66 19.03-25.66 4.088 0 7.187 1.146 8.586 2.15l-1.605 8.673c-1.6-.934-3.83-1.792-6.62-1.792-6.26 0-11.12 5.24-11.12 15.99 0 9.68 4.13 15.77 11.17 15.77 2.38 0 5.01-.71 6.56-1.58l1.19 8.53zm13.876 1.363l-11.167-48.312h8.63l4.24 20.428c1.19 5.734 2.27 11.256 3.1 17.276h.15c.88-5.808 1.96-11.542 3.15-17.06l4.45-20.645h8.37l-11.74 48.312h-9.21zm-41.766 60.04h141.062v12.074H1361.57zm0 17.29h141.062v4.94H1361.57zm0 10.336h141.062v4.94H1361.57zm0 10.338h141.062v4.94H1361.57zm0 10.336h109.502v4.94H1361.57zm0 10.704h100.17v4.94h-100.17zm0 11.8h100.17v4.94h-100.17zm.643-118.374h141.062v12.075h-141.062zm0 17.29h141.062v4.94h-141.062zm0 10.702h103.007v4.94h-103.007z"/>
  <path fill="#FFF" d="M221.302 112.57c-1.036 0-1.975.42-2.652 1.098l-68.6 64.988-68.598-64.988c-.678-.68-1.614-1.1-2.65-1.1-2.073 0-3.75 1.678-3.75 3.75 0 1.037.416 1.975 1.098 2.652l71.25 67.5c.678.68 1.615 1.1 2.65 1.1 1.038 0 1.976-.42 2.652-1.1l71.25-67.5c.682-.678 1.1-1.615 1.1-2.65 0-2.074-1.677-3.75-3.75-3.75m322.166 67.175l-71.25-67.5c-.678-.68-1.616-1.1-2.652-1.1-1.033 0-1.974.42-2.65 1.1l-71.25 67.5c-.682.682-1.1 1.615-1.1 2.65 0 2.073 1.678 3.75 3.75 3.75 1.037 0 1.974-.417 2.65-1.098l68.6-64.988 68.6 64.98c.676.68 1.614 1.1 2.65 1.1 2.072 0 3.75-1.68 3.75-3.75 0-1.04-.417-1.97-1.098-2.65m662.778-410.75c0-2.4-1.954-4.35-4.364-4.35-1.24 0-2.347.53-3.145 1.36l-.01-.02-114.72 118.45-62.308-62.04c-.8-.79-1.89-1.28-3.09-1.28-2.41 0-4.37 1.95-4.37 4.34 0 1.2.48 2.29 1.27 3.08l65.45 65.17c.79.78 1.88 1.27 3.09 1.27 1.24 0 2.34-.53 3.14-1.36l.02.01 117.82-121.64-.03-.02c.75-.77 1.22-1.82 1.22-2.99m229.64 60.83l67.88-67.89c.75-.75 1.22-1.8 1.22-2.95 0-2.3-1.86-4.17-4.17-4.17-1.15 0-2.19.47-2.95 1.22l-67.88 67.88-67.89-67.89c-.76-.76-1.8-1.22-2.95-1.22-2.31 0-4.17 1.86-4.17 4.16 0 1.15.46 2.2 1.22 2.95l67.89 67.89-67.89 67.89c-.76.75-1.22 1.79-1.22 2.94 0 2.3 1.86 4.16 4.16 4.16 1.15 0 2.19-.47 2.95-1.22l67.89-67.89 67.88 67.89c.76.75 1.8 1.22 2.95 1.22 2.3 0 4.16-1.86 4.16-4.17 0-1.15-.47-2.19-1.23-2.95l-67.89-67.89z"/>
  <path fill="#0B80E0" d="M545.28-228.662h-75c-16.668 0-16.668-16.664-33.335-16.664h-41.67c-9.203 0-16.666 7.46-16.666 16.664v116.668c0 9.212 7.46 16.668 16.66 16.668h150.01c9.2 0 16.66-7.456 16.66-16.668v-100c0-9.205-7.47-16.668-16.67-16.668m8.33 116.668c0 4.605-3.74 8.333-8.34 8.333h-150c-4.6 0-8.34-3.73-8.34-8.34v-83.34H553.6V-112zm0-91.664H386.94v-25.004c0-4.6 3.736-8.33 8.333-8.33h41.67c12.498 0 12.498 16.667 33.333 16.667h75c4.593 0 8.33 3.73 8.33 8.33v8.337z"/>
  <path fill="#FFF" d="M790 116.312c-4.6 0-8.332 3.734-8.332 8.334l4.166 45.833c0 2.3 1.867 4.16 4.167 4.16s4.17-1.86 4.17-4.17l4.17-45.84c0-4.6-3.73-8.34-8.33-8.34m0 66.66c-4.6 0-8.33 3.73-8.33 8.33s3.74 8.33 8.34 8.33 8.34-3.73 8.34-8.33-3.73-8.34-8.33-8.34m89.53 16.83L804.53 83.14s-3.85-8.494-14.527-8.494c-10.044 0-14.525 8.495-14.525 8.495l-75 116.67s-2.14 2.76-2.14 8.17c0 9.21 7.463 16.67 16.668 16.67h150c9.205 0 16.668-7.46 16.668-16.66 0-5.81-2.14-8.17-2.14-8.17M865 216.32H715c-4.598 0-8.333-3.74-8.333-8.34 0-1.75.37-2.81.56-3.237.147-.152 0-.033.254-.43l75-116.663c.14-.204.26-.41.37-.62.02-.036 2.36-4.05 7.16-4.05 4.8 0 6.69 3.152 6.94 3.6.2.514.29.607.59 1.07l75 116.667c.11.167.22.33.34.492.13.28.48 1.28.48 3.16 0 4.6-3.74 8.33-8.33 8.33"/>
  <path fill="#0B80E0" d="M142.99-135.334c-4.888-1.986-7.023-3.128-7.023-5.707 0-2.11 1.8-3.92 5.507-3.92 3.71 0 6.405 1.13 7.92 1.92l1.917-7.39c-2.25-1.08-5.39-2.05-9.66-2.05-8.93 0-14.32 5.28-14.32 12.19 0 5.89 4.1 9.62 10.4 11.97 4.55 1.73 6.35 3.18 6.35 5.7 0 2.64-2.07 4.38-6 4.38-3.65 0-7.2-1.27-9.5-2.53l-1.74 7.57c2.14 1.26 6.41 2.47 10.73 2.47 10.4 0 15.29-5.77 15.29-12.56 0-5.72-3.15-9.44-9.84-12.08m-33.79-16.77c-5.22 0-8.93.36-11.57.85v39.95h8.48v-14.48c.78.12 1.8.18 2.92.18 5.06 0 9.39-1.32 12.31-4.27 2.25-2.29 3.48-5.65 3.48-9.62 0-3.97-1.63-7.32-4.04-9.37-2.52-2.17-6.29-3.25-11.57-3.25m-.22 19.48c-1.24 0-2.13-.06-2.87-.24v-11.96c.62-.18 1.8-.36 3.54-.36 4.27 0 6.69 2.22 6.69 5.95 0 4.15-2.81 6.62-7.36 6.62m75.18-142.11H71.78c-11.282 0-20.43 9.14-20.43 20.43v183.87C51.35-59.15 60.5-50 71.78-50h143.017c11.284 0 20.43-9.148 20.43-20.44v-148.115L184.15-274.74zm40.86 204.3c0 5.65-4.57 10.22-10.21 10.22H71.78c-5.636 0-10.214-4.57-10.214-10.22v-183.87c0-5.65 4.58-10.22 10.215-10.22h91.94v51.08c0 5.64 4.58 10.2 10.22 10.2h51.08v132.8zm-51.07-143v-51.08h5.11l45.97 51.08h-51.08zm-15.01 62.19v39.78c2.13.3 5.28.59 9.72.59 7.42 0 13.49-1.67 17.47-5.23 3.66-3.31 6.3-8.65 6.3-16.4 0-7.16-2.47-12.14-6.41-15.27-3.65-2.94-8.31-4.33-15.5-4.33-4.33.01-8.43.3-11.57.85m24.38 19.05c0 9.67-5.05 14.24-12.81 14.18-1.06 0-2.25 0-2.98-.18v-26.5c.73-.18 1.97-.36 3.88-.36 7.37 0 11.98 4.45 11.92 12.86"/>
  <path fill="#FFF" d="M111.657 730.486c5.328 0 10.136.457 14.53 1.393 4.37.91 8.1 2.43 11.25 4.52 3.103 2.09 5.53 4.86 7.27 8.37 1.7 3.44 2.55 7.76 2.55 12.87 0 5.52-1.273 10.13-3.817 13.82-2.564 3.67-6.332 6.7-11.367 9.04 6.856 1.94 11.933 5.35 15.3 10.21 3.38 4.89 5.04 10.74 5.04 17.6 0 5.56-1.084 10.35-3.244 14.37-2.19 4.08-5.15 7.38-8.81 9.93-3.69 2.57-7.93 4.46-12.68 5.69-4.69 1.23-9.57 1.84-14.56 1.84H59.14V730.48h52.513zm-3.172 44.313c4.345 0 7.942-1.02 10.792-3.08 2.82-2.03 4.188-5.38 4.188-9.98 0-2.55-.455-4.66-1.368-6.3-.945-1.64-2.197-2.92-3.78-3.82-1.568-.94-3.34-1.58-5.397-1.93-2.02-.39-4.14-.54-6.308-.54H83.67v25.63h24.815zm1.354 46.68c2.42 0 4.71-.21 6.87-.69 2.19-.47 4.14-1.22 5.78-2.33 1.64-1.06 3-2.52 3.98-4.38.99-1.84 1.46-4.23 1.46-7.11 0-5.66-1.62-9.67-4.83-12.11-3.22-2.4-7.51-3.6-12.79-3.6H83.67v30.2h26.17zm77.53-.37c3.31 3.19 8.11 4.8 14.32 4.8 4.47 0 8.33-1.12 11.57-3.33 3.21-2.22 5.16-4.59 5.92-7.04h19.51c-3.14 9.55-7.9 16.38-14.38 20.49-6.42 4.13-14.24 6.18-23.36 6.18-6.35 0-12.07-1.01-17.21-3.01-5.13-2.02-9.42-4.85-13.02-8.54-3.52-3.71-6.25-8.09-8.19-13.24-1.93-5.12-2.9-10.79-2.9-16.93 0-5.94 1-11.49 2.97-16.62 2.01-5.15 4.79-9.59 8.45-13.31 3.66-3.75 8.01-6.7 13.07-8.86 5.06-2.15 10.64-3.23 16.81-3.23 6.82 0 12.8 1.29 17.92 3.92 5.1 2.6 9.29 6.12 12.57 10.52 3.29 4.4 5.62 9.42 7.09 15.07 1.45 5.63 1.96 11.51 1.54 17.68h-58.19c0 6.27 2.15 12.22 5.48 15.41zm25.45-41.72c-2.63-2.87-7.09-4.43-12.53-4.43-3.54 0-6.47.58-8.82 1.78-2.29 1.18-4.17 2.65-5.61 4.37-1.43 1.75-2.41 3.61-2.97 5.59-.57 1.93-.91 3.69-1.01 5.23h36.04c-.53-5.56-2.47-9.68-5.11-12.56zm-35.47-41.56h45.15v10.82h-45.15z"/>
  <g fill="#FFF">
    <path fill-rule="evenodd" d="M470.263 710.69c-42.464 0-76.898 34.43-76.898 76.9 0 33.976 22.034 62.802 52.588 72.968 3.842.71 5.254-1.668 5.254-3.697 0-1.83-.07-7.89-.104-14.31-21.394 4.66-25.907-9.07-25.907-9.07-3.498-8.88-8.538-11.25-8.538-11.25-6.978-4.77.526-4.67.526-4.67 7.72.54 11.788 7.93 11.788 7.93 6.858 11.76 17.99 8.36 22.378 6.39.69-4.97 2.682-8.36 4.882-10.28-17.08-1.94-35.037-8.53-35.037-38 0-8.4 3.005-15.26 7.924-20.64-.8-1.94-3.44-9.76.74-20.35 0 0 6.46-2.06 21.15 7.89 6.13-1.7 12.71-2.56 19.25-2.59 6.53.03 13.12.89 19.26 2.59 14.67-9.95 21.12-7.88 21.12-7.88 4.18 10.6 1.55 18.42.75 20.35 4.93 5.39 7.91 12.25 7.91 20.64 0 29.54-17.99 36.04-35.12 37.95 2.76 2.39 5.22 7.07 5.22 14.24 0 10.29-.09 18.57-.09 21.11 0 2.05 1.38 4.45 5.28 3.69 30.54-10.18 52.54-38.99 52.54-72.95-.01-42.48-34.43-76.9-76.9-76.9z" clip-rule="evenodd"/>
    <path d="M422.49 821.102c-.17.383-.77.496-1.318.234-.558-.25-.87-.77-.69-1.154.166-.393.768-.504 1.325-.24.557.25.876.777.683 1.16zm3.114 3.474c-.366.34-1.084.182-1.57-.355-.504-.53-.597-1.25-.225-1.59.37-.34 1.07-.18 1.57.36.5.55.6 1.26.22 1.6zm3.034 4.43c-.47.327-1.242.02-1.718-.667-.473-.69-.473-1.51.01-1.84.476-.33 1.235-.03 1.72.64.467.69.467 1.51-.014 1.85zm4.153 4.276c-.42.465-1.32.34-1.97-.295-.67-.617-.86-1.498-.44-1.963.43-.467 1.33-.336 2 .293.67.62.87 1.504.42 1.965zm5.73 2.485c-.18.602-1.05.875-1.92.62-.87-.265-1.44-.968-1.26-1.577.18-.605 1.05-.89 1.93-.615.87.26 1.44.962 1.26 1.574zm6.3.462c.02.63-.71 1.16-1.63 1.17-.92.02-1.66-.5-1.67-1.12 0-.64.72-1.16 1.64-1.18.92-.02 1.67.49 1.67 1.12zm5.86-1c.11.61-.52 1.25-1.43 1.42-.89.16-1.72-.22-1.83-.84-.11-.64.54-1.27 1.43-1.43.91-.16 1.73.21 1.84.84zm0 0"/>
  </g>
  <path fill="#FFF" d="M853.86 710.89H725.994c-6.11 0-11.075 4.842-11.075 10.812v128.36c0 5.978 4.96 10.827 11.07 10.827h127.87c6.11 0 11.1-4.85 11.1-10.83V721.7c0-5.97-4.99-10.812-11.11-10.812zm-94.44 127.82h-22.255v-71.586h22.256v71.586zm-11.12-81.37c-7.132 0-12.906-5.78-12.906-12.905 0-7.115 5.774-12.895 12.906-12.895 7.115 0 12.896 5.78 12.896 12.895 0 7.125-5.78 12.904-12.896 12.904zm94.477 81.37h-22.24V803.9c0-8.308-.152-18.985-11.564-18.985-11.58 0-13.353 9.043-13.353 18.38v35.415h-22.24v-71.586h21.347v9.78h.297c2.97-5.626 10.23-11.56 21.057-11.56 22.54 0 26.7 14.824 26.7 34.1v39.266z"/>
  <path fill="#FFC715" d="M897.297-192.17c0-2-1.188-3.69-2.882-4.502l.015-.026-.146-.062c-.05-.02-.1-.04-.144-.055l-105.263-40.063-.014.028c-.652-.313-1.37-.52-2.146-.52-.775 0-1.487.204-2.145.52l-.015-.028L679.3-196.815c-.048.016-.097.034-.142.055l-.152.062.015.026c-1.69.81-2.88 2.502-2.88 4.503 0 2.01 1.19 3.7 2.88 4.51l-.01.03.15.07.15.06 9.44 3.6 9.65 3.67 16.89 6.44-8.93 60.68.09.02c-.03.22-.13.41-.13.65 0 2.78 2.25 5.02 5.03 5.02.39 0 .72-.12 1.07-.2l.02.09 37.84-9.46 33.45 28.65.05-.06c.85.63 1.84 1.07 2.97 1.07 1.03 0 1.94-.39 2.74-.92l.05.08 38.52-28.86 38.03 9.5.02-.1c.36.08.69.22 1.07.22 2.78 0 5.03-2.25 5.03-5.02 0-.32-.1-.6-.16-.91l.07-.01-13.4-60.65 35.45-13.49c.05-.02.1-.03.14-.05l.15-.06-.01-.03c1.7-.81 2.89-2.5 2.89-4.5m-36.54 71.85l-32.74-8.18-.02.1c-.35-.08-.69-.22-1.07-.22-1.03 0-1.94.39-2.74.93l-.05-.08-37.21 27.89-32.37-27.73-.05.07c-.84-.64-1.83-1.08-2.963-1.08-.38 0-.716.13-1.07.22l-.02-.11-33.22 8.3L725-171.19l59.616 22.69.01-.03c.66.31 1.37.52 2.15.52s1.5-.21 2.15-.52l.02.02 60.27-22.94 11.61 51.14zm-74.04-38.09l-91.48-34.83 91.48-34.82 91.48 34.82-91.48 34.83z"/>
</svg>
