<svg xmlns="http://www.w3.org/2000/svg" width="300" height="300" viewBox="0 0 300 300">
  <path fill="#F00" d="M-176.354-565.814l-76.354 57.023v90.67H-100v-90.67l-76.354-57.03zm-21.124 40.67c2.238-4.084 5.317-7.164 9.237-9.2 3.93-2.087 8.41-3.13 13.42-3.13 4.27 0 8.05.84 11.39 2.48 3.27 1.694 5.81 4.022 7.59 7.115 1.74 3.03 2.63 6.37 2.63 9.99 0 4.33-1.34 8.2-4.02 11.74-3.34 4.37-7.61 6.56-12.83 6.56-1.39 0-2.44-.19-3.19-.68-.7-.49-1.2-1.24-1.39-2.19-2 1.94-4.33 2.93-6.91 2.93-2.84 0-5.13-.99-7.02-2.93-1.84-1.94-2.79-4.53-2.79-7.71 0-4.02 1.14-7.6 3.38-10.88 2.68-4.03 6.16-6.02 10.38-6.02 3.04 0 5.27 1.15 6.67 3.44l.63-2.78h6.72l-3.83 18.2c-.24 1.13-.35 1.89-.35 2.23 0 .46.1.75.29.95.2.19.39.29.7.29.79 0 1.83-.44 3.13-1.44 1.74-1.29 3.13-3.02 4.17-5.16 1.09-2.19 1.64-4.43 1.64-6.77 0-4.12-1.49-7.64-4.53-10.43-3.03-2.78-7.26-4.22-12.63-4.22-4.57 0-8.5.94-11.68 2.84-3.19 1.83-5.57 4.52-7.21 7.9-1.64 3.37-2.43 6.91-2.43 10.59 0 3.58.94 6.81 2.72 9.73 1.8 2.94 4.33 5.08 7.56 6.42 3.28 1.35 7.01 2.04 11.24 2.04 4.02 0 7.51-.54 10.38-1.68 2.94-1.14 5.27-2.84 7.06-5.07h5.42c-1.69 3.44-4.33 6.12-7.82 8.11-4.02 2.19-8.89 3.33-14.66 3.33-5.61 0-10.43-.95-14.47-2.83-4.07-1.89-7.1-4.67-9.08-8.35-2-3.68-2.99-7.71-2.99-12.04 0-4.77 1.14-9.19 3.38-13.31m-49.8 18.09L-191-469.2l-56.374 43.6V-507zm4.272 84.31l66.71-51.59 66.707 51.59h-133.41zm137.693-2.93l-56.376-43.59 56.39-37.79v81.38zm-68.197-95.34c.89 1 1.34 2.49 1.34 4.37 0 1.75-.344 3.59-.99 5.58-.65 1.99-1.44 3.48-2.34 4.52-.586.7-1.236 1.25-1.885 1.59-.84.46-1.74.7-2.73.7-1.28 0-2.33-.49-3.23-1.54-.89-.99-1.28-2.58-1.28-4.72 0-1.59.29-3.48.94-5.57.6-2.084 1.54-3.624 2.79-4.77 1.23-1.13 2.58-1.68 4.02-1.68 1.35 0 2.48.5 3.39 1.54"/>
  <g fill="#F00">
    <path d="M137.29-496.268l69.216-47.215H68.92c-.077 0-.148.02-.224.02l68.593 47.195z"/>
    <path d="M213.777-538.464l-72.126 49.198c-.61.452-2.18 1.42-4.28 1.42-2.14 0-3.84-1.02-4.31-1.33l-71.22-48.996c-.19.67-.34 1.368-.34 2.105v88.194c0 4.097 3.33 7.417 7.42 7.417h137.87c4.1 0 7.42-3.32 7.42-7.418v-88.195c0-.84-.17-1.64-.43-2.4m-85.87 57.57l-56.1 34.03c-1.81 1.1-3.95.9-4.76-.44-.82-1.34 0-3.32 1.81-4.43l56.1-34.02c1.82-1.1 3.95-.9 4.77.44.82 1.35.01 3.33-1.81 4.43m80.76 33.59c-.81 1.35-2.95 1.55-4.76.45L147.8-480.9c-1.815-1.1-2.627-3.087-1.812-4.433.817-1.34 2.952-1.54 4.77-.437l56.098 34.022c1.818 1.105 2.63 3.087 1.812 4.43"/>
  </g>
  <g fill="#FF4810">
    <path d="M525.662-504.445l-57.516 41.015-57.518-41.015-18.837-13.43V-430H544.5v-87.874"/>
    <path d="M408.017-509.964l57.518 40.995c.778.57 1.694.86 2.61.86.917 0 1.833-.29 2.64-.86l57.51-40.99c1.185-.86 1.888-2.23 1.888-3.68v-37.6c0-2.5-2.018-4.52-4.52-4.52H410.628c-2.5 0-4.52 2.02-4.52 4.52v37.6c0 1.48.73 2.86 1.91 3.69m7.136-36.76h105.98v30.74l-52.99 37.79-52.99-37.79v-30.73z"/>
    <path d="M433.048-527.375h67.342c2.715 0 4.926-2.205 4.926-4.927 0-2.715-2.21-4.898-4.926-4.898h-67.342c-2.715 0-4.926 2.184-4.926 4.898 0 2.722 2.21 4.927 4.926 4.927m72.268 12.167c0-2.693-2.212-4.898-4.926-4.898h-67.343c-2.715 0-4.927 2.178-4.927 4.898 0 2.715 2.212 4.927 4.927 4.927h67.343c2.714 0 4.926-2.22 4.926-4.93"/>
  </g>
  <g fill="#FFF">
    <path d="M793.663-506.267c-2.588 0-4.973.724-7.165 2.196-2.2 1.46-4.095 3.34-5.69 5.66-1.592 2.33-2.823 4.92-3.676 7.8-.868 2.88-1.294 5.69-1.294 8.44 0 2.84.577 5.15 1.74 6.97 1.166 1.79 3.17 2.7 6.014 2.7 1.196 0 2.504-.37 3.873-1.1 1.376-.73 2.702-1.69 4.01-2.91 1.282-1.2 2.533-2.57 3.742-4.12 1.197-1.55 2.277-3.18 3.23-4.9l3.23-17.79c-1.124-.95-2.29-1.68-3.487-2.2-1.21-.52-2.716-.77-4.527-.77"/>
    <path d="M790.5-564.504c-41.508 0-75.153 33.58-75.153 74.992 0 41.425 33.646 75.008 75.153 75.008 41.507 0 75.146-33.583 75.146-75.008 0-41.413-33.64-74.992-75.146-74.992m48.066 93.962c-3.402 3.52-7.374 6.316-11.884 8.38-4.522 2.06-9.382 3.094-14.536 3.094-2.16 0-4.157-.234-6.01-.717-1.86-.47-3.41-1.26-4.65-2.378-1.252-1.12-2.184-2.585-2.785-4.387-.6-1.804-.77-4.047-.51-6.703h-.52c-1.28 1.804-2.68 3.563-4.19 5.282-1.51 1.71-3.17 3.24-4.97 4.57-1.8 1.33-3.79 2.39-5.94 3.15-2.16.77-4.52 1.16-7.1 1.16-2.07 0-4.05-.46-5.96-1.36-1.88-.91-3.52-2.18-4.9-3.8-1.37-1.63-2.48-3.62-3.29-5.94-.82-2.33-1.22-4.9-1.22-7.74 0-5.34.86-10.51 2.58-15.54 1.74-5.03 4.08-9.48 7.06-13.34 2.98-3.88 6.42-6.98 10.34-9.35 3.92-2.36 8.08-3.55 12.46-3.55 3.02 0 5.56.45 7.63 1.36 2.07.91 3.96 2.08 5.69 3.54l4-4.13h9.05l-6.2 34.94c-.68 4.04-.71 6.96-.06 8.77.66 1.8 2.09 2.7 4.34 2.7 2.23 0 4.44-.52 6.59-1.55 2.15-1.03 4.09-2.62 5.82-4.77 1.71-2.15 3.12-4.85 4.19-8.11 1.09-3.28 1.62-7.14 1.62-11.61 0-6.45-1.08-11.95-3.23-16.51-2.16-4.55-5.11-8.32-8.85-11.27-3.74-2.97-8.16-5.15-13.24-6.52-5.08-1.38-10.56-2.07-16.41-2.07-6.71 0-12.96 1.2-18.74 3.6-5.77 2.41-10.78 5.72-15.06 9.93-4.25 4.22-7.59 9.22-10.01 15.03-2.4 5.79-3.61 12.1-3.61 18.89 0 6.7 1.02 12.72 3.04 18.05 2.02 5.34 4.97 9.86 8.86 13.61 3.87 3.74 8.678 6.62 14.41 8.63 5.72 2.02 12.29 3.03 19.7 3.03 2.507 0 5.338-.3 8.538-.9 3.18-.61 6.063-1.5 8.653-2.71l3.997 12.38c-3.52 1.72-7.12 2.91-10.78 3.61-3.66.68-7.85 1.03-12.6 1.03-8.358 0-16.09-1.21-23.19-3.62-7.1-2.4-13.27-5.97-18.48-10.7-5.21-4.73-9.288-10.6-12.2-17.6-2.937-7-4.4-15.11-4.4-24.3 0-9.37 1.68-17.85 5.04-25.42 3.36-7.56 7.89-14 13.57-19.34 5.68-5.33 12.28-9.43 19.763-12.32 7.493-2.87 15.42-4.31 23.77-4.31 7.926 0 15.29 1.13 22.09 3.416 6.81 2.273 12.704 5.54 17.71 9.8 4.994 4.26 8.91 9.46 11.755 15.604 2.84 6.15 4.26 13.128 4.26 20.95 0 5.51-.97 10.667-2.91 15.48-1.94 4.81-4.61 8.98-8.01 12.51"/>
  </g>
  <path fill="#231F20" d="M1164.75-362.13l46.105-46.107V-576.56c0-20.493-6.587-33.666-28.542-33.666h-138.318s-30.006 5.123-30.006 27.08v179.3c0 21.223 4.39 41.715 31.47 41.715h119.29z"/>
  <path fill="#FFF" d="M1149.053-378.598v-20.308s6.586-25.798 23.603-25.798h22.504v-147.1s3.842-23.053-16.467-23.053h-127.89c-16.467 0-21.406 2.195-21.406 18.113v181.13s2.195 17.016 18.662 17.016h100.99z"/>
  <path fill="#231F20" d="M1069.46-535.193c-1.448 1.004-4.706 2.08-8.947 2.08-12.048 0-18.255-10.395-18.255-24.157 0-16.485 8.48-25.66 19.03-25.66 4.088 0 7.187 1.146 8.586 2.15l-1.605 8.673c-1.6-.934-3.83-1.792-6.62-1.792-6.26 0-11.12 5.24-11.12 15.99 0 9.68 4.13 15.77 11.17 15.77 2.38 0 5.01-.71 6.56-1.58l1.19 8.53zm13.876 1.363l-11.167-48.312h8.63l4.24 20.428c1.19 5.734 2.27 11.256 3.1 17.276h.15c.88-5.808 1.96-11.542 3.15-17.06l4.45-20.645h8.37l-11.74 48.312h-9.21zm-41.766 60.04h141.062v12.074H1041.57zm0 17.29h141.062v4.94H1041.57zm0 10.336h141.062v4.94H1041.57zm0 10.338h141.062v4.94H1041.57zm0 10.336h109.502v4.94H1041.57zm0 10.704h100.17v4.94h-100.17zm0 11.8h100.17v4.94h-100.17zm.643-118.374h141.062v12.075h-141.062zm0 17.29h141.062v4.94h-141.062zm0 10.702h103.007v4.94h-103.007z"/>
  <g fill="#E8BD47">
    <path d="M451.372-262.452h32.744c7.033 0 12.734 5.7 12.734 12.733v12.01h14.067v-24.62c0-7.03-5.7-12.73-12.733-12.73h-60.88c-7.033 0-12.734 5.7-12.734 12.74v24.62h14.068v-12.01c0-7.03 5.7-12.73 12.734-12.73zm.213 98.456c.968-3.48 4.125-6.045 7.91-6.045h16.495c3.786 0 6.943 2.56 7.91 6.04l101.236-32.03v-10.64c0-14.07-11.402-25.47-25.467-25.47H375.81c-14.065 0-25.467 11.4-25.467 25.47v10.64L451.58-164z"/>
    <path d="M484.236-155.5v16.99c0 4.555-3.69 8.246-8.246 8.246h-16.494c-4.554 0-8.247-3.69-8.247-8.246v-16.99l-100.9-32.713v94.574c0 14.07 11.4 25.47 25.46 25.47h183.86c14.06 0 25.46-11.4 25.46-25.47v-94.57l-100.9 32.72z"/>
    <path d="M456.368-165.857h22.75c.5 0 .907.405.907.905v29.842c0 .5-.406.906-.906.906h-22.76c-.5 0-.91-.405-.91-.906v-29.842c0-.5.4-.905.9-.905z"/>
  </g>
  <path fill="#231F20" d="M673.068-218.255s10.853 2.656 26.378 6.23v30.585h-1.952c-.715 0-1.312.544-1.377 1.255l-6.82 73.638c-.076.81.562 1.51 1.376 1.51h24.622c.836 0 1.48-.734 1.372-1.562l-9.662-73.63c-.09-.69-.677-1.2-1.37-1.2h-1.176l-1.14-29.69c11.75 2.69 25.69 5.78 39.48 8.62-9.67 11.7-23.68 30.05-19.32 33.21 6.48 4.72 42.09 2.36 70.28 27.13 6.96 2.95 45.29-28.3 80.08-27.71 4.16-.38-7.94-19.19-20.58-33.72 30.83-8.54 61.19-19.35 61.19-19.35l-120.7-23.59-120.71 28.3zm430.035 52.912c-24.573 10.124-56.536 14.882-56.536 14.882l14.088 7.92-8.6 13.41c15.865-3.17 30.437-9.92 42.184-16.86-12.86 14.75-27.64 26.18-27.64 26.18l14.82.18.49 14.95c21.59-18.17 32.15-36.03 37.32-49.06-5.16-4.16-10.58-8.03-16.14-11.63zm129.745 19.61c-5.68-10.813-52.26-22.563-78.056-41.65-2.23-1.65-4.794-3.596-7.61-5.756-13.134 12.51-21.487 29.33-26.083 40.93 4.81 4 9.36 8.24 13.53 12.75 41.09 44.44 67.81 54.05 78.95 45.24 11.14-8.81 24.93-40.69 19.25-51.5zm-98.44-57.27l.233.18-.23-.18zm-5.638-4.357l2.512 1.94c-31.187-24.098-74.39-56.767-83.27-50.152 0 0-28.21 13.835-32.504 52.554 0 0 45.094 11.048 84.773 35.866 4.25-21.11 18.96-33.93 28.49-40.207zm2.545 1.966l2.138 1.653-2.138-1.66z"/>
  <path fill="#0B80E0" d="M-144.51 209.205l.096-.016-14.748-73.71h4.882c2.75 0 4.974-2.23 4.974-4.98s-2.225-4.98-4.974-4.98h-6.87l-8.135-40.7-.097.02c-.024-.1-.034-.2-.06-.29l22.603-19.38-.03-.07c1.5-.86 2.55-2.41 2.55-4.25 0-13.74-17.81-24.87-39.79-24.87s-39.79 11.13-39.79 24.87c0 1.84 1.05 3.39 2.55 4.25l-.04.07 22.6 19.37c-.02.09-.03.19-.06.29l-.09-.02-24.87 124.35.1.01c-.05.29-.18.58-.18.89 0 1.25.51 2.37 1.28 3.24l-.04.03 34.82 39.79.04-.04c.9 1.04 2.21 1.73 3.7 1.73s2.79-.69 3.7-1.74l.04.03 34.82-39.79-.04-.04c.77-.87 1.28-1.98 1.28-3.24 0-.31-.12-.59-.18-.89M-213.66 58.9c1.9-7.322 14.398-12.99 29.568-12.99s27.665 5.668 29.57 12.99l-29.57 25.35-29.564-25.35zm29.57 183.4l-29.46-33.667 23.35-116.755 2.43 2.1c.204.235.447.41.69.595l.515.44.04-.06c.73.416 1.525.717 2.43.717s1.7-.3 2.43-.72l.036.064.52-.44c.25-.185.49-.36.69-.593l2.44-2.09 6.73 33.62h-12.84c-2.75 0-4.97 2.22-4.97 4.97 0 2.75 2.23 4.97 4.98 4.97h14.83l14.63 73.19-29.46 33.67z"/>
  <path fill="#FFF" d="M260.448 119.978c0-2-1.188-3.693-2.88-4.503l.013-.027-.14-.062-.14-.055-105.27-40.06-.01.03c-.65-.31-1.37-.52-2.14-.52-.78 0-1.49.21-2.15.52l-.01-.03-105.26 40.06c-.05.02-.09.04-.14.06l-.15.06.02.03c-1.69.81-2.88 2.5-2.88 4.51 0 2 1.18 3.7 2.88 4.5l-.02.03.15.06c.04.02.09.04.14.06l9.43 3.6 9.65 3.67 16.89 6.44-8.93 60.68.09.02c-.03.22-.13.41-.13.65 0 2.78 2.25 5.03 5.03 5.03.38 0 .72-.12 1.07-.21l.02.08 37.83-9.46 33.46 28.66.05-.06c.85.63 1.84 1.07 2.97 1.07 1.03 0 1.94-.39 2.74-.92l.05.08 38.52-28.86 38.03 9.5.02-.09c.36.08.7.22 1.07.22 2.78 0 5.03-2.24 5.03-5.02 0-.32-.1-.61-.16-.91l.07-.01-13.38-60.62 35.45-13.5c.05-.02.1-.03.14-.05l.15-.06-.01-.03c1.69-.81 2.88-2.5 2.88-4.5m-36.58 71.8l-32.74-8.18-.02.1c-.35-.08-.69-.21-1.07-.21-1.03 0-1.94.39-2.74.93l-.05-.08-37.21 27.89-32.38-27.73-.05.08c-.84-.63-1.83-1.08-2.96-1.08-.37 0-.71.14-1.07.22l-.02-.1-33.22 8.3 7.73-51.02 59.616 22.69.017-.02c.656.31 1.37.52 2.144.52s1.49-.21 2.145-.52l.015.03 60.27-22.94 11.61 51.15zm-74.04-38.09L58.39 118.9l91.475-34.82 91.48 34.82-91.48 34.825z"/>
  <path fill="#0B80E0" d="M-111.468 420.337c-.844 0-1.608.343-2.16.896l-55.894 52.95-55.893-52.95c-.552-.553-1.316-.896-2.16-.896-1.69 0-3.056 1.366-3.056 3.056 0 .845.34 1.608.89 2.16l58.05 54.998c.55.56 1.31.9 2.16.9.84 0 1.61-.34 2.16-.89l58.05-54.99c.55-.55.89-1.31.89-2.16 0-1.69-1.37-3.05-3.06-3.05m308.81 55.89l-58.05-54.99c-.55-.55-1.32-.89-2.16-.89-.84 0-1.61.35-2.16.9l-58.03 54.97c-.56.56-.9 1.32-.9 2.16 0 1.69 1.36 3.06 3.05 3.06.85 0 1.61-.34 2.16-.89l55.9-52.95 55.9 52.95c.55.56 1.32.9 2.16.9 1.69 0 3.06-1.36 3.06-3.05 0-.84-.34-1.6-.89-2.16m233.15-25.33L483.47 395c.56-.553.9-1.316.9-2.16 0-1.69-1.37-3.056-3.056-3.056-.85 0-1.61.343-2.16.895l-55 58.05c-.55.55-.896 1.32-.896 2.16 0 .84.34 1.61.895 2.16l55 58.05c.557.55 1.317.89 2.16.89 1.69 0 3.057-1.36 3.057-3.05 0-.84-.34-1.6-.893-2.16L430.5 450.9zm389.72-2.16l-55-58.05c-.55-.55-1.32-.89-2.16-.89-1.69 0-3.06 1.37-3.06 3.06 0 .845.34 1.608.89 2.16l52.95 55.894-52.95 55.9c-.56.56-.9 1.32-.9 2.16 0 1.69 1.36 3.06 3.05 3.06.84 0 1.61-.34 2.16-.89l55-58.05c.55-.55.89-1.31.89-2.16s-.35-1.6-.9-2.16m367.15-356.7c0-2.28-1.85-4.13-4.14-4.13-1.18 0-2.23.51-2.985 1.3l-.01-.015-108.767 112.79-59.077-59.07c-.75-.75-1.786-1.22-2.925-1.22-2.28 0-4.13 1.85-4.13 4.14 0 1.14.46 2.18 1.21 2.92l62.06 62.06c.75.75 1.79 1.21 2.93 1.21 1.18 0 2.23-.5 2.98-1.29l.02.01 111.7-115.84-.02-.017c.72-.735 1.16-1.734 1.16-2.843m-76.3 377.91l78.04-78.037c.87-.87 1.41-2.07 1.41-3.39 0-2.65-2.14-4.79-4.79-4.79-1.32 0-2.51.53-3.38 1.4l-78.04 78.04-78.04-78.03c-.87-.86-2.07-1.4-3.39-1.4-2.65 0-4.79 2.15-4.79 4.79 0 1.32.53 2.52 1.4 3.39l78.04 78.03-78.04 78.04c-.87.87-1.41 2.07-1.41 3.39 0 2.65 2.14 4.79 4.79 4.79 1.33 0 2.52-.53 3.39-1.4l78.04-78.03 78.04 78.04c.87.87 2.07 1.4 3.39 1.4 2.65 0 4.79-2.14 4.79-4.79 0-1.32-.53-2.52-1.4-3.39l-78.04-78.05z"/>
  <path fill="#FFF" d="M553.224 91.656h-50.04c0-9.204-7.468-16.667-16.678-16.667H453.15c-9.212 0-16.68 7.46-16.68 16.66h-50.035c-4.602 0-8.34 3.73-8.34 8.34v41.66c0 4.6 3.738 8.33 8.34 8.33v66.66c0 4.6 3.736 8.33 8.34 8.33h150.11c4.598 0 8.34-3.74 8.34-8.34v-66.66c4.6 0 8.337-3.74 8.337-8.34V99.99c0-4.602-3.74-8.34-8.338-8.34m-100.076-8.33h33.357c4.602 0 8.34 3.735 8.34 8.332h-50.037c0-4.596 3.74-8.332 8.34-8.332m91.737 133.33H394.773v-66.66h16.68v8.338c0 4.596 3.736 8.326 8.34 8.326h16.676c4.6 0 8.34-3.73 8.34-8.326v-8.34h50.03v8.34c0 4.596 3.74 8.326 8.34 8.326h16.68c4.6 0 8.34-3.73 8.34-8.326v-8.34h16.68v66.667zm-125.093-83.33h16.677v25.007h-16.68V133.32zm83.393 0h16.68v25.007h-16.68V133.32zm50.04 8.335h-25.022v-8.334c0-4.59-3.736-8.33-8.34-8.33h-16.678c-4.6 0-8.34 3.74-8.34 8.33v8.34H444.81v-8.33c0-4.59-3.737-8.33-8.34-8.33h-16.68c-4.603 0-8.34 3.74-8.34 8.33v8.34h-25.018V100h166.79v41.66z"/>
  <path fill="#0B80E0" d="M236.147-244.78h-87.59c-19.464 0-19.464-19.46-38.93-19.46h-48.66c-10.75 0-19.465 8.71-19.465 19.46v136.252c0 10.758 8.715 19.465 19.464 19.465h175.18c10.75 0 19.466-8.708 19.466-19.465v-116.786c0-10.75-8.716-19.465-19.465-19.465m9.733 136.26c0 5.38-4.363 9.73-9.732 9.73H60.966c-5.37 0-9.732-4.35-9.732-9.73v-97.32H245.88v97.32zm0-107.05H51.234v-29.2c0-5.37 4.363-9.73 9.732-9.73h48.662c14.597 0 14.597 19.47 38.93 19.47h87.59c5.37 0 9.73 4.36 9.73 9.73v9.74zM795.488 99.41c-5.62 0-10.183 4.562-10.183 10.184l5.09 56.008c0 2.817 2.282 5.092 5.093 5.092 2.81 0 5.092-2.274 5.092-5.092l5.09-56.008c0-5.62-4.562-10.184-10.182-10.184m0 81.466c-5.62 0-10.183 4.565-10.183 10.184 0 5.622 4.562 10.184 10.183 10.184s10.182-4.562 10.182-10.184c0-5.62-4.562-10.184-10.182-10.184m109.4 20.566L813.24 58.874s-4.703-10.38-17.752-10.38c-12.277 0-17.753 10.38-17.753 10.38l-91.65 142.568s-2.614 3.37-2.614 9.983c0 11.25 9.12 20.367 20.37 20.367h183.3c11.25 0 20.37-9.117 20.37-20.367 0-7.107-2.61-9.983-2.61-9.983m-17.75 20.167h-183.3c-5.62 0-10.18-4.57-10.18-10.19 0-2.13.45-3.43.69-3.95.18-.19 0-.05.31-.53L786.3 64.38c.16-.25.31-.5.447-.76.024-.04 2.875-4.95 8.742-4.95s8.17 3.858 8.47 4.4c.24.63.34.746.71 1.31l91.65 142.568c.13.2.27.4.41.6.15.35.58 1.562.58 3.87 0 5.617-4.57 10.183-10.18 10.183M-177.01-135.33c-4.888-1.984-7.023-3.13-7.023-5.705 0-2.11 1.8-3.915 5.507-3.915 3.71 0 6.405 1.137 7.92 1.925l1.917-7.39c-2.25-1.08-5.39-2.047-9.66-2.047-8.93 0-14.32 5.287-14.32 12.196 0 5.89 4.1 9.62 10.4 11.96 4.55 1.736 6.35 3.183 6.35 5.707 0 2.65-2.07 4.39-6 4.39-3.65 0-7.2-1.26-9.5-2.52l-1.74 7.57c2.14 1.27 6.41 2.47 10.73 2.47 10.4 0 15.29-5.77 15.29-12.56 0-5.71-3.15-9.43-9.84-12.07m-33.79-16.77c-5.22 0-8.93.36-11.57.85v39.96h8.48v-14.48c.78.12 1.8.18 2.92.18 5.06 0 9.39-1.32 12.31-4.26 2.25-2.28 3.48-5.64 3.48-9.61 0-3.96-1.63-7.32-4.04-9.37-2.52-2.16-6.29-3.24-11.57-3.24m-.22 19.48c-1.24 0-2.13-.06-2.87-.24v-11.96c.62-.18 1.8-.36 3.54-.36 4.27 0 6.69 2.22 6.69 5.95 0 4.15-2.81 6.61-7.36 6.61m75.18-142.11h-112.4c-11.28 0-20.43 9.14-20.43 20.43V-70.4c0 11.29 9.15 20.44 20.43 20.44h143.01c11.29 0 20.43-9.15 20.43-20.44v-148.12l-51.07-56.184zm40.86 204.3c0 5.65-4.57 10.22-10.21 10.22H-248.2c-5.636 0-10.214-4.57-10.214-10.21v-183.9c0-5.64 4.58-10.21 10.214-10.21h91.94v51.08c0 5.64 4.58 10.21 10.215 10.21h51.078v132.8zm-51.08-143.01v-51.08h5.11l45.97 51.08h-51.08zm-15.01 62.19v39.77c2.13.3 5.28.6 9.72.6 7.42 0 13.49-1.68 17.47-5.23 3.66-3.3 6.3-8.65 6.3-16.4 0-7.15-2.47-12.14-6.41-15.26-3.65-2.94-8.31-4.33-15.5-4.33-4.33.01-8.43.3-11.57.85m24.38 19.05c0 9.68-5.05 14.24-12.81 14.18-1.06 0-2.25 0-2.98-.18v-26.5c.73-.18 1.97-.36 3.88-.36 7.37 0 11.98 4.45 11.92 12.86"/>
  <path fill="#FFF" d="M-208.343 730.486c5.328 0 10.136.457 14.53 1.393 4.37.91 8.1 2.43 11.25 4.52 3.103 2.09 5.53 4.86 7.27 8.37 1.7 3.44 2.55 7.76 2.55 12.87 0 5.52-1.273 10.13-3.817 13.82-2.564 3.67-6.332 6.7-11.367 9.04 6.856 1.94 11.933 5.35 15.3 10.21 3.38 4.89 5.04 10.74 5.04 17.6 0 5.56-1.084 10.35-3.244 14.37-2.19 4.08-5.15 7.38-8.81 9.93-3.69 2.57-7.93 4.46-12.68 5.69-4.69 1.23-9.57 1.84-14.56 1.84h-53.99V730.48h52.51zm-3.172 44.313c4.345 0 7.942-1.02 10.792-3.08 2.82-2.03 4.188-5.38 4.188-9.98 0-2.55-.455-4.66-1.368-6.3-.945-1.64-2.197-2.92-3.78-3.82-1.568-.94-3.34-1.58-5.397-1.93-2.02-.39-4.14-.54-6.308-.54h-22.944v25.63h24.817zm1.354 46.68c2.42 0 4.71-.21 6.87-.69 2.19-.47 4.14-1.22 5.78-2.33 1.64-1.06 3-2.52 3.98-4.38.99-1.84 1.46-4.23 1.46-7.11 0-5.66-1.62-9.67-4.83-12.11-3.22-2.4-7.51-3.6-12.79-3.6h-26.67v30.2h26.17zm77.53-.37c3.31 3.19 8.11 4.8 14.32 4.8 4.47 0 8.33-1.12 11.57-3.33 3.21-2.22 5.16-4.59 5.92-7.04h19.51c-3.14 9.55-7.9 16.38-14.38 20.49-6.42 4.13-14.24 6.18-23.36 6.18-6.35 0-12.07-1.01-17.21-3.01-5.13-2.02-9.42-4.85-13.02-8.54-3.52-3.71-6.25-8.09-8.19-13.24-1.93-5.12-2.9-10.79-2.9-16.93 0-5.94 1-11.49 2.97-16.62 2.01-5.15 4.79-9.59 8.45-13.31 3.66-3.75 8.01-6.7 13.07-8.86 5.06-2.15 10.64-3.23 16.81-3.23 6.82 0 12.8 1.29 17.92 3.92 5.1 2.6 9.29 6.12 12.57 10.52 3.29 4.4 5.62 9.42 7.09 15.07 1.45 5.63 1.96 11.51 1.54 17.68h-58.2c0 6.27 2.15 12.22 5.48 15.41zm25.45-41.72c-2.63-2.87-7.09-4.43-12.53-4.43-3.54 0-6.47.58-8.82 1.78-2.29 1.18-4.17 2.65-5.61 4.37-1.43 1.75-2.41 3.61-2.97 5.59-.57 1.93-.91 3.69-1.01 5.23h36.04c-.53-5.56-2.47-9.68-5.11-12.56zm-35.47-41.56h45.15v10.82h-45.15z"/>
  <g fill="#FFF">
    <path fill-rule="evenodd" d="M150.263 710.69c-42.464 0-76.898 34.43-76.898 76.9 0 33.976 22.034 62.802 52.588 72.968 3.842.71 5.254-1.668 5.254-3.697 0-1.83-.07-7.89-.104-14.31-21.394 4.66-25.907-9.07-25.907-9.07-3.498-8.88-8.538-11.25-8.538-11.25-6.978-4.77.526-4.67.526-4.67 7.72.54 11.788 7.93 11.788 7.93 6.858 11.76 17.99 8.36 22.378 6.39.69-4.97 2.682-8.36 4.882-10.28-17.08-1.94-35.037-8.53-35.037-38 0-8.4 3.005-15.26 7.924-20.64-.8-1.94-3.44-9.76.74-20.35 0 0 6.46-2.06 21.15 7.89 6.13-1.7 12.71-2.56 19.25-2.59 6.53.03 13.12.89 19.26 2.59 14.67-9.95 21.12-7.88 21.12-7.88 4.18 10.6 1.55 18.42.75 20.35 4.93 5.39 7.91 12.25 7.91 20.64 0 29.54-17.99 36.04-35.12 37.95 2.76 2.39 5.22 7.07 5.22 14.24 0 10.29-.09 18.57-.09 21.11 0 2.05 1.38 4.45 5.28 3.69 30.54-10.18 52.54-38.99 52.54-72.95-.01-42.48-34.43-76.9-76.9-76.9z" clip-rule="evenodd"/>
    <path d="M102.49 821.102c-.17.383-.77.496-1.318.234-.558-.25-.87-.77-.69-1.154.166-.393.768-.504 1.325-.24.557.25.876.777.683 1.16zm3.114 3.474c-.366.34-1.084.182-1.57-.355-.504-.53-.597-1.25-.225-1.59.37-.34 1.07-.18 1.57.36.5.55.6 1.26.22 1.6zm3.034 4.43c-.47.327-1.242.02-1.718-.667-.473-.69-.473-1.51.01-1.84.476-.33 1.235-.03 1.72.64.467.69.467 1.51-.014 1.85zm4.153 4.276c-.42.465-1.32.34-1.97-.295-.67-.617-.86-1.498-.44-1.963.43-.467 1.33-.336 2 .293.67.62.87 1.504.42 1.965zm5.73 2.485c-.18.602-1.05.875-1.92.62-.87-.265-1.44-.968-1.26-1.577.18-.605 1.05-.89 1.93-.615.87.26 1.44.962 1.26 1.574zm6.3.462c.02.63-.71 1.16-1.63 1.17-.92.02-1.66-.5-1.67-1.12 0-.64.72-1.16 1.64-1.18.92-.02 1.67.49 1.67 1.12zm5.86-1c.11.61-.52 1.25-1.43 1.42-.89.16-1.72-.22-1.83-.84-.11-.64.54-1.27 1.43-1.43.91-.16 1.73.21 1.84.84zm0 0"/>
  </g>
  <path fill="#FFF" d="M533.86 710.89H405.994c-6.11 0-11.075 4.842-11.075 10.812v128.36c0 5.978 4.96 10.827 11.07 10.827h127.87c6.11 0 11.1-4.85 11.1-10.83V721.7c0-5.97-4.99-10.812-11.11-10.812zm-94.44 127.82h-22.255v-71.586h22.256v71.586zm-11.12-81.37c-7.132 0-12.906-5.78-12.906-12.905 0-7.115 5.774-12.895 12.906-12.895 7.115 0 12.896 5.78 12.896 12.895 0 7.125-5.78 12.904-12.896 12.904zm94.477 81.37h-22.24V803.9c0-8.308-.152-18.985-11.564-18.985-11.58 0-13.353 9.043-13.353 18.38v35.415h-22.24v-71.586h21.347v9.78h.297c2.97-5.626 10.23-11.56 21.057-11.56 22.54 0 26.7 14.824 26.7 34.1v39.266z"/>
</svg>
