<svg xmlns="http://www.w3.org/2000/svg" width="300" height="300" viewBox="0 0 300 300">
  <path fill="#F00" d="M-816.354 74.186l-76.354 57.023v90.67H-740v-90.67l-76.354-57.03zm-21.124 40.67c2.238-4.084 5.317-7.164 9.237-9.2 3.93-2.087 8.41-3.13 13.42-3.13 4.27 0 8.05.84 11.39 2.48 3.27 1.694 5.81 4.022 7.59 7.115 1.74 3.03 2.63 6.37 2.63 9.99 0 4.33-1.34 8.2-4.02 11.74-3.34 4.37-7.61 6.56-12.83 6.56-1.39 0-2.44-.19-3.19-.68-.7-.49-1.2-1.24-1.39-2.19-2 1.94-4.33 2.93-6.91 2.93-2.84 0-5.13-.99-7.02-2.93-1.84-1.94-2.79-4.53-2.79-7.71 0-4.02 1.14-7.6 3.38-10.88 2.68-4.03 6.16-6.02 10.38-6.02 3.04 0 5.27 1.15 6.67 3.44l.63-2.78h6.72l-3.83 18.2c-.24 1.13-.35 1.89-.35 2.23 0 .46.1.75.29.95.2.19.39.29.7.29.79 0 1.83-.44 3.13-1.44 1.74-1.29 3.13-3.02 4.17-5.16 1.09-2.19 1.64-4.43 1.64-6.77 0-4.12-1.49-7.64-4.53-10.43-3.03-2.78-7.26-4.22-12.63-4.22-4.57 0-8.5.94-11.68 2.84-3.19 1.83-5.57 4.52-7.21 7.9-1.64 3.37-2.43 6.91-2.43 10.59 0 3.58.94 6.81 2.72 9.73 1.8 2.94 4.33 5.08 7.56 6.42 3.28 1.35 7.01 2.04 11.24 2.04 4.02 0 7.51-.54 10.38-1.68 2.94-1.14 5.27-2.84 7.06-5.07h5.42c-1.69 3.44-4.33 6.12-7.82 8.11-4.02 2.19-8.89 3.33-14.66 3.33-5.61 0-10.43-.95-14.47-2.83-4.07-1.89-7.1-4.67-9.08-8.35-2-3.68-2.99-7.71-2.99-12.04 0-4.77 1.14-9.19 3.38-13.31m-49.8 18.09L-831 170.8l-56.374 43.6V133zm4.27 84.31l66.71-51.59 66.7 51.59H-883.1zm137.69-2.93l-56.38-43.59 56.39-37.79v81.38zm-68.2-95.34c.89 1 1.34 2.49 1.34 4.37 0 1.75-.346 3.59-.99 5.58-.65 1.99-1.44 3.48-2.34 4.52-.588.7-1.238 1.25-1.887 1.59-.84.46-1.74.7-2.73.7-1.28 0-2.33-.49-3.23-1.54-.89-.99-1.28-2.58-1.28-4.72 0-1.59.29-3.48.94-5.57.6-2.08 1.54-3.62 2.79-4.77 1.23-1.13 2.58-1.68 4.02-1.68 1.35 0 2.48.5 3.39 1.54"/>
  <g fill="#F00">
    <path d="M-502.71 143.732l69.216-47.215H-571.08c-.077 0-.148.02-.224.02l68.593 47.195z"/>
    <path d="M-426.223 101.536l-72.126 49.198c-.61.452-2.18 1.42-4.28 1.42-2.14 0-3.84-1.02-4.31-1.33l-71.21-48.995c-.2.67-.34 1.36-.34 2.1v88.19c0 4.09 3.33 7.41 7.42 7.41h137.87c4.1 0 7.42-3.32 7.42-7.42v-88.19c0-.85-.17-1.64-.43-2.4m-85.87 57.57l-56.1 34.03c-1.81 1.1-3.95.9-4.76-.45-.82-1.34 0-3.33 1.81-4.43l56.1-34.03c1.82-1.1 3.95-.9 4.77.44.82 1.35.01 3.33-1.81 4.43m80.76 33.58c-.81 1.35-2.95 1.55-4.76.45l-56.11-34.03c-1.81-1.1-2.63-3.09-1.81-4.44.82-1.34 2.95-1.54 4.77-.44l56.1 34.02c1.82 1.1 2.63 3.08 1.81 4.43"/>
  </g>
  <g fill="#FF4810">
    <path d="M-114.338 135.555l-57.516 41.015-57.518-41.015-18.837-13.43V210H-95.5v-87.874"/>
    <path d="M-231.983 130.036l57.518 40.995c.778.57 1.694.86 2.61.86.917 0 1.833-.29 2.64-.86l57.51-40.99c1.185-.86 1.888-2.23 1.888-3.68v-37.6c0-2.5-2.018-4.52-4.52-4.52H-229.37c-2.502 0-4.522 2.02-4.522 4.52v37.6c0 1.48.73 2.86 1.91 3.69m7.136-36.76h105.98v30.74l-52.99 37.79-52.99-37.79V93.27z"/>
    <path d="M-206.952 112.625h67.342c2.715 0 4.926-2.205 4.926-4.927 0-2.715-2.21-4.898-4.926-4.898h-67.342c-2.715 0-4.926 2.184-4.926 4.898 0 2.722 2.21 4.927 4.926 4.927m72.268 12.167c0-2.693-2.212-4.898-4.926-4.898h-67.343c-2.715 0-4.927 2.178-4.927 4.898 0 2.715 2.212 4.927 4.927 4.927h67.343c2.714 0 4.926-2.22 4.926-4.93"/>
  </g>
  <g fill="#FFF">
    <path d="M153.663 133.733c-2.588 0-4.973.724-7.165 2.196-2.2 1.46-4.095 3.34-5.69 5.66-1.592 2.33-2.823 4.92-3.676 7.8-.868 2.88-1.294 5.69-1.294 8.44 0 2.84.577 5.15 1.74 6.97 1.166 1.79 3.17 2.7 6.014 2.7 1.196 0 2.504-.37 3.873-1.1 1.376-.73 2.702-1.69 4.01-2.91 1.282-1.2 2.533-2.57 3.742-4.12 1.197-1.55 2.277-3.18 3.23-4.9l3.23-17.79c-1.124-.95-2.29-1.68-3.487-2.2-1.21-.52-2.716-.77-4.527-.77"/>
    <path d="M150.5 75.496c-41.508 0-75.153 33.58-75.153 74.992 0 41.425 33.646 75.008 75.153 75.008 41.507 0 75.146-33.583 75.146-75.008 0-41.413-33.64-74.992-75.146-74.992m48.066 93.962c-3.402 3.52-7.374 6.316-11.884 8.38-4.522 2.06-9.382 3.094-14.536 3.094-2.16 0-4.157-.234-6.01-.717-1.86-.47-3.41-1.26-4.65-2.378-1.252-1.12-2.184-2.585-2.785-4.387-.6-1.804-.77-4.047-.51-6.703h-.52c-1.28 1.804-2.68 3.563-4.19 5.282-1.51 1.71-3.17 3.24-4.97 4.57-1.8 1.33-3.79 2.39-5.94 3.15-2.16.77-4.52 1.16-7.1 1.16-2.07 0-4.05-.46-5.96-1.36-1.88-.91-3.52-2.18-4.9-3.8-1.37-1.63-2.48-3.62-3.29-5.94-.82-2.33-1.22-4.9-1.22-7.74 0-5.34.86-10.51 2.58-15.54 1.74-5.03 4.08-9.48 7.06-13.34 2.98-3.88 6.42-6.98 10.34-9.35 3.92-2.36 8.08-3.55 12.46-3.55 3.02 0 5.56.45 7.63 1.36 2.07.91 3.96 2.08 5.69 3.54l4-4.13h9.05l-6.2 34.94c-.68 4.04-.71 6.96-.06 8.77.66 1.8 2.09 2.7 4.34 2.7 2.23 0 4.44-.52 6.59-1.55 2.15-1.03 4.09-2.62 5.82-4.77 1.71-2.15 3.12-4.85 4.19-8.11 1.09-3.28 1.62-7.14 1.62-11.61 0-6.45-1.08-11.95-3.23-16.51-2.16-4.55-5.11-8.32-8.85-11.27-3.74-2.97-8.16-5.15-13.24-6.52-5.08-1.38-10.56-2.07-16.41-2.07-6.71 0-12.96 1.2-18.74 3.6-5.77 2.41-10.78 5.72-15.06 9.93-4.25 4.22-7.59 9.22-10.01 15.03-2.4 5.79-3.61 12.1-3.61 18.89 0 6.7 1.02 12.72 3.04 18.05 2.02 5.34 4.97 9.86 8.86 13.61 3.87 3.74 8.68 6.62 14.41 8.63 5.72 2.02 12.29 3.03 19.7 3.03 2.51 0 5.34-.3 8.54-.9 3.18-.61 6.07-1.5 8.66-2.71l3.998 12.38c-3.52 1.72-7.12 2.91-10.78 3.61-3.66.68-7.85 1.03-12.6 1.03-8.36 0-16.09-1.21-23.19-3.62-7.1-2.4-13.27-5.97-18.48-10.7-5.21-4.73-9.29-10.6-12.2-17.6-2.937-7-4.4-15.11-4.4-24.3 0-9.37 1.68-17.85 5.04-25.42 3.36-7.56 7.89-14 13.57-19.34 5.68-5.33 12.28-9.43 19.763-12.32 7.493-2.87 15.42-4.31 23.77-4.31 7.926 0 15.29 1.13 22.09 3.41 6.81 2.27 12.704 5.54 17.71 9.8 4.994 4.26 8.91 9.46 11.755 15.6 2.84 6.15 4.26 13.127 4.26 20.95 0 5.51-.97 10.666-2.91 15.48-1.94 4.81-4.61 8.98-8.01 12.51"/>
  </g>
  <path fill="#231F20" d="M524.75 277.87l46.105-46.107V63.44c0-20.493-6.587-33.666-28.542-33.666H403.995s-30.006 5.123-30.006 27.08v179.3c0 21.223 4.39 41.715 31.47 41.715h119.29z"/>
  <path fill="#FFF" d="M509.053 261.402v-20.308s6.586-25.798 23.603-25.798h22.504v-147.1s3.842-23.053-16.467-23.053h-127.89c-16.467 0-21.406 2.195-21.406 18.113v181.13s2.195 17.016 18.662 17.016h100.99z"/>
  <path fill="#231F20" d="M429.46 104.807c-1.448 1.004-4.706 2.08-8.947 2.08-12.048 0-18.255-10.395-18.255-24.157 0-16.485 8.48-25.66 19.03-25.66 4.088 0 7.187 1.146 8.586 2.15l-1.605 8.673c-1.6-.934-3.83-1.792-6.62-1.792-6.26 0-11.12 5.24-11.12 15.99 0 9.68 4.13 15.77 11.17 15.77 2.38 0 5.01-.71 6.56-1.58l1.19 8.53zm13.876 1.363L432.17 57.858h8.635l4.24 20.428c1.19 5.734 2.274 11.256 3.1 17.276h.156c.89-5.808 1.97-11.542 3.16-17.06l4.45-20.645h8.38l-11.74 48.312h-9.2zm-41.766 60.04h141.06v12.074H401.57zm0 17.29h141.06v4.94H401.57zm0 10.336h141.06v4.94H401.57zm0 10.338h141.06v4.94H401.57zm0 10.336h109.5v4.94h-109.5zm0 10.704h100.17v4.94H401.57zm0 11.8h100.17v4.94H401.57zm.643-118.374h141.062v12.075H402.213zm0 17.29h141.062v4.94H402.213zm0 10.702H505.22v4.94H402.213z"/>
  <g fill="#E8BD47">
    <path d="M-188.628 377.548h32.744c7.033 0 12.734 5.7 12.734 12.733v12.01h14.067v-24.62c0-7.03-5.7-12.73-12.733-12.73h-60.88c-7.033 0-12.734 5.7-12.734 12.74v24.62h14.068v-12.01c0-7.03 5.7-12.73 12.734-12.73zm.213 98.456c.968-3.48 4.125-6.045 7.91-6.045h16.495c3.786 0 6.943 2.56 7.91 6.04l101.236-32.03v-10.64c0-14.07-11.402-25.47-25.467-25.47h-183.86c-14.07 0-25.47 11.4-25.47 25.47v10.63L-188.43 476z"/>
    <path d="M-155.764 484.5v16.99c0 4.555-3.69 8.246-8.246 8.246h-16.494c-4.554 0-8.247-3.69-8.247-8.246V484.5l-100.9-32.713v94.574c0 14.07 11.4 25.47 25.46 25.47h183.86c14.06 0 25.46-11.4 25.46-25.47v-94.57l-100.9 32.72z"/>
    <path d="M-183.632 474.143h22.75c.5 0 .907.405.907.905v29.842c0 .5-.406.906-.906.906h-22.76c-.5 0-.91-.405-.91-.906v-29.842c0-.5.4-.905.9-.905z"/>
  </g>
  <path fill="#231F20" d="M33.068 421.745s10.853 2.656 26.378 6.23v30.585h-1.952c-.715 0-1.312.544-1.377 1.255l-6.82 73.638c-.076.81.562 1.51 1.376 1.51h24.622c.836 0 1.48-.734 1.372-1.562l-9.662-73.63c-.09-.69-.677-1.2-1.37-1.2H64.46l-1.138-29.69c11.754 2.69 25.69 5.78 39.485 8.62-9.663 11.7-23.676 30.05-19.316 33.21 6.49 4.72 42.09 2.36 70.29 27.13 6.97 2.95 45.3-28.3 80.09-27.71 4.16-.38-7.94-19.19-20.57-33.72 30.84-8.54 61.2-19.35 61.2-19.35l-120.71-23.59-120.71 28.3zm430.035 52.912c-24.573 10.124-56.536 14.882-56.536 14.882l14.088 7.92-8.6 13.41c15.865-3.17 30.437-9.92 42.184-16.86-12.86 14.75-27.64 26.18-27.64 26.18l14.82.18.49 14.95c21.59-18.17 32.15-36.03 37.32-49.06-5.16-4.16-10.58-8.03-16.14-11.63zm129.745 19.61c-5.68-10.813-52.26-22.563-78.056-41.65-2.23-1.65-4.794-3.596-7.61-5.756-13.134 12.51-21.487 29.33-26.083 40.93 4.81 4 9.36 8.24 13.53 12.75 41.09 44.44 67.81 54.05 78.95 45.24 11.14-8.81 24.93-40.69 19.25-51.5zm-98.44-57.27l.233.18-.23-.18zm-5.638-4.357l2.512 1.94c-31.187-24.098-74.39-56.767-83.27-50.152 0 0-28.21 13.835-32.504 52.554 0 0 45.094 11.048 84.773 35.866 4.25-21.11 18.96-33.93 28.49-40.207zm2.545 1.966l2.138 1.653-2.138-1.66z"/>
  <path fill="#0B80E0" d="M-784.51 849.205l.096-.016-14.748-73.71h4.882c2.75 0 4.974-2.23 4.974-4.98s-2.225-4.98-4.974-4.98h-6.87l-8.135-40.7-.097.02c-.024-.1-.034-.2-.06-.29l22.603-19.38-.03-.07c1.5-.86 2.55-2.41 2.55-4.25 0-13.74-17.81-24.87-39.79-24.87s-39.79 11.13-39.79 24.87c0 1.84 1.05 3.39 2.55 4.25l-.04.07 22.6 19.37c-.02.09-.03.19-.06.29l-.09-.02-24.87 124.35.1.01c-.05.29-.18.58-.18.89 0 1.25.51 2.37 1.28 3.24l-.04.03 34.82 39.79.04-.04c.9 1.04 2.21 1.73 3.7 1.73s2.79-.69 3.7-1.74l.04.03 34.82-39.8-.04-.04c.77-.87 1.28-1.99 1.28-3.24 0-.31-.12-.59-.18-.89m-69.18-150.26c1.9-7.33 14.4-12.99 29.57-12.99s27.67 5.66 29.57 12.99l-29.57 25.35-29.56-25.35zm29.57 183.39l-29.46-33.67 23.35-116.75 2.44 2.09c.21.23.45.41.69.59l.52.44.04-.06c.73.42 1.53.72 2.43.72s1.7-.3 2.43-.72l.04.06.52-.44c.24-.19.49-.36.69-.59l2.43-2.09 6.73 33.62h-12.84c-2.75 0-4.97 2.22-4.97 4.97 0 2.75 2.23 4.97 4.98 4.97h14.82l14.64 73.18-29.47 33.67zm471.1-136.34c0-2.48-1.47-4.57-3.56-5.58l.02-.04-.18-.07c-.06-.03-.12-.05-.17-.07l-130.22-49.61-.02.03c-.81-.39-1.69-.64-2.65-.64s-1.84.25-2.65.64l-.02-.04-130.21 49.6c-.07.02-.13.04-.18.07l-.19.07.02.03c-2.1 1-3.57 3.09-3.57 5.57s1.47 4.57 3.57 5.57l-.02.03.19.07.18.06 11.67 4.45-7.88 59.14c-4.52 1.86-7.7 6.3-7.7 11.49 0 6.864 5.56 12.433 12.44 12.433 6.86 0 12.44-5.57 12.44-12.44 0-4-1.92-7.52-4.85-9.79l7.51-56.29 20.89 7.96-11.05 88.39.11.02c-.047.27-.17.51-.17.8 0 3.44 2.78 6.22 6.22 6.22.474 0 .887-.14 1.324-.244l.02.107 46.81-11.7 41.39 35.48.06-.08c1.04.78 2.27 1.32 3.66 1.32 1.274 0 2.4-.48 3.39-1.14l.06.1 47.65-35.74 47.04 11.77.023-.12c.43.09.85.26 1.32.26 3.44 0 6.22-2.78 6.22-6.22 0-.4-.14-.755-.2-1.13l.09-.02-16.55-88.32 43.84-16.705c.05-.02.11-.04.18-.06l.18-.08-.02-.03c2.09-1.01 3.56-3.1 3.56-5.58m-45.2 103.54l-40.5-10.13-.03.12c-.44-.1-.85-.27-1.33-.27-1.277 0-2.4.48-3.39 1.14l-.06-.09-46.04 34.53-40.06-34.33-.06.09c-1.04-.79-2.26-1.33-3.66-1.33-.47 0-.89.17-1.326.26l-.02-.12-41.1 10.275 9.55-76.43 73.75 28.09.02-.035c.81.39 1.69.64 2.65.64s1.85-.256 2.655-.645l.02.036 74.56-28.4 14.36 76.59zm-91.6-60.43l-113.16-43.11 113.17-43.11 113.17 43.11-113.17 43.11zm-261.67 271.27c-.84 0-1.6.34-2.16.894l-55.89 52.95-55.89-52.95c-.55-.56-1.315-.9-2.16-.9-1.69 0-3.055 1.36-3.055 3.05 0 .846.34 1.61.89 2.16l58.06 55c.55.556 1.316.896 2.16.896.845 0 1.61-.34 2.16-.9l58.05-55c.55-.555.89-1.318.89-2.16 0-1.69-1.362-3.06-3.05-3.06m308.82 55.89l-58.056-55c-.55-.55-1.32-.89-2.16-.89-.84 0-1.61.342-2.16.895l-58.06 55c-.55.555-.89 1.315-.89 2.16 0 1.69 1.37 3.055 3.054 3.055.85 0 1.61-.34 2.16-.89l55.9-52.95 55.89 52.95c.55.555 1.318.895 2.16.895 1.69 0 3.06-1.36 3.06-3.05 0-.84-.34-1.6-.9-2.16m233.15-25.34l52.95-55.89c.56-.55.9-1.313.9-2.16 0-1.69-1.37-3.053-3.06-3.053-.85 0-1.61.34-2.16.897l-55 58.05c-.55.56-.9 1.32-.9 2.16 0 .85.34 1.61.9 2.16l55 58.06c.56.56 1.32.9 2.16.9 1.69 0 3.06-1.37 3.06-3.06 0-.84-.34-1.6-.89-2.16l-52.95-55.89zm389.72-2.16l-55-58.05c-.55-.55-1.31-.893-2.16-.893-1.69 0-3.05 1.37-3.05 3.058 0 .844.34 1.61.89 2.16l52.95 55.893-52.95 55.9c-.55.556-.89 1.32-.89 2.16 0 1.69 1.37 3.057 3.06 3.057.84 0 1.61-.34 2.16-.89l55-58.05c.55-.55.9-1.317.9-2.16s-.344-1.607-.896-2.16m367.12-356.65c0-2.286-1.85-4.14-4.14-4.14-1.18 0-2.23.504-2.99 1.296l-.01-.01L431.43 842l-59.07-59.075c-.75-.75-1.79-1.215-2.93-1.215-2.28 0-4.13 1.85-4.13 4.136 0 1.146.46 2.18 1.21 2.927l62.06 62.06c.75.75 1.785 1.21 2.926 1.21 1.18 0 2.22-.5 2.97-1.29l.02.01 111.7-115.84-.02-.015c.71-.732 1.16-1.73 1.16-2.84M471.05 1110l78.036-78.037c.87-.865 1.4-2.063 1.4-3.387 0-2.643-2.14-4.79-4.79-4.79-1.32 0-2.52.538-3.39 1.405l-78.034 78.04-78.03-78.03c-.87-.86-2.067-1.4-3.39-1.4-2.65 0-4.79 2.15-4.79 4.79 0 1.32.53 2.52 1.4 3.39l78.04 78.03-78.04 78.04c-.87.87-1.4 2.07-1.4 3.39 0 2.65 2.14 4.79 4.79 4.79 1.32 0 2.52-.53 3.385-1.4l78.04-78.03 78.035 78.04c.87.87 2.062 1.41 3.382 1.41 2.643 0 4.79-2.14 4.79-4.79 0-1.32-.54-2.52-1.41-3.38l-78.03-78.06zm-570.7-386.114h-53.22c0-9.797-7.943-17.74-17.74-17.74h-35.482c-9.796 0-17.74 7.943-17.74 17.74h-53.22c-4.895 0-8.87 3.977-8.87 8.878v44.344c0 4.897 3.98 8.87 8.87 8.87v70.963c0 4.9 3.98 8.87 8.87 8.87h159.67c4.9 0 8.87-3.97 8.87-8.87v-70.96c4.9 0 8.87-3.97 8.87-8.87v-44.34c0-4.9-3.97-8.87-8.87-8.87m-106.44-8.87h35.48c4.89 0 8.87 3.98 8.87 8.87h-53.22c0-4.89 3.97-8.86 8.87-8.86m97.57 141.92h-159.67V786h17.74v8.874c0 4.89 3.977 8.864 8.87 8.864h17.74c4.9 0 8.87-3.973 8.87-8.863V786h53.22v8.873c0 4.89 3.98 8.863 8.87 8.863h17.74c4.9 0 8.87-3.976 8.87-8.866v-8.878h17.746v70.96zm-133.06-88.7h17.74v26.62h-17.74v-26.62zm88.706 0h17.74v26.62h-17.74v-26.62zm53.22 8.87h-26.61v-8.87c0-4.89-3.975-8.87-8.87-8.87h-17.74c-4.894 0-8.87 3.98-8.87 8.87v8.87h-53.222v-8.87c0-4.89-3.97-8.87-8.87-8.87h-17.74c-4.89 0-8.87 3.98-8.87 8.87v8.87h-26.61v-44.35h177.41v44.35zm-304.21-381.89h-87.59c-19.463 0-19.463-19.46-38.93-19.46h-48.66c-10.75 0-19.464 8.71-19.464 19.46v136.25c0 10.76 8.72 19.47 19.47 19.47h175.18c10.75 0 19.466-8.71 19.466-19.46V414.7c0-10.75-8.715-19.464-19.46-19.464m9.73 136.26c0 5.38-4.367 9.73-9.736 9.73h-175.18c-5.37 0-9.735-4.352-9.735-9.73v-97.33h194.65v97.323zm0-107.05h-194.65v-29.21c0-5.37 4.36-9.73 9.73-9.73h48.663c14.59 0 14.59 19.468 38.93 19.468h87.59c5.37 0 9.73 4.357 9.73 9.73v9.736zm549.6 314.976c-5.62 0-10.184 4.565-10.184 10.187l5.09 56c0 2.82 2.288 5.09 5.1 5.09 2.81 0 5.09-2.28 5.09-5.1l5.09-56.01c0-5.62-4.565-10.19-10.185-10.19m0 81.46c-5.62 0-10.184 4.56-10.184 10.18s4.56 10.18 10.18 10.18 10.18-4.57 10.18-10.19c0-5.62-4.563-10.19-10.183-10.19m109.4 20.56l-91.64-142.56s-4.705-10.38-17.754-10.38c-12.277 0-17.753 10.38-17.753 10.38l-91.65 142.57s-2.614 3.37-2.614 9.98c0 11.25 9.12 20.37 20.37 20.37h183.3c11.25 0 20.37-9.12 20.37-20.37 0-7.11-2.61-9.99-2.61-9.99m-17.75 20.17H63.84c-5.62 0-10.185-4.57-10.185-10.19 0-2.13.45-3.43.686-3.95.18-.19 0-.05.31-.53l91.65-142.56c.16-.25.31-.5.45-.76.03-.05 2.88-4.95 8.74-4.95s8.18 3.85 8.48 4.4c.25.62.35.74.72 1.31l91.65 142.57c.13.21.27.4.41.6.15.36.58 1.57.58 3.88 0 5.62-4.57 10.19-10.18 10.19M-817.01 504.67c-4.888-1.988-7.023-3.13-7.023-5.71 0-2.11 1.8-3.915 5.507-3.915 3.71 0 6.405 1.137 7.92 1.925l1.917-7.39c-2.25-1.078-5.39-2.046-9.66-2.046-8.93 0-14.32 5.287-14.32 12.196 0 5.89 4.1 9.624 10.4 11.968 4.55 1.736 6.35 3.183 6.35 5.707 0 2.644-2.07 4.385-6 4.385-3.65 0-7.2-1.263-9.5-2.525l-1.74 7.567c2.14 1.267 6.41 2.47 10.73 2.47 10.4 0 15.29-5.77 15.29-12.56 0-5.713-3.15-9.434-9.84-12.077m-33.79-16.77c-5.22 0-8.93.36-11.57.848v39.954h8.48v-14.48c.78.12 1.8.18 2.92.18 5.06 0 9.39-1.322 12.31-4.265 2.25-2.285 3.48-5.647 3.48-9.617 0-3.966-1.63-7.323-4.04-9.373-2.52-2.165-6.29-3.247-11.57-3.247m-.22 19.473c-1.24 0-2.13-.06-2.87-.24v-11.96c.62-.18 1.8-.36 3.54-.36 4.27 0 6.69 2.223 6.69 5.945 0 4.15-2.81 6.613-7.36 6.613m75.18-142.11h-112.4c-11.28 0-20.43 9.138-20.43 20.43v183.87c0 11.29 9.15 20.44 20.43 20.44h143.01c11.29 0 20.43-9.148 20.43-20.44V421.444l-51.07-56.185zm40.86 204.3c0 5.645-4.57 10.214-10.21 10.214H-888.2c-5.636 0-10.214-4.57-10.214-10.215V385.69c0-5.645 4.58-10.215 10.214-10.215h91.94v51.078c0 5.637 4.58 10.205 10.215 10.205h51.078v132.8zm-51.08-143.006v-51.077h5.11l45.97 51.078h-51.08zm-15.01 62.19v39.776c2.13.3 5.28.598 9.72.598 7.42 0 13.49-1.676 17.47-5.227 3.66-3.304 6.3-8.65 6.3-16.402 0-7.153-2.47-12.14-6.41-15.264-3.65-2.94-8.31-4.33-15.5-4.33-4.33.01-8.43.3-11.57.85m24.38 19.05c0 9.68-5.05 14.24-12.81 14.18-1.06 0-2.25 0-2.98-.18v-26.5c.73-.18 1.97-.36 3.88-.36 7.37 0 11.98 4.45 11.92 12.86"/>
  <path fill="#FFF" d="M-848.343 1370.486c5.328 0 10.136.457 14.53 1.393 4.37.91 8.1 2.43 11.25 4.52 3.103 2.09 5.53 4.86 7.27 8.37 1.7 3.44 2.55 7.76 2.55 12.87 0 5.52-1.273 10.13-3.817 13.82-2.564 3.67-6.332 6.7-11.367 9.04 6.856 1.94 11.933 5.35 15.3 10.21 3.38 4.89 5.04 10.74 5.04 17.6 0 5.56-1.084 10.35-3.244 14.37-2.19 4.08-5.15 7.38-8.81 9.93-3.69 2.57-7.93 4.46-12.68 5.69-4.69 1.23-9.57 1.84-14.56 1.84h-53.99v-109.68h52.51zm-3.172 44.313c4.345 0 7.942-1.02 10.792-3.08 2.82-2.03 4.188-5.38 4.188-9.98 0-2.55-.455-4.66-1.368-6.3-.945-1.64-2.197-2.92-3.78-3.82-1.568-.94-3.34-1.58-5.397-1.93-2.02-.39-4.14-.54-6.308-.54h-22.944v25.62h24.817zm1.354 46.68c2.42 0 4.71-.21 6.87-.69 2.19-.47 4.14-1.22 5.78-2.33 1.64-1.06 3-2.52 3.98-4.38.99-1.84 1.46-4.23 1.46-7.11 0-5.66-1.62-9.67-4.83-12.11-3.22-2.4-7.51-3.6-12.79-3.6h-26.67v30.2h26.17zm77.53-.37c3.31 3.19 8.11 4.8 14.32 4.8 4.47 0 8.33-1.12 11.57-3.33 3.21-2.22 5.16-4.59 5.92-7.04h19.51c-3.14 9.55-7.9 16.38-14.38 20.49-6.42 4.13-14.24 6.18-23.36 6.18-6.35 0-12.07-1.01-17.21-3.01-5.13-2.02-9.42-4.85-13.02-8.54-3.52-3.71-6.25-8.09-8.19-13.24-1.93-5.12-2.9-10.79-2.9-16.93 0-5.94 1-11.49 2.97-16.62 2.01-5.15 4.79-9.59 8.45-13.31 3.66-3.75 8.01-6.7 13.07-8.86 5.06-2.15 10.64-3.23 16.81-3.23 6.82 0 12.8 1.29 17.92 3.92 5.1 2.6 9.29 6.12 12.57 10.52 3.29 4.4 5.62 9.42 7.09 15.07 1.45 5.63 1.96 11.51 1.54 17.68h-58.2c0 6.27 2.15 12.22 5.48 15.41zm25.45-41.72c-2.63-2.87-7.09-4.43-12.53-4.43-3.54 0-6.47.58-8.82 1.78-2.29 1.18-4.17 2.65-5.61 4.37-1.43 1.75-2.41 3.61-2.97 5.59-.57 1.93-.91 3.69-1.01 5.23h36.04c-.53-5.56-2.47-9.68-5.11-12.56zm-35.47-41.56h45.15v10.82h-45.15z"/>
  <g fill="#FFF">
    <path fill-rule="evenodd" d="M-489.737 1350.69c-42.464 0-76.898 34.43-76.898 76.9 0 33.976 22.034 62.802 52.588 72.968 3.842.71 5.254-1.668 5.254-3.697 0-1.83-.07-7.89-.104-14.31-21.394 4.66-25.907-9.07-25.907-9.07-3.498-8.88-8.538-11.25-8.538-11.25-6.978-4.77.526-4.67.526-4.67 7.72.54 11.788 7.93 11.788 7.93 6.858 11.76 17.99 8.36 22.378 6.39.69-4.97 2.682-8.36 4.882-10.28-17.08-1.94-35.037-8.53-35.037-38 0-8.4 3.005-15.26 7.924-20.64-.8-1.94-3.44-9.76.74-20.35 0 0 6.46-2.06 21.15 7.89 6.13-1.7 12.71-2.56 19.25-2.59 6.53.03 13.12.89 19.26 2.59 14.67-9.95 21.12-7.88 21.12-7.88 4.18 10.6 1.55 18.42.75 20.35 4.93 5.39 7.91 12.25 7.91 20.64 0 29.54-17.99 36.04-35.12 37.95 2.76 2.39 5.22 7.07 5.22 14.24 0 10.29-.09 18.57-.09 21.11 0 2.05 1.38 4.45 5.28 3.69 30.54-10.18 52.54-38.99 52.54-72.95-.01-42.48-34.43-76.9-76.9-76.9z" clip-rule="evenodd"/>
    <path d="M-537.51 1461.102c-.17.383-.77.496-1.318.234-.558-.25-.87-.77-.69-1.154.166-.393.768-.504 1.325-.24.557.25.876.777.683 1.16zm3.114 3.474c-.366.34-1.084.182-1.57-.355-.504-.53-.597-1.25-.225-1.59.37-.34 1.07-.18 1.57.36.5.55.6 1.26.22 1.6zm3.034 4.43c-.47.327-1.242.02-1.718-.667-.473-.69-.473-1.51.01-1.84.476-.33 1.235-.03 1.72.64.467.69.467 1.51-.014 1.85zm4.153 4.276c-.42.465-1.32.34-1.97-.295-.67-.617-.86-1.498-.44-1.963.43-.467 1.33-.336 2 .293.67.62.87 1.504.42 1.965zm5.73 2.485c-.18.602-1.05.875-1.92.62-.87-.265-1.44-.968-1.26-1.577.18-.605 1.05-.89 1.93-.615.87.26 1.44.962 1.26 1.574zm6.3.462c.02.63-.71 1.16-1.63 1.17-.92.02-1.66-.5-1.67-1.12 0-.64.72-1.16 1.64-1.18.92-.02 1.67.49 1.67 1.12zm5.86-1c.11.61-.52 1.25-1.43 1.42-.89.16-1.72-.22-1.83-.84-.11-.64.54-1.27 1.43-1.43.91-.16 1.73.21 1.84.84zm0 0"/>
  </g>
  <path fill="#FFF" d="M-106.14 1350.89h-127.865c-6.11 0-11.075 4.842-11.075 10.812v128.36c0 5.978 4.964 10.827 11.075 10.827h127.864c6.11 0 11.1-4.85 11.1-10.83V1361.7c0-5.97-4.99-10.812-11.11-10.812zm-94.44 127.82h-22.255v-71.586h22.256v71.586zm-11.122-81.37c-7.132 0-12.906-5.78-12.906-12.905 0-7.115 5.774-12.895 12.906-12.895 7.115 0 12.896 5.78 12.896 12.895 0 7.125-5.78 12.904-12.896 12.904zm94.477 81.37h-22.24v-34.81c0-8.308-.152-18.985-11.564-18.985-11.58 0-13.35 9.043-13.35 18.38v35.415h-22.24v-71.586h21.35v9.78h.3c2.97-5.626 10.23-11.56 21.06-11.56 22.54 0 26.7 14.824 26.7 34.1v39.266z"/>
</svg>
