<?xml version="1.0" encoding="utf-8"?>
<!-- Generator: Adobe Illustrator 16.0.4, SVG Export Plug-In . SVG Version: 6.00 Build 0)  -->
<!DOCTYPE svg PUBLIC "-//W3C//DTD SVG 1.1//EN" "http://www.w3.org/Graphics/SVG/1.1/DTD/svg11.dtd">
<svg version="1.1" id="Layer_1" xmlns="http://www.w3.org/2000/svg" xmlns:xlink="http://www.w3.org/1999/xlink" x="0px" y="0px"
	 width="300px" height="300px" viewBox="0 0 300 300" enable-background="new 0 0 300 300" xml:space="preserve">
<rect x="320" y="-1276.558" display="none" fill="#0B63FF" width="300" height="300"/>
<path id="Email_icon_1" fill="#FF0000" d="M-496.354-1202.372l-76.354,57.023v90.671H-420v-90.671L-496.354-1202.372z
	 M-517.478-1161.7c2.238-4.085,5.317-7.165,9.237-9.201c3.934-2.087,8.412-3.13,13.427-3.13c4.275,0,8.055,0.84,11.389,2.481
	c3.271,1.693,5.816,4.021,7.597,7.114c1.744,3.028,2.636,6.362,2.636,9.989c0,4.327-1.336,8.196-4.022,11.734
	c-3.334,4.364-7.609,6.553-12.827,6.553c-1.387,0-2.431-0.191-3.181-0.687c-0.701-0.496-1.197-1.247-1.388-2.189
	c-1.998,1.934-4.326,2.927-6.91,2.927c-2.838,0-5.128-0.993-7.013-2.927c-1.845-1.947-2.786-4.53-2.786-7.712
	c0-4.021,1.146-7.597,3.386-10.88c2.685-4.034,6.159-6.019,10.384-6.019c3.041,0,5.268,1.145,6.668,3.436l0.636-2.787h6.72
	l-3.83,18.197c-0.242,1.133-0.344,1.884-0.344,2.228c0,0.457,0.102,0.75,0.292,0.954c0.204,0.191,0.395,0.293,0.7,0.293
	c0.789,0,1.832-0.446,3.131-1.439c1.743-1.297,3.131-3.028,4.174-5.166c1.095-2.189,1.642-4.429,1.642-6.77
	c0-4.123-1.489-7.648-4.53-10.435c-3.029-2.787-7.254-4.225-12.624-4.225c-4.568,0-8.501,0.942-11.682,2.838
	c-3.183,1.832-5.562,4.517-7.203,7.902c-1.641,3.372-2.43,6.91-2.43,10.588c0,3.576,0.94,6.808,2.723,9.735
	c1.794,2.94,4.327,5.078,7.559,6.414c3.283,1.349,7.013,2.036,11.236,2.036c4.022,0,7.509-0.547,10.385-1.68
	c2.939-1.145,5.269-2.838,7.063-5.077h5.421c-1.693,3.436-4.327,6.121-7.814,8.106c-4.021,2.189-8.895,3.334-14.659,3.334
	c-5.612,0-10.436-0.955-14.47-2.838c-4.071-1.883-7.101-4.67-9.086-8.348c-1.998-3.678-2.991-7.711-2.991-12.039
	C-520.864-1153.163-519.719-1157.578-517.478-1161.7 M-567.338-1143.566l56.375,37.782l-56.375,43.598V-1143.566z
	 M-563.062-1059.259l66.708-51.59l66.708,51.59H-563.062z M-425.37-1062.187l-56.375-43.598l56.375-37.782V-1062.187z
	 M-493.566-1157.526c0.891,0.992,1.336,2.482,1.336,4.364c0,1.744-0.344,3.589-0.992,5.574c-0.65,1.985-1.438,3.475-2.342,4.518
	c-0.585,0.7-1.235,1.247-1.884,1.591c-0.84,0.458-1.743,0.7-2.735,0.7c-1.286,0-2.33-0.497-3.233-1.54
	c-0.89-0.993-1.285-2.583-1.285-4.721c0-1.591,0.293-3.487,0.941-5.574c0.599-2.087,1.541-3.627,2.788-4.772
	c1.233-1.133,2.583-1.68,4.021-1.68C-495.603-1159.066-494.47-1158.569-493.566-1157.526"/>
<g id="Email_Icon_2">
	<path fill="#FF0000" d="M-182.711-1132.825l69.217-47.215H-251.08c-0.077,0-0.148,0.021-0.224,0.021L-182.711-1132.825z"/>
	<path fill="#FF0000" d="M-106.223-1175.021l-72.126,49.198c-0.617,0.452-2.185,1.42-4.284,1.42c-2.14,0-3.842-1.02-4.312-1.331
		l-71.214-48.994c-0.199,0.672-0.34,1.369-0.34,2.106v88.194c0,4.098,3.322,7.418,7.419,7.418h137.871
		c4.096,0,7.418-3.32,7.418-7.418v-88.194C-105.791-1173.467-105.963-1174.265-106.223-1175.021 M-192.09-1117.456l-56.102,34.03
		c-1.812,1.1-3.949,0.901-4.766-0.448c-0.818-1.342-0.006-3.323,1.812-4.428l56.098-34.022c1.817-1.104,3.952-0.904,4.768,0.436
		C-189.462-1120.543-190.275-1118.557-192.09-1117.456 M-111.332-1083.874c-0.816,1.35-2.953,1.548-4.766,0.448l-56.102-34.03
		c-1.815-1.101-2.627-3.087-1.812-4.433c0.817-1.34,2.952-1.54,4.771-0.436l56.097,34.022
		C-111.326-1087.197-110.515-1085.216-111.332-1083.874"/>
</g>
<g id="Email_icon_3">
	<polygon fill="#FF4810" points="205.662,-1141.003 148.146,-1099.987 90.628,-1141.003 71.791,-1154.432 71.791,-1066.558 
		224.499,-1066.558 224.499,-1154.432 	"/>
	<path fill="#FF4810" d="M88.017-1146.521l57.518,40.995c0.778,0.564,1.694,0.86,2.61,0.86c0.917,0,1.833-0.296,2.64-0.86
		l57.511-40.995c1.184-0.861,1.887-2.233,1.887-3.687v-37.599c0-2.501-2.018-4.52-4.52-4.52H90.628c-2.501,0-4.521,2.019-4.521,4.52
		v37.599C86.107-1148.727,86.839-1147.355,88.017-1146.521 M95.154-1183.287h105.981v30.736l-52.991,37.791l-52.99-37.791V-1183.287
		z"/>
	<path fill="#FF4810" d="M113.048-1163.933h67.342c2.715,0,4.926-2.205,4.926-4.927c0-2.715-2.211-4.898-4.926-4.898h-67.342
		c-2.715,0-4.926,2.184-4.926,4.898C108.122-1166.138,110.333-1163.933,113.048-1163.933"/>
	<path fill="#FF4810" d="M185.316-1151.766c0-2.693-2.212-4.898-4.926-4.898h-67.343c-2.715,0-4.927,2.178-4.927,4.898
		c0,2.715,2.212,4.927,4.927,4.927h67.343C183.104-1146.839,185.316-1149.051,185.316-1151.766"/>
</g>
<g id="Email_icon_4">
	<path fill="#FFFFFF" d="M473.663-1142.824c-2.588,0-4.973,0.724-7.165,2.196c-2.201,1.462-4.095,3.342-5.689,5.668
		c-1.593,2.328-2.824,4.92-3.677,7.804c-0.868,2.883-1.294,5.688-1.294,8.443c0,2.84,0.577,5.151,1.741,6.971
		c1.165,1.792,3.17,2.7,6.013,2.7c1.196,0,2.504-0.365,3.873-1.101c1.376-0.725,2.702-1.687,4.011-2.903
		c1.281-1.195,2.532-2.572,3.741-4.12c1.197-1.547,2.277-3.182,3.231-4.9l3.228-17.794c-1.123-0.948-2.289-1.675-3.486-2.196
		C476.979-1142.57,475.474-1142.824,473.663-1142.824"/>
	<path fill="#FFFFFF" d="M470.5-1201.062c-41.508,0-75.153,33.579-75.153,74.992c0,41.425,33.646,75.008,75.153,75.008
		c41.507,0,75.146-33.583,75.146-75.008C545.646-1167.482,512.007-1201.062,470.5-1201.062 M518.566-1107.1
		c-3.402,3.521-7.374,6.316-11.884,8.379c-4.522,2.06-9.382,3.095-14.536,3.095c-2.16,0-4.157-0.234-6.011-0.717
		c-1.859-0.47-3.409-1.259-4.65-2.378c-1.251-1.121-2.183-2.585-2.784-4.387c-0.607-1.804-0.779-4.047-0.512-6.703h-0.523
		c-1.281,1.804-2.685,3.563-4.192,5.282c-1.51,1.718-3.168,3.246-4.974,4.579c-1.807,1.333-3.796,2.393-5.946,3.157
		c-2.159,0.77-4.523,1.166-7.103,1.166c-2.074,0-4.053-0.459-5.959-1.355c-1.881-0.907-3.518-2.178-4.898-3.802
		c-1.377-1.631-2.479-3.617-3.295-5.934c-0.822-2.325-1.227-4.899-1.227-7.739c0-5.337,0.864-10.511,2.575-15.539
		c1.733-5.029,4.077-9.479,7.052-13.343c2.975-3.874,6.416-6.981,10.34-9.351c3.916-2.356,8.075-3.544,12.463-3.544
		c3.013,0,5.559,0.448,7.624,1.355c2.064,0.907,3.957,2.083,5.689,3.545l4.001-4.13h9.049l-6.202,34.945
		c-0.687,4.045-0.708,6.967-0.066,8.774c0.654,1.804,2.084,2.7,4.335,2.7c2.232,0,4.437-0.515,6.586-1.549
		c2.148-1.025,4.085-2.615,5.819-4.771c1.708-2.146,3.121-4.845,4.188-8.109c1.085-3.28,1.617-7.144,1.617-11.614
		c0-6.449-1.081-11.955-3.229-16.513c-2.162-4.546-5.112-8.315-8.855-11.271c-3.743-2.967-8.163-5.145-13.241-6.512
		c-5.082-1.377-10.559-2.07-16.406-2.07c-6.717,0-12.965,1.204-18.738,3.606c-5.777,2.414-10.788,5.721-15.06,9.927
		c-4.258,4.217-7.59,9.222-10.01,15.029c-2.407,5.796-3.617,12.104-3.617,18.892c0,6.703,1.016,12.723,3.038,18.05
		c2.02,5.338,4.974,9.863,8.856,13.609c3.87,3.737,8.672,6.618,14.406,8.635c5.72,2.02,12.288,3.032,19.7,3.032
		c2.504,0,5.335-0.301,8.535-0.897c3.175-0.607,6.063-1.503,8.653-2.711l3.997,12.383c-3.528,1.717-7.12,2.913-10.788,3.607
		c-3.659,0.683-7.852,1.036-12.599,1.036c-8.354,0-16.089-1.208-23.188-3.618c-7.101-2.401-13.274-5.97-18.482-10.697
		c-5.211-4.729-9.285-10.598-12.201-17.601c-2.933-7.001-4.397-15.113-4.397-24.302c0-9.373,1.679-17.85,5.038-25.415
		c3.357-7.559,7.891-14.004,13.574-19.341c5.676-5.329,12.277-9.428,19.762-12.319c7.497-2.871,15.424-4.311,23.774-4.311
		c7.926,0,15.287,1.13,22.09,3.414c6.81,2.274,12.704,5.539,17.711,9.799c4.993,4.259,8.908,9.457,11.754,15.606
		c2.845,6.147,4.265,13.125,4.265,20.952c0,5.506-0.969,10.663-2.907,15.479C524.641-1114.798,521.967-1110.633,518.566-1107.1"/>
</g>
<g id="CV_icon_1">
	<g>
		<path fill="#231F20" d="M844.749-998.688l46.106-46.106c0,0,0-147.833,0-168.324c0-20.492-6.587-33.665-28.542-33.665
			s-127.341,0-138.318,0s-30.006,5.123-30.006,27.079c0,21.955,0,158.078,0,179.301c0,21.223,4.392,41.715,31.47,41.715
			S844.749-998.688,844.749-998.688z"/>
	</g>
	<g>
		<path fill="#FFFFFF" d="M829.053-1015.155c0,0,0-11.526,0-20.308s6.586-25.798,23.603-25.798c17.015,0,22.504,0,22.504,0
			s0-137.769,0-147.1s3.842-23.053-16.467-23.053s-111.424,0-127.89,0c-16.467,0-21.406,2.195-21.406,18.113s0,170.153,0,181.131
			s2.195,17.015,18.662,17.015S829.053-1015.155,829.053-1015.155z"/>
	</g>
	<g>
		<g>
			<path fill="#231F20" d="M749.461-1171.75c-1.449,1.004-4.707,2.081-8.948,2.081c-12.048,0-18.255-10.396-18.255-24.158
				c0-16.485,8.481-25.661,19.029-25.661c4.089,0,7.188,1.147,8.587,2.15l-1.605,8.674c-1.599-0.934-3.827-1.792-6.619-1.792
				c-6.258,0-11.117,5.232-11.117,15.983c0,9.677,4.136,15.771,11.172,15.771c2.379,0,5.016-0.718,6.564-1.579L749.461-1171.75z"/>
		</g>
		<g>
			<path fill="#231F20" d="M763.336-1170.388l-11.167-48.312h8.636l4.241,20.428c1.188,5.734,2.273,11.256,3.099,17.276h0.156
				c0.881-5.808,1.967-11.542,3.154-17.061l4.451-20.644h8.375l-11.74,48.312H763.336z"/>
		</g>
	</g>
	<g>
		<rect x="721.569" y="-1110.349" fill="#231F20" width="141.063" height="12.075"/>
	</g>
	<g>
		<rect x="721.569" y="-1093.059" fill="#231F20" width="141.063" height="4.94"/>
	</g>
	<g>
		<rect x="721.569" y="-1082.721" fill="#231F20" width="141.063" height="4.94"/>
	</g>
	<g>
		<rect x="721.569" y="-1072.384" fill="#231F20" width="141.063" height="4.94"/>
	</g>
	<g>
		<rect x="721.569" y="-1062.046" fill="#231F20" width="109.503" height="4.939"/>
	</g>
	<g>
		<rect x="721.569" y="-1051.344" fill="#231F20" width="100.172" height="4.94"/>
	</g>
	<g>
		<rect x="721.569" y="-1039.542" fill="#231F20" width="100.172" height="4.94"/>
	</g>
	<g>
		<rect x="722.213" y="-1157.918" fill="#231F20" width="141.062" height="12.075"/>
	</g>
	<g>
		<rect x="722.213" y="-1140.628" fill="#231F20" width="141.062" height="4.94"/>
	</g>
	<g>
		<rect x="722.213" y="-1129.925" fill="#231F20" width="103.007" height="4.94"/>
	</g>
</g>
<g id="Work_2">
	<path fill="#E8BD47" d="M131.372-899.01h32.744c7.033,0,12.734,5.701,12.734,12.733v12.007h14.067v-24.619
		c0-7.032-5.701-12.733-12.733-12.733h-60.88c-7.033,0-12.734,5.701-12.734,12.733v24.619h14.068v-12.007
		C118.638-893.309,124.339-899.01,131.372-899.01z"/>
	<g>
		<path fill="#E8BD47" d="M131.585-800.554c0.968-3.479,4.125-6.045,7.911-6.045h16.494c3.786,0,6.943,2.566,7.911,6.045
			l101.235-32.032v-10.638c0-14.065-11.402-25.468-25.467-25.468h-48.753H176.85h-58.212H104.57H55.817
			c-14.065,0-25.467,11.402-25.467,25.468v10.638L131.585-800.554z"/>
		<path fill="#E8BD47" d="M164.236-792.058v16.99c0,4.555-3.691,8.246-8.246,8.246h-16.494c-4.554,0-8.247-3.691-8.247-8.246v-16.99
			l-100.9-32.713v94.574c0,14.065,11.402,25.468,25.467,25.468H239.67c14.064,0,25.467-11.402,25.467-25.468v-94.574
			L164.236-792.058z"/>
	</g>
	<path fill="#E8BD47" d="M136.368-802.415h22.751c0.5,0,0.906,0.405,0.906,0.905v29.842c0,0.501-0.406,0.906-0.906,0.906h-22.751
		c-0.5,0-0.906-0.405-0.906-0.906v-29.842C135.462-802.01,135.867-802.415,136.368-802.415z"/>
</g>
<path id="Education_icon_1" fill="#231F20" d="M353.068-854.813c0,0,10.853,2.656,26.378,6.229v30.586h-1.952
	c-0.715,0-1.312,0.544-1.377,1.255l-6.821,73.638c-0.075,0.81,0.563,1.51,1.377,1.51h24.622c0.836,0,1.48-0.734,1.372-1.562
	l-9.662-73.638c-0.091-0.688-0.677-1.203-1.371-1.203h-1.175l-1.136-29.697c11.754,2.684,25.689,5.774,39.485,8.614
	c-9.663,11.696-23.676,30.042-19.316,33.211c6.486,4.717,42.088,2.359,70.282,27.125c6.966,2.949,45.295-28.304,80.086-27.715
	c4.161-0.378-7.94-19.19-20.575-33.721c30.836-8.537,61.195-19.35,61.195-19.35l-120.706-23.587L353.068-854.813z"/>
<g id="Education_icon_2">
	<path fill="#231F20" d="M783.103-801.9c-24.573,10.124-56.536,14.882-56.536,14.882l14.088,7.925l-8.601,13.413
		c15.866-3.166,30.438-9.922,42.185-16.86c-12.853,14.757-27.633,26.182-27.633,26.182l14.818,0.188l0.496,14.954
		c21.594-18.169,32.156-36.032,37.322-49.055C794.087-794.428,788.664-798.303,783.103-801.9z"/>
	<path fill="#231F20" d="M912.848-782.292c-5.681-10.812-52.259-22.562-78.056-41.65c-2.23-1.65-4.794-3.595-7.611-5.755
		c-13.133,12.502-21.486,29.323-26.082,40.922c4.812,3.995,9.367,8.24,13.537,12.75c41.088,44.44,67.817,54.048,78.957,45.239
		C904.731-739.594,918.528-771.48,912.848-782.292z"/>
	<path fill="#231F20" d="M814.408-839.56c0.078,0.06,0.154,0.12,0.233,0.18C814.563-839.439,814.486-839.5,814.408-839.56z"/>
	<path fill="#231F20" d="M808.77-843.917c0.846,0.652,1.683,1.299,2.512,1.939c-31.187-24.098-74.389-56.767-83.271-50.152
		c0,0-28.208,13.835-32.503,52.554c0,0,45.094,11.048,84.773,35.866C784.527-824.818,799.241-837.64,808.77-843.917z"/>
	<path fill="#231F20" d="M811.315-841.952c0.72,0.557,1.431,1.106,2.138,1.653C812.747-840.845,812.035-841.396,811.315-841.952z"/>
</g>
<path id="Work_icon_3" fill="#0B80E0" d="M-464.511-427.353l0.097-0.016l-14.748-73.707h4.882c2.75,0,4.974-2.225,4.974-4.975
	c0-2.749-2.225-4.974-4.974-4.974h-6.869l-8.136-40.696l-0.097,0.02c-0.024-0.098-0.034-0.195-0.059-0.292l22.602-19.376
	l-0.039-0.068c1.496-0.859,2.545-2.404,2.545-4.25c0-13.737-17.817-24.871-39.793-24.871s-39.793,11.134-39.793,24.871
	c0,1.846,1.049,3.391,2.545,4.25l-0.039,0.068l22.602,19.376c-0.024,0.093-0.034,0.194-0.059,0.292l-0.097-0.02l-24.87,124.352
	l0.097,0.016c-0.054,0.296-0.18,0.578-0.18,0.889c0,1.253,0.505,2.37,1.273,3.24l-0.039,0.033l34.819,39.793l0.039-0.034
	c0.903,1.045,2.205,1.734,3.701,1.734s2.788-0.689,3.702-1.734l0.039,0.034l34.819-39.793l-0.039-0.033
	c0.768-0.87,1.273-1.987,1.273-3.24C-464.332-426.774-464.458-427.057-464.511-427.353 M-533.688-577.62
	c1.895-7.325,14.393-12.989,29.563-12.989s27.664,5.664,29.568,12.989l-29.568,25.347L-533.688-577.62z M-504.125-394.225
	l-29.461-33.667l23.35-116.756l2.438,2.089c0.204,0.233,0.447,0.408,0.69,0.593l0.515,0.441l0.039-0.062
	c0.729,0.418,1.525,0.719,2.429,0.719s1.7-0.301,2.429-0.719l0.039,0.062l0.515-0.441c0.243-0.185,0.486-0.359,0.69-0.593
	l2.434-2.089l6.728,33.624h-12.833c-2.75,0-4.974,2.225-4.974,4.974c0,2.75,2.225,4.975,4.974,4.975h14.825l14.636,73.184
	L-504.125-394.225z"/>
<path id="Education_icon_3" fill="#0B80E0" d="M-33-530.595c0-2.479-1.47-4.572-3.564-5.574l0.018-0.037l-0.182-0.072
	c-0.061-0.025-0.121-0.049-0.176-0.068l-130.22-49.604l-0.019,0.036c-0.808-0.389-1.694-0.644-2.653-0.644s-1.84,0.255-2.654,0.644
	l-0.018-0.036l-130.213,49.604c-0.061,0.02-0.122,0.043-0.176,0.068l-0.188,0.072l0.019,0.037c-2.095,1.002-3.564,3.096-3.564,5.574
	c0,2.477,1.469,4.572,3.564,5.574l-0.019,0.035l0.188,0.074c0.055,0.023,0.115,0.041,0.176,0.066l11.671,4.451l-7.882,59.143
	c-4.518,1.859-7.7,6.305-7.7,11.49c0,6.867,5.562,12.436,12.436,12.436c6.861,0,12.436-5.568,12.436-12.436
	c0-4.002-1.919-7.518-4.858-9.795l7.505-56.291l20.895,7.961l-11.052,88.389l0.109,0.023c-0.042,0.268-0.164,0.51-0.164,0.803
	c0,3.436,2.781,6.217,6.218,6.217c0.474,0,0.887-0.145,1.324-0.248l0.024,0.104l46.805-11.707l41.389,35.479l0.061-0.078
	c1.044,0.777,2.271,1.324,3.668,1.324c1.275,0,2.398-0.48,3.388-1.143l0.061,0.098l47.65-35.734l47.041,11.762l0.024-0.121
	c0.437,0.096,0.856,0.266,1.323,0.266c3.438,0,6.219-2.781,6.219-6.217c0-0.4-0.134-0.754-0.201-1.131l0.092-0.018l-16.553-88.32
	l43.848-16.705c0.055-0.025,0.115-0.043,0.176-0.066l0.182-0.074l-0.018-0.035C-34.47-526.022-33-528.118-33-530.595
	 M-78.202-427.052l-40.502-10.129l-0.024,0.123c-0.438-0.098-0.85-0.268-1.324-0.268c-1.274,0-2.398,0.473-3.388,1.141l-0.061-0.096
	l-46.04,34.525l-40.053-34.332l-0.061,0.092c-1.039-0.783-2.265-1.33-3.667-1.33c-0.468,0-0.887,0.17-1.324,0.268l-0.024-0.123
	l-41.097,10.275l9.552-76.426l73.748,28.09l0.018-0.035c0.814,0.389,1.694,0.643,2.654,0.643s1.846-0.254,2.653-0.643l0.019,0.035
	l74.556-28.4L-78.202-427.052z M-169.796-487.481l-113.163-43.113l113.163-43.113l113.169,43.113L-169.796-487.481z"/>
<path id="Down_Arrow" fill="#0B80E0" d="M-431.468-216.221c-0.844,0-1.608,0.343-2.161,0.896l-55.893,52.951l-55.893-52.951
	c-0.552-0.553-1.316-0.896-2.16-0.896c-1.689,0-3.056,1.366-3.056,3.056c0,0.845,0.34,1.608,0.895,2.16l58.053,54.998
	c0.552,0.555,1.316,0.895,2.16,0.895c0.845,0,1.608-0.34,2.16-0.895l58.053-54.998c0.555-0.552,0.895-1.315,0.895-2.16
	C-428.413-214.854-429.779-216.221-431.468-216.221"/>
<path id="up_arrow" fill="#0B80E0" d="M-122.652-160.327l-58.053-54.998c-0.552-0.553-1.316-0.896-2.161-0.896
	c-0.841,0-1.608,0.343-2.16,0.896l-58.053,54.998c-0.555,0.555-0.895,1.315-0.895,2.16c0,1.688,1.367,3.055,3.055,3.055
	c0.845,0,1.608-0.34,2.16-0.895l55.893-52.951l55.893,52.951c0.552,0.555,1.315,0.895,2.16,0.895c1.688,0,3.056-1.366,3.056-3.055
	C-121.757-159.012-122.098-159.772-122.652-160.327"/>
<path id="left_arrow" fill="#0B80E0" d="M110.498-185.666l52.951-55.894c0.555-0.552,0.895-1.315,0.895-2.16
	c0-1.688-1.366-3.055-3.055-3.055c-0.845,0-1.605,0.343-2.16,0.895l-54.998,58.054c-0.552,0.555-0.895,1.318-0.895,2.16
	c0,0.845,0.34,1.608,0.895,2.16l54.998,58.053c0.555,0.556,1.315,0.896,2.16,0.896c1.688,0,3.055-1.367,3.055-3.056
	c0-0.841-0.34-1.605-0.895-2.16L110.498-185.666z"/>
<path id="Right_arrow" fill="#0B80E0" d="M500.213-187.826l-54.997-58.054c-0.553-0.552-1.316-0.895-2.16-0.895
	c-1.689,0-3.056,1.366-3.056,3.055c0,0.845,0.343,1.608,0.896,2.16l52.95,55.894l-52.95,55.893c-0.553,0.555-0.896,1.319-0.896,2.16
	c0,1.688,1.366,3.056,3.056,3.056c0.844,0,1.607-0.34,2.16-0.896l54.997-58.053c0.552-0.552,0.896-1.315,0.896-2.16
	S500.765-187.271,500.213-187.826"/>
<path fill="#0B80E0" d="M867.337-544.478c0-2.282-1.854-4.137-4.138-4.137c-1.179,0-2.227,0.505-2.981,1.297l-0.009-0.015
	L751.441-434.541l-59.075-59.077c-0.752-0.75-1.786-1.215-2.925-1.215c-2.283,0-4.137,1.855-4.137,4.138
	c0,1.144,0.46,2.179,1.211,2.925l62.057,62.062c0.752,0.749,1.785,1.208,2.926,1.208c1.18,0,2.226-0.499,2.977-1.289l0.021,0.008
	L866.197-541.62l-0.02-0.016C866.893-542.37,867.337-543.368,867.337-544.478"/>
<path fill="#0B80E0" d="M791.054-166.558l78.037-78.037c0.87-0.865,1.404-2.063,1.404-3.387c0-2.643-2.142-4.789-4.79-4.789
	c-1.319,0-2.517,0.537-3.387,1.404l-78.037,78.037l-78.037-78.037c-0.867-0.867-2.063-1.404-3.387-1.404
	c-2.648,0-4.791,2.146-4.791,4.789c0,1.323,0.534,2.521,1.404,3.391l78.038,78.033l-78.038,78.04
	c-0.87,0.865-1.404,2.063-1.404,3.384c0,2.65,2.143,4.79,4.791,4.79c1.323,0,2.52-0.536,3.387-1.403l78.037-78.037l78.037,78.037
	c0.87,0.867,2.067,1.403,3.387,1.403c2.648,0,4.79-2.14,4.79-4.79c0-1.32-0.534-2.519-1.404-3.384L791.054-166.558z"/>
<path fill="#0B80E0" d="M220.358-552.672h-53.222c0-9.797-7.943-17.74-17.741-17.74h-35.481c-9.797,0-17.741,7.943-17.741,17.74
	h-53.22c-4.895,0-8.871,3.977-8.871,8.878v44.344c0,4.897,3.976,8.871,8.871,8.871v70.962c0,4.896,3.974,8.87,8.87,8.87h159.664
	c4.894,0,8.87-3.975,8.87-8.87v-70.962c4.894,0,8.87-3.974,8.87-8.871v-44.344C229.229-548.695,225.252-552.672,220.358-552.672
	 M113.915-561.54h35.481c4.895,0,8.87,3.975,8.87,8.868h-53.222C105.044-557.565,109.021-561.54,113.915-561.54 M211.488-419.617
	H51.824v-70.962h17.74v8.877c0,4.891,3.975,8.863,8.871,8.863h17.739c4.896,0,8.87-3.973,8.87-8.863v-8.877h53.222v8.877
	c0,4.891,3.977,8.863,8.871,8.863h17.74c4.895,0,8.87-3.973,8.87-8.863v-8.877h17.741V-419.617z M78.435-508.32h17.739v26.618
	H78.435V-508.32z M167.137-508.32h17.74v26.618h-17.74V-508.32z M220.358-499.45h-26.611v-8.87c0-4.894-3.976-8.87-8.87-8.87h-17.74
	c-4.895,0-8.871,3.977-8.871,8.87v8.87h-53.222v-8.87c0-4.894-3.974-8.87-8.87-8.87H78.435c-4.896,0-8.871,3.977-8.871,8.87v8.87
	h-26.61v-44.344h177.404V-499.45z"/>
<path fill="#0B80E0" d="M-83.853-881.337h-87.589c-19.465,0-19.465-19.461-38.93-19.461h-48.662
	c-10.749,0-19.464,8.711-19.464,19.461v136.251c0,10.758,8.715,19.465,19.464,19.465h175.181c10.749,0,19.465-8.708,19.465-19.465
	v-116.786C-64.388-872.622-73.104-881.337-83.853-881.337 M-74.12-745.086c0,5.378-4.363,9.732-9.732,9.732h-175.181
	c-5.369,0-9.732-4.354-9.732-9.732v-97.321H-74.12V-745.086z M-74.12-852.136h-194.646v-29.201c0-5.372,4.363-9.729,9.732-9.729
	h48.662c14.597,0,14.597,19.465,38.93,19.465h87.589c5.37,0,9.732,4.356,9.732,9.729V-852.136z"/>
<path fill="#0B80E0" d="M475.488-537.147c-5.62,0-10.183,4.562-10.183,10.184l5.091,56.008c0,2.817,2.281,5.092,5.092,5.092
	c2.81,0,5.092-2.274,5.092-5.092l5.09-56.008C485.67-532.585,481.108-537.147,475.488-537.147 M475.488-455.682
	c-5.62,0-10.183,4.565-10.183,10.184c0,5.622,4.562,10.184,10.183,10.184s10.182-4.562,10.182-10.184
	C485.67-451.116,481.108-455.682,475.488-455.682 M584.889-435.115L493.24-577.684c0,0-4.703-10.381-17.752-10.381
	c-12.277,0-17.753,10.381-17.753,10.381l-91.649,142.568c0,0-2.615,3.371-2.615,9.983c0,11.25,9.119,20.367,20.367,20.367h183.3
	c11.248,0,20.367-9.117,20.367-20.367C587.505-432.239,584.889-435.115,584.889-435.115 M567.138-414.948h-183.3
	c-5.619,0-10.184-4.566-10.184-10.184c0-2.132,0.451-3.429,0.686-3.95c0.179-0.189,0-0.045,0.309-0.524l91.649-142.566
	c0.16-0.25,0.309-0.503,0.448-0.758c0.024-0.045,2.875-4.95,8.742-4.95s8.174,3.854,8.477,4.4c0.244,0.627,0.346,0.742,0.713,1.308
	l91.649,142.566c0.13,0.204,0.27,0.402,0.412,0.602c0.149,0.352,0.582,1.565,0.582,3.873
	C577.321-419.515,572.748-414.948,567.138-414.948"/>
<path fill="#0B80E0" d="M-497.01-771.892c-4.888-1.986-7.023-3.128-7.023-5.707c0-2.105,1.801-3.911,5.507-3.911
	c3.711,0,6.405,1.137,7.921,1.925l1.916-7.392c-2.25-1.077-5.397-2.045-9.667-2.045c-8.929,0-14.326,5.287-14.326,12.196
	c0,5.891,4.1,9.622,10.395,11.966c4.549,1.736,6.345,3.183,6.345,5.707c0,2.644-2.075,4.385-6.005,4.385
	c-3.656,0-7.203-1.262-9.501-2.524l-1.741,7.567c2.135,1.267,6.404,2.47,10.729,2.47c10.4,0,15.289-5.771,15.289-12.561
	C-487.173-765.528-490.321-769.249-497.01-771.892 M-530.799-788.662c-5.228,0-8.934,0.359-11.572,0.848v39.954h8.479v-14.48
	c0.783,0.12,1.801,0.179,2.923,0.179c5.058,0,9.383-1.321,12.305-4.264c2.25-2.285,3.482-5.647,3.482-9.617
	c0-3.966-1.631-7.323-4.045-9.373C-521.75-787.58-525.521-788.662-530.799-788.662 M-531.023-769.189
	c-1.237,0-2.134-0.06-2.868-0.239v-11.961c0.619-0.18,1.801-0.359,3.542-0.359c4.27,0,6.684,2.224,6.684,5.946
	C-523.666-771.653-526.474-769.189-531.023-769.189 M-455.849-911.298h-112.37c-11.283,0-20.431,9.138-20.431,20.431v183.868
	c0,11.292,9.148,20.441,20.431,20.441h143.016c11.284,0,20.431-9.148,20.431-20.441v-148.114L-455.849-911.298z M-414.987-706.999
	c0,5.646-4.569,10.215-10.216,10.215h-143.016c-5.637,0-10.215-4.569-10.215-10.215v-183.868c0-5.646,4.579-10.216,10.215-10.216
	h91.939v51.078c0,5.637,4.579,10.205,10.215,10.205h51.077V-706.999z M-466.064-850.005v-51.078h5.108l45.969,51.078H-466.064z
	 M-481.078-787.814v39.774c2.125,0.299,5.277,0.598,9.716,0.598c7.417,0,13.488-1.676,17.473-5.227
	c3.656-3.303,6.295-8.65,6.295-16.401c0-7.153-2.474-12.141-6.41-15.264c-3.651-2.947-8.31-4.329-15.502-4.329
	C-473.836-788.662-477.936-788.363-481.078-787.814 M-456.697-768.771c0,9.677-5.058,14.241-12.809,14.181
	c-1.067,0-2.25,0-2.978-0.179v-26.501c0.729-0.18,1.965-0.359,3.875-0.359C-461.246-781.629-456.637-777.18-456.697-768.771"/>
<g id="BeHance">
	<path fill="#FFFFFF" d="M-528.343,93.929c5.328,0,10.136,0.457,14.531,1.393c4.37,0.91,8.1,2.438,11.25,4.523
		c3.102,2.09,5.53,4.867,7.27,8.369c1.698,3.445,2.548,7.76,2.548,12.869c0,5.52-1.272,10.131-3.816,13.82
		c-2.564,3.676-6.332,6.699-11.367,9.045c6.856,1.938,11.933,5.354,15.299,10.213c3.382,4.895,5.04,10.742,5.04,17.607
		c0,5.561-1.083,10.348-3.243,14.373c-2.181,4.078-5.15,7.387-8.81,9.934c-3.688,2.574-7.926,4.463-12.672,5.689
		c-4.692,1.229-9.566,1.848-14.555,1.848h-53.988V93.929H-528.343z M-531.515,138.241c4.345,0,7.942-1.012,10.792-3.074
		c2.82-2.029,4.188-5.381,4.188-9.977c0-2.549-0.455-4.66-1.368-6.295c-0.945-1.637-2.197-2.922-3.779-3.816
		c-1.569-0.934-3.341-1.578-5.398-1.928c-2.02-0.387-4.139-0.537-6.308-0.537h-22.944v25.627H-531.515z M-530.161,184.931
		c2.42,0,4.717-0.211,6.877-0.688c2.193-0.471,4.139-1.221,5.778-2.326c1.64-1.062,2.999-2.521,3.986-4.377
		c0.991-1.838,1.466-4.227,1.466-7.109c0-5.654-1.615-9.668-4.829-12.104c-3.218-2.404-7.508-3.6-12.788-3.6h-26.662v30.203
		H-530.161z"/>
	<path fill="#FFFFFF" d="M-452.63,184.563c3.317,3.193,8.112,4.801,14.324,4.801c4.469,0,8.332-1.115,11.569-3.332
		c3.209-2.217,5.164-4.584,5.919-7.041h19.508c-3.136,9.559-7.894,16.383-14.381,20.492c-6.415,4.129-14.238,6.182-23.354,6.182
		c-6.352,0-12.068-1.01-17.203-3.006c-5.13-2.02-9.417-4.852-13.022-8.537c-3.515-3.709-6.246-8.09-8.191-13.234
		c-1.925-5.119-2.896-10.785-2.896-16.928c0-5.939,1.008-11.486,2.978-16.615c2.012-5.145,4.792-9.586,8.447-13.307
		c3.664-3.748,8.009-6.699,13.068-8.855c5.06-2.15,10.64-3.234,16.818-3.234c6.824,0,12.8,1.295,17.922,3.926
		c5.104,2.6,9.289,6.117,12.576,10.525c3.288,4.402,5.626,9.428,7.088,15.074c1.45,5.633,1.958,11.518,1.541,17.68h-58.196
		C-458.115,175.431-455.959,181.376-452.63,184.563z M-427.179,142.843c-2.631-2.871-7.091-4.426-12.531-4.426
		c-3.54,0-6.468,0.586-8.814,1.783c-2.292,1.18-4.171,2.65-5.609,4.375c-1.429,1.756-2.404,3.611-2.969,5.596
		c-0.57,1.934-0.909,3.686-1.012,5.234h36.042C-422.603,149.845-424.536,145.729-427.179,142.843z"/>
	<rect x="-462.646" y="101.288" fill="#FFFFFF" width="45.149" height="10.822"/>
</g>
<g id="Github">
	<path fill-rule="evenodd" clip-rule="evenodd" fill="#FFFFFF" d="M-169.737,74.134c-42.464,0-76.898,34.428-76.898,76.9
		c0,33.975,22.034,62.801,52.588,72.967c3.842,0.711,5.254-1.668,5.254-3.697c0-1.834-0.071-7.893-0.104-14.318
		c-21.394,4.654-25.907-9.072-25.907-9.072c-3.498-8.887-8.538-11.252-8.538-11.252c-6.978-4.773,0.526-4.674,0.526-4.674
		c7.721,0.541,11.788,7.924,11.788,7.924c6.858,11.756,17.989,8.357,22.378,6.391c0.69-4.969,2.682-8.361,4.882-10.281
		c-17.081-1.943-35.037-8.537-35.037-38.004c0-8.396,3.005-15.256,7.924-20.641c-0.798-1.938-3.431-9.758,0.745-20.352
		c0,0,6.458-2.064,21.152,7.885c6.134-1.703,12.713-2.561,19.248-2.59c6.535,0.029,13.119,0.887,19.265,2.59
		c14.677-9.949,21.125-7.885,21.125-7.885c4.186,10.594,1.554,18.414,0.755,20.352c4.931,5.385,7.915,12.244,7.915,20.641
		c0,29.535-17.99,36.039-35.114,37.941c2.758,2.389,5.216,7.066,5.216,14.242c0,10.289-0.088,18.568-0.088,21.104
		c0,2.047,1.384,4.443,5.282,3.688c30.538-10.18,52.543-38.992,52.543-72.957C-92.839,108.562-127.268,74.134-169.737,74.134z"/>
	<path fill="#FFFFFF" d="M-217.51,184.544c-0.169,0.383-0.771,0.496-1.318,0.234c-0.558-0.25-0.871-0.771-0.69-1.154
		c0.166-0.393,0.768-0.504,1.325-0.24C-217.636,183.636-217.317,184.161-217.51,184.544L-217.51,184.544z M-218.456,183.841"/>
	<path fill="#FFFFFF" d="M-214.395,188.019c-0.367,0.34-1.085,0.182-1.571-0.355c-0.504-0.535-0.597-1.254-0.225-1.598
		c0.378-0.34,1.073-0.182,1.577,0.355C-214.11,186.964-214.012,187.675-214.395,188.019L-214.395,188.019z M-215.128,187.231"/>
	<path fill="#FFFFFF" d="M-211.363,192.448c-0.471,0.328-1.242,0.02-1.718-0.666c-0.471-0.684-0.471-1.504,0.011-1.832
		c0.477-0.328,1.236-0.031,1.719,0.646C-210.882,191.29-210.882,192.112-211.363,192.448L-211.363,192.448z M-211.363,192.448"/>
	<path fill="#FFFFFF" d="M-207.209,196.726c-0.421,0.465-1.32,0.34-1.976-0.295c-0.673-0.617-0.859-1.498-0.438-1.963
		c0.428-0.467,1.331-0.336,1.993,0.293C-206.963,195.38-206.761,196.265-207.209,196.726L-207.209,196.726z M-207.209,196.726"/>
	<path fill="#FFFFFF" d="M-201.479,199.21c-0.187,0.602-1.051,0.875-1.921,0.619c-0.871-0.264-1.439-0.967-1.263-1.576
		c0.18-0.607,1.049-0.891,1.926-0.617C-201.869,197.896-201.299,198.599-201.479,199.21L-201.479,199.21z M-201.479,199.21"/>
	<path fill="#FFFFFF" d="M-195.186,199.671c0.021,0.633-0.717,1.16-1.631,1.172c-0.919,0.021-1.664-0.494-1.674-1.117
		c0-0.641,0.722-1.16,1.641-1.178C-195.936,198.53-195.186,199.04-195.186,199.671L-195.186,199.671z M-195.186,199.671"/>
	<path fill="#FFFFFF" d="M-189.33,198.675c0.11,0.617-0.526,1.254-1.434,1.424c-0.893,0.164-1.718-0.219-1.833-0.834
		c-0.111-0.635,0.536-1.268,1.428-1.432C-190.26,197.673-189.445,198.046-189.33,198.675L-189.33,198.675z M-189.33,198.675"/>
</g>
<g id="Linkedin">
	<path fill="#FFFFFF" d="M213.859,74.332H85.995c-6.111,0-11.075,4.842-11.075,10.812v128.361c0,5.977,4.964,10.826,11.075,10.826
		h127.864c6.119,0,11.104-4.85,11.104-10.826V85.145C224.963,79.174,219.979,74.332,213.859,74.332z M119.421,202.152H97.165
		v-71.586h22.256V202.152z M108.298,120.781c-7.132,0-12.906-5.779-12.906-12.904c0-7.115,5.774-12.895,12.906-12.895
		c7.115,0,12.896,5.779,12.896,12.895C121.194,115.002,115.413,120.781,108.298,120.781z M202.775,202.152h-22.24v-34.811
		c0-8.307-0.152-18.984-11.564-18.984c-11.58,0-13.354,9.043-13.354,18.381v35.414h-22.238v-71.586h21.348v9.781h0.297
		c2.969-5.627,10.23-11.561,21.057-11.561c22.535,0,26.695,14.824,26.695,34.1V202.152z"/>
</g>
</svg>
